/* XPM */
static char * baixo_xpm[] = {
"50 50 679 2",
"  	c #94BC52",
". 	c #97BF55",
"+ 	c #99C157",
"@ 	c #9BC057",
"# 	c #9CC158",
"$ 	c #9DC259",
"% 	c #9EC35A",
"& 	c #9ABF56",
"* 	c #99BE55",
"= 	c #97BC53",
"- 	c #98BD54",
"; 	c #95BA51",
"> 	c #93B84F",
", 	c #9BC158",
"' 	c #9FC45B",
") 	c #96BB52",
"! 	c #9BBF56",
"~ 	c #9CBF57",
"{ 	c #9DC158",
"] 	c #9CC159",
"^ 	c #A0C55C",
"/ 	c #9EC35B",
"( 	c #99BE56",
"_ 	c #9DC25A",
": 	c #9DC159",
"< 	c #9FC45C",
"[ 	c #9FC45D",
"} 	c #9EC35C",
"| 	c #9DC25B",
"1 	c #A1C65D",
"2 	c #A1C65E",
"3 	c #9FC45E",
"4 	c #9FC35E",
"5 	c #9EC35D",
"6 	c #9DC25C",
"7 	c #A0C55D",
"8 	c #A1C65F",
"9 	c #A0C55E",
"0 	c #A0C460",
"a 	c #9FC35F",
"b 	c #A1C561",
"c 	c #A0C560",
"d 	c #A2C760",
"e 	c #9FC260",
"f 	c #9BBE5D",
"g 	c #9CBF5E",
"h 	c #9DC05F",
"i 	c #9BBF5B",
"j 	c #9ABE5A",
"k 	c #9CC15B",
"l 	c #A0C55F",
"m 	c #A1C661",
"n 	c #A2C762",
"o 	c #A2C661",
"p 	c #8EAF55",
"q 	c #82A04E",
"r 	c #7E9A4B",
"s 	c #7F9C4C",
"t 	c #7E9B4B",
"u 	c #7D9B4A",
"v 	c #7C9A49",
"w 	c #809D4C",
"x 	c #8EAE54",
"y 	c #99BD5A",
"z 	c #A1C560",
"A 	c #A2C662",
"B 	c #A3C763",
"C 	c #93B359",
"D 	c #769046",
"E 	c #5C6E34",
"F 	c #535F2D",
"G 	c #57612E",
"H 	c #59622E",
"I 	c #5A622F",
"J 	c #5A622E",
"K 	c #59612E",
"L 	c #54602D",
"M 	c #596931",
"N 	c #748D44",
"O 	c #8EAE55",
"P 	c #9CC05D",
"Q 	c #A3C762",
"R 	c #A4C864",
"S 	c #9EC160",
"T 	c #91B157",
"U 	c #799348",
"V 	c #5C6933",
"W 	c #453B1D",
"X 	c #472716",
"Y 	c #522D19",
"Z 	c #5A311A",
"` 	c #5E331C",
" .	c #5F331B",
"..	c #5B311A",
"+.	c #532D19",
"@.	c #482817",
"#.	c #43351B",
"$.	c #596530",
"%.	c #768F45",
"&.	c #8CAD53",
"*.	c #9CC05C",
"=.	c #A3C862",
"-.	c #A2C663",
";.	c #9FC261",
">.	c #789247",
",.	c #54612F",
"'.	c #494021",
").	c #51331E",
"!.	c #5F3620",
"~.	c #6E3D23",
"{.	c #794326",
"].	c #7F4527",
"^.	c #7F4627",
"/.	c #7A4326",
"(.	c #6F3D24",
"_.	c #613721",
":.	c #52331E",
"<.	c #483C1F",
"[.	c #535F2E",
"}.	c #738C44",
"|.	c #90B156",
"1.	c #9CBF5D",
"2.	c #9EC25D",
"3.	c #A2C761",
"4.	c #90AF56",
"5.	c #789248",
"6.	c #586933",
"7.	c #3D3B1E",
"8.	c #442E1B",
"9.	c #52301E",
"0.	c #5E3621",
"a.	c #6B3C24",
"b.	c #784327",
"c.	c #804728",
"d.	c #804729",
"e.	c #794427",
"f.	c #6C3D24",
"g.	c #603721",
"h.	c #54311F",
"i.	c #442A1A",
"j.	c #3E3B1E",
"k.	c #536330",
"l.	c #738D44",
"m.	c #8CAC54",
"n.	c #9BBE5E",
"o.	c #A3C861",
"p.	c #A4C962",
"q.	c #9CBE5E",
"r.	c #809C4D",
"s.	c #576A33",
"t.	c #34371B",
"u.	c #332417",
"v.	c #41271A",
"w.	c #4C2C1C",
"x.	c #532F1D",
"y.	c #5C331E",
"z.	c #6A3A21",
"A.	c #723E23",
"B.	c #723F24",
"C.	c #6B3A22",
"D.	c #5E341F",
"E.	c #54301D",
"F.	c #4D2D1C",
"G.	c #43281A",
"H.	c #352417",
"I.	c #373A1D",
"J.	c #4E602D",
"K.	c #7B9749",
"L.	c #97B95B",
"M.	c #9FC360",
"N.	c #9BC058",
"O.	c #98BF55",
"P.	c #9DC359",
"Q.	c #9FC25A",
"R.	c #A2C75F",
"S.	c #A4C963",
"T.	c #A4C865",
"U.	c #435126",
"V.	c #21150F",
"W.	c #301E15",
"X.	c #3B2418",
"Y.	c #44291B",
"Z.	c #4D2F1E",
"`.	c #563421",
" +	c #5F3823",
".+	c #643B24",
"++	c #653B24",
"@+	c #603923",
"#+	c #573421",
"$+	c #4E2F1E",
"%+	c #452A1B",
"&+	c #3C2519",
"*+	c #321F16",
"=+	c #261D12",
"-+	c #38431F",
";+	c #748E45",
">+	c #96B75A",
",+	c #A0C461",
"'+	c #9EC25E",
")+	c #97C056",
"!+	c #A0C35B",
"~+	c #A3C764",
"{+	c #789348",
"]+	c #465428",
"^+	c #2B1B14",
"/+	c #301F17",
"(+	c #4B3627",
"_+	c #6B523A",
":+	c #7F6346",
"<+	c #846649",
"[+	c #806346",
"}+	c #6E553C",
"|+	c #4D3828",
"1+	c #322018",
"2+	c #2B1A14",
"3+	c #282013",
"4+	c #3B4621",
"5+	c #758E45",
"6+	c #A1C562",
"7+	c #98C056",
"8+	c #A0C45B",
"9+	c #9CBE5F",
"0+	c #2A1912",
"a+	c #332218",
"b+	c #6B553C",
"c+	c #A28561",
"d+	c #C2A175",
"e+	c #C8A679",
"f+	c #C7A679",
"g+	c #C7A579",
"h+	c #C3A175",
"i+	c #A78A63",
"j+	c #6F593F",
"k+	c #39261B",
"l+	c #281711",
"m+	c #272012",
"n+	c #97B95C",
"o+	c #A4C863",
"p+	c #799449",
"q+	c #455428",
"r+	c #20150F",
"s+	c #402915",
"t+	c #684521",
"u+	c #9C7448",
"v+	c #CDA16E",
"w+	c #E9BC83",
"x+	c #EEC087",
"y+	c #EDC087",
"z+	c #EDC086",
"A+	c #EABC83",
"B+	c #D1A571",
"C+	c #A0784B",
"D+	c #6D4924",
"E+	c #432A14",
"F+	c #262012",
"G+	c #3A4621",
"H+	c #97B85B",
"I+	c #A2C562",
"J+	c #A2C561",
"K+	c #9ABD5D",
"L+	c #435227",
"M+	c #281910",
"N+	c #614023",
"O+	c #9F6D3B",
"P+	c #CB9053",
"Q+	c #E6AA68",
"R+	c #F4B874",
"S+	c #F7BB77",
"T+	c #F7BC77",
"U+	c #E8AC6A",
"V+	c #CE9455",
"W+	c #A3713E",
"X+	c #694626",
"Y+	c #2E2214",
"Z+	c #394520",
"`+	c #768F46",
" @	c #98B95C",
".@	c #A3C662",
"+@	c #9CC15A",
"@@	c #779146",
"#@	c #495226",
"$@	c #482818",
"%@	c #835B41",
"&@	c #C2916C",
"*@	c #E0A979",
"=@	c #E3A76D",
"-@	c #E3A35D",
";@	c #EEAD65",
">@	c #F5B56D",
",@	c #F6B56D",
"'@	c #E4A45E",
")@	c #E3A56A",
"!@	c #E2AB7B",
"~@	c #C5946E",
"{@	c #8B6248",
"]@	c #4F301C",
"^@	c #424720",
"/@	c #A3C663",
"(@	c #A4C763",
"_@	c #7B9549",
":@	c #595B29",
"<@	c #6A3C23",
"[@	c #9E725F",
"}@	c #CCAC9C",
"|@	c #D7BBA9",
"1@	c #C3A188",
"2@	c #BA8D5D",
"3@	c #DCAA70",
"4@	c #F3C083",
"5@	c #F5C285",
"6@	c #DFAC72",
"7@	c #BE9160",
"8@	c #BF9D82",
"9@	c #D8BCAA",
"0@	c #CEAF9E",
"a@	c #A37968",
"b@	c #6F3F25",
"c@	c #4E4920",
"d@	c #A4C764",
"e@	c #88A552",
"f@	c #737E3C",
"g@	c #795F33",
"h@	c #A07C6D",
"i@	c #C9B8B4",
"j@	c #CBC4C2",
"k@	c #A39D99",
"l@	c #947D62",
"m@	c #CEAB7B",
"n@	c #F2CA93",
"o@	c #F4CC95",
"p@	c #D2AE7D",
"q@	c #9C8366",
"r@	c #9D9791",
"s@	c #CBC5C3",
"t@	c #CBBBB6",
"u@	c #A38277",
"v@	c #703F26",
"w@	c #4F4A1F",
"x@	c #779047",
"y@	c #99B95C",
"z@	c #A5C864",
"A@	c #97B85C",
"B@	c #87A04F",
"C@	c #787D41",
"D@	c #8A7C6D",
"E@	c #BDB6B5",
"F@	c #C5C3C3",
"G@	c #9F9C9A",
"H@	c #917C63",
"I@	c #CEAB7C",
"J@	c #F2CA94",
"K@	c #F4CD96",
"L@	c #D1AF7E",
"M@	c #988367",
"N@	c #999592",
"O@	c #C6C4C4",
"P@	c #BFB8B7",
"Q@	c #8C7B76",
"R@	c #563525",
"S@	c #4C481E",
"T@	c #788E45",
"U@	c #99B85C",
"V@	c #A5C764",
"W@	c #9ABF57",
"X@	c #98B85B",
"Y@	c #83A150",
"Z@	c #658048",
"`@	c #6C7768",
" #	c #AAA39E",
".#	c #C1B1AA",
"+#	c #B59989",
"@#	c #B68A5F",
"##	c #DBAB72",
"$#	c #F4C285",
"%#	c #F5C487",
"&#	c #DEAE74",
"*#	c #BA8F62",
"=#	c #B39583",
"-#	c #C3B2AB",
";#	c #ADA29F",
">#	c #756E69",
",#	c #5C412C",
"'#	c #775529",
")#	c #868340",
"!#	c #8EA451",
"~#	c #9ABA5D",
"{#	c #A2C462",
"]#	c #A0C45C",
"^#	c #9ABC5D",
"/#	c #84A251",
"(#	c #638147",
"_#	c #416D4C",
":#	c #527160",
"<#	c #918376",
"[#	c #B68F7A",
"}#	c #C99168",
"|#	c #D79756",
"1#	c #E7A660",
"2#	c #F0B06A",
"3#	c #F1B16B",
"4#	c #E8A861",
"5#	c #D99958",
"6#	c #CB9265",
"7#	c #BA8F79",
"8#	c #947B70",
"9#	c #6B5F52",
"0#	c #7E5838",
"a#	c #A36635",
"b#	c #946C35",
"c#	c #7D803D",
"d#	c #86A350",
"e#	c #9EC05F",
"f#	c #85A452",
"g#	c #658449",
"h#	c #3E6949",
"i#	c #186755",
"j#	c #37705D",
"k#	c #6F6A55",
"l#	c #9B6D4A",
"m#	c #BE7E47",
"n#	c #D28D49",
"o#	c #D7914A",
"p#	c #D8924C",
"q#	c #D38D49",
"r#	c #C18047",
"s#	c #9F6B46",
"t#	c #715642",
"u#	c #5E503D",
"v#	c #885B3B",
"w#	c #AE6838",
"x#	c #95572C",
"y#	c #6F632F",
"z#	c #789246",
"A#	c #9BBC5D",
"B#	c #9CC05E",
"C#	c #87A551",
"D#	c #637C40",
"E#	c #4E6B48",
"F#	c #466F56",
"G#	c #46775F",
"H#	c #46755E",
"I#	c #4F654F",
"J#	c #6C5A3F",
"K#	c #8E6039",
"L#	c #A36939",
"M#	c #A66A38",
"N#	c #A66937",
"O#	c #A56937",
"P#	c #91623A",
"Q#	c #6D553A",
"R#	c #424737",
"S#	c #464232",
"T#	c #794D32",
"U#	c #9C5A33",
"V#	c #874E28",
"W#	c #6A632F",
"X#	c #7A9447",
"Y#	c #99BD5D",
"Z#	c #7F9B4C",
"`#	c #586233",
" $	c #776B45",
".$	c #978458",
"+$	c #A28E5F",
"@$	c #96855A",
"#$	c #6F6A4A",
"$$	c #4C4E3A",
"%$	c #554735",
"&$	c #694C36",
"*$	c #6D4E36",
"=$	c #6A4E37",
"-$	c #5A4F3B",
";$	c #384D3F",
">$	c #0E4238",
",$	c #2D352A",
"'$	c #5B3723",
")$	c #7A4A28",
"!$	c #7A6633",
"~$	c #7B8943",
"{$	c #8BA953",
"]$	c #9ABD5C",
"^$	c #7E994B",
"/$	c #65612F",
"($	c #A37741",
"_$	c #CF9652",
":$	c #DE9F58",
"<$	c #CB9151",
"[$	c #956D3D",
"}$	c #4D452F",
"|$	c #243D33",
"1$	c #384A3D",
"2$	c #3B4C3F",
"3$	c #3A4C3E",
"4$	c #3B4C3E",
"5$	c #2E4D3F",
"6$	c #154A3F",
"7$	c #003D34",
"8$	c #1D2D22",
"9$	c #41391D",
"0$	c #605A2C",
"a$	c #7C8A44",
"b$	c #90AB55",
"c$	c #9BBD5D",
"d$	c #9FC35D",
"e$	c #99BB5B",
"f$	c #7F9A4B",
"g$	c #6E6430",
"h$	c #B57D3D",
"i$	c #E49B4D",
"j$	c #F0A151",
"k$	c #DA8F47",
"l$	c #9F6732",
"m$	c #513D26",
"n$	c #003C33",
"o$	c #0C4D41",
"p$	c #0D4F43",
"q$	c #0C4F43",
"r$	c #084B40",
"s$	c #02443A",
"t$	c #01352D",
"u$	c #223520",
"v$	c #495929",
"w$	c #6E8540",
"x$	c #8BA852",
"y$	c #9EBE5E",
"z$	c #83A04E",
"A$	c #747237",
"B$	c #B17F3E",
"C$	c #DA9348",
"D$	c #E19248",
"E$	c #C77B3D",
"F$	c #905629",
"G$	c #483522",
"H$	c #003931",
"I$	c #00493E",
"J$	c #004C40",
"K$	c #004D41",
"L$	c #004B40",
"M$	c #00463B",
"N$	c #003A31",
"O$	c #022923",
"P$	c #324222",
"Q$	c #647B3B",
"R$	c #8DAB54",
"S$	c #9DBF5F",
"T$	c #A2C461",
"U$	c #9FC25E",
"V$	c #92B256",
"W$	c #859749",
"X$	c #9B8641",
"Y$	c #AD7B3B",
"Z$	c #AD6E36",
"`$	c #985A2B",
" %	c #6D3D1D",
".%	c #352619",
"+%	c #002B25",
"@%	c #02372F",
"#%	c #023A30",
"$%	c #013C32",
"%%	c #003F35",
"&%	c #004238",
"*%	c #004137",
"=%	c #00322A",
"-%	c #01241E",
";%	c #364724",
">%	c #6D8741",
",%	c #95B65A",
"'%	c #96B658",
")%	c #8A9849",
"!%	c #7F783A",
"~%	c #75632F",
"{%	c #6B5F2C",
"]%	c #595729",
"^%	c #475428",
"/%	c #41552B",
"(%	c #40562D",
"_%	c #40552D",
":%	c #374F2C",
"<%	c #223F2B",
"[%	c #0F352B",
"}%	c #0F342A",
"|%	c #133329",
"1%	c #122E25",
"2%	c #0E231C",
"3%	c #374723",
"4%	c #6D8641",
"5%	c #94B558",
"6%	c #9DC15D",
"7%	c #8FB056",
"8%	c #7E9A4A",
"9%	c #768F44",
"0%	c #769045",
"a%	c #759045",
"b%	c #758F45",
"c%	c #657D3D",
"d%	c #43572C",
"e%	c #212F1E",
"f%	c #252B1D",
"g%	c #2C2F1F",
"h%	c #2B2E1D",
"i%	c #222417",
"j%	c #394722",
"k%	c #6E8741",
"l%	c #9CC05B",
"m%	c #99BC5A",
"n%	c #98BC5A",
"o%	c #97BA59",
"p%	c #97BB59",
"q%	c #97B95A",
"r%	c #98BA5B",
"s%	c #96B85A",
"t%	c #84A34D",
"u%	c #586E33",
"v%	c #303217",
"w%	c #382C14",
"x%	c #413416",
"y%	c #403216",
"z%	c #332811",
"A%	c #3D471F",
"B%	c #6D8640",
"C%	c #94B559",
"D%	c #9EC25F",
"E%	c #9BBF5C",
"F%	c #89A950",
"G%	c #5E7435",
"H%	c #383615",
"I%	c #453512",
"J%	c #513D15",
"K%	c #503C15",
"L%	c #403010",
"M%	c #40471F",
"N%	c #6C853F",
"O%	c #9EC35E",
"P%	c #9DC25D",
"Q%	c #9BBE5C",
"R%	c #8EAF53",
"S%	c #6F893F",
"T%	c #5B692F",
"U%	c #64692E",
"V%	c #6C6E30",
"W%	c #6A6D2F",
"X%	c #60662D",
"Y%	c #607134",
"Z%	c #799447",
"`%	c #95B857",
" &	c #87A74D",
".&	c #809C47",
"+&	c #839C47",
"@&	c #879D48",
"#&	c #869D48",
"$&	c #829A47",
"%&	c #829E49",
"&&	c #8AAB4F",
"*&	c #99BD59",
"=&	c #9BBF59",
"-&	c #99BD58",
";&	c #97BA56",
">&	c #98BB57",
",&	c #9ABD59",
"'&	c #9ABD58",
")&	c #9ABE59",
"!&	c #98BD57",
"~&	c #9DC258",
"{&	c #9CC157",
"]&	c #9BC059",
"^&	c #9ABE55",
"/&	c #99BD55",
"(&	c #95BC52",
"_&	c #95BB51",
":&	c #96BC52",
"<&	c #98BE55",
"[&	c #99BF55",
"}&	c #97BD54",
"|&	c #96BD53",
"1&	c #93BA50",
"2&	c #96BC53",
"3&	c #94BB51",
"4&	c #94B950",
"5&	c #93B950",
"6&	c #95BB52",
"  . + @ # $ $ $ # # % $ # % % $ $ @ & * * * * = * & & * * * * & * = = - * & @ @ # # # @ @ & * * ; > ",
"* , , # $ $ % ' % ' ' ' % % $ $ $ # # @ @ @ # @ & & @ @ # @ @ @ & * * * * @ # $ # # @ # @ # & & * ) ",
"! ~ { % % $ % ' ' % ' % % % $ $ % $ % $ $ # # # # # # @ # # ] # @ & & # # @ # $ @ & # $ # # # & & = ",
"@ $ % ' ' ^ ^ ^ ^ ' ' ' % / % % ' ' $ % % $ $ $ # @ # @ @ # $ # # # $ # # $ $ # @ # $ $ $ $ # # & & ",
"# % ' ' ^ ' ' ' ' ' ^ ' ' % % % % % # # % $ % $ # @ # @ @ $ # # # @ # @ @ # $ # $ % # # $ # # # # ( ",
"$ % ' ^ ^ % $ ' ' ^ ' / % % % % % / _ % $ $ ] $ ] # $ $ % # @ # # $ $ # % $ # $ ' % $ # $ : # # # $ ",
"# % ' ^ ' ' ' ' ' ' ^ ' % ' % % % < [ } } } | } } < $ $ $ % % $ $ $ $ $ % $ $ $ $ $ % $ $ $ # $ # $ ",
"@ % ^ ' % ^ ' % % % ' ' ' ' ^ ' ^ } } [ } | } } } _ # $ # $ # % ' % $ # $ $ $ # $ % $ # # $ $ $ # $ ",
"& % ^ ' ' ' ^ % ' ' 1 ^ ^ 1 < ' 2 3 4 3 4 3 3 4 5 6 _ _ ] _ _ $ % % $ $ # $ @ # # $ $ % $ $ $ $ $ $ ",
"# % ' ^ < ' ^ ^ ' ^ ^ 7 [ [ 8 8 9 0 a 0 0 b 0 0 b c [ [ [ } 3 / % % # $ $ % $ # % $ # $ $ $ $ @ $ # ",
"@ $ % ' ' ^ % ' 1 1 1 2 8 8 8 d d b e f f g f h g g i i j k | ' % % % $ $ % $ $ # # # $ # # $ $ # # ",
"@ $ % ' ' ' ' ' 1 7 2 l m n o o o e p q r r s t t t u v w x y 3 [ < | | ] $ % # $ % % # $ $ $ # @ & ",
"& $ ' ' ' ' ' ' 7 8 8 z A A B b e C D E F G H I J K G L M N O P [ [ [ } } $ % ' $ $ $ $ _ $ # # @ @ ",
"* @ # % ' % ^ 1 7 8 8 Q B R R S T U V W X Y Z `  ...+.@.#.$.%.&.*.[ 9 } } % % % ' ] @ @ # @ @ & & & ",
"* $ ' ' ' ' 1 ^ 7 8 8 =.B -.;.C >.,.'.).!.~.{.].^./.(._.:.<.[.}.|.1.2.a 4 [ < } % % $ # # @ # @ * & ",
"* $ % ' ' ' 1 ^ 7 d d 3.B e 4.5.6.7.8.9.0.a.b.c.d.e.f.g.h.i.j.k.l.m.n.0 a [ [ } $ % $ # @ @ @ & # - ",
"* $ ' ^ % ' ^ 1 2 o.p.=.B q.r.s.t.u.v.w.x.y.z.A.B.C.D.E.F.G.H.I.J.K.L.M.a [ [ } $ $ $ # N.# @ # @ - ",
"O.P.Q.' ' ^ ' ^ R.d p.S.T.n.5.U.V.W.X.Y.Z.`. +.+++@+#+$+%+&+*+=+-+;+>+,+A 0 a '+< } [ % # & @ @ & * ",
")+P.!+^ ' ^ ' ^ 2 8 o.=.~+n.{+]+V.^+/+(+_+:+<+<+<+<+[+}+|+1+2+3+4+5+>+6+A b b b [ [ < % $ # @ # @ * ",
"7+# 8+^ ^ ^ ' ^ 1 d d Q ~+9+U ]+V.0+a+b+c+d+e+f+g+e+h+i+j+k+l+m+4+5+n+6+b 0 0 b [ [ } $ $ # @ @ @ * ",
"= @ % % % $ ' 1 7 9 d o+T.n.p+q+r+s+t+u+v+w+x+y+z+x+A+B+C+D+E+F+G+5+H+I+J+A A 0 [ [ _ # # $ # @ @ @ ",
"* @ $ $ % % < ^ 7 8 o.Q ~+K+5.L+M+N+O+P+Q+R+S+T+T+S+R+U+V+W+X+Y+Z+`+ @I+.@.@R b [ } +@# $ # # # & & ",
"& $ ' % % ' ^ 1 2 d p.o+~+K+@@#@$@%@&@*@=@-@;@>@,@;@'@)@!@~@{@]@^@5+H+/@(@A b A 8 9 } $ # $ # # # @ ",
"@ ' % % ' ' ' ^ R.d o.o A 9+_@:@<@[@}@|@1@2@3@4@5@6@7@8@9@0@a@b@c@5+H+d@(@B b b d 8 [ % $ # # # @ * ",
"# $ ' ' ' ' ^ ^ 7 d d z A h e@f@g@h@i@j@k@l@m@n@o@p@q@r@s@t@u@v@w@x@y@/@z@B b A d 8 / $ # $ $ @ # * ",
"% % ' ' ' ^ ^ ^ 2 d o.o+A ,+A@B@C@D@E@F@G@H@I@J@K@L@M@N@O@P@Q@R@S@T@U@V@(@A B A o.d | _ ] $ $ # @ W@",
"' ' % 1 ^ ^ ^ 1 7 8 o.3.B 6+X@Y@Z@`@ #.#+#@###$#%#&#*#=#-#;#>#,#'#)#!#~#{#A A B o.9 [ } } | # @ & - ",
"% % ' ^ ' ]#7 1 2 d o.n 6+^#/#(#_#:#<#[#}#|#1#2#3#4#5#6#7#8#9#0#a#b#c#d#e#B A A 8 [ } } } +@# @ * * ",
"% ' ' ^ ' ' ^ _ 7 8 d 0 H+f#g#h#i#j#k#l#m#n#o#p#p#o#q#r#s#t#u#v#w#x#y#z#A#A A b [ } } / _ ] # # & - ",
"' < ^ ' ' ' ' < 2 9 9 B#C#D#E#F#G#H#I#J#K#L#M#N#O#M#L#P#Q#R#S#T#U#V#W#X#A#R A b 9 [ [ $ $ $ # # & * ",
"$ ' ' ' ' < ]#' 7 9 [ Y#Z#`# $.$+$@$#$$$%$&$*$*$*$*$=$-$;$>$,$'$)$!$~${$e#A A b 9 } } # @ # # @ & & ",
"@ % % $ % % ' ' 7 9 8 ]$^$/$($_$:$<$[$}$|$1$2$2$3$4$;$5$6$7$8$9$0$a$b$c$0 o l d$} } } $ @ # # @ @ & ",
"@ # % % % % ' ^ 7 9 d e$f$g$h$i$j$k$l$m$n$o$p$p$p$p$q$r$s$t$u$v$w$x$y$J+m 9 9 [ } | | $ # @ @ @ # @ ",
"& # $ % ' % ' ^ < 8 d c$z$A$B$C$D$E$F$G$H$I$J$J$J$K$L$M$N$O$P$Q$R$S$T$J+m 3 [ 9 | +@+@# @ # @ # & @ ",
"* # % ' % ' ^ 1 2 d d U$V$W$X$Y$Z$`$ %.%+%@%#%$%%%&%*%n$=%-%;%>%,%b J+b c 9 [ } ] ] ] @ @ @ @ @ # $ ",
"- @ % ' ]#' ' ^ 2 d d 9 '+'%)%!%~%{%]%^%/%(%_%:%<%[%}%|%1%2%3%4%5%,+b 0 0 l } | $ # @ @ # & * # # # ",
"@ $ % ' ' % % ^ 2 9 9 9 9 6%7%8%9%%.0%a%a%a%b%c%d%e%f%g%h%i%j%k%,%b 0 0 0 [ } +@$ # # & & & * # # & ",
"@ $ % ' ' ^ ^ ^ 1 ^ < ^ 7 < l%m%n%o%n%p%q%r%s%t%u%v%w%x%y%z%A%B%C%a l 3 | $ # @ # # @ * & @ * * @ # ",
"@ % ' ' ^ ' ' % ' ^ ' ^ ^ ^ 9 [ 3 3 5 3 D%'+E%F%G%H%I%J%K%L%M%N%C%'+5 } } $ # @ @ & & * & # @ @ @ * ",
"@ $ ' ^ ' ^ ' % ^ ^ ' $ % % / } [ } } } O%P%Q%R%S%T%U%V%W%X%Y%Z%s%6%5 } | ] # # @ & @ & & & @ @ # & ",
"$ % % % ^ ' ' % ' ' ' % % ' % % % 2.2.6 $ # $ `% &.&+&@&#&$&%&&&*&} _ ] @ @ @ # & * & & @ & @ @ & * ",
"% ^ % ' % % ' ' ' % % % $ $ $ % % / _ ] # # # =&-&;&>&,&'&,&)&!&+@| ] # # @ @ @ & & & * & @ & & * & ",
"@ $ ' ^ % ' ' ' ' ' % % ' % $ $ % ~&@ {&@ & & ]&]&]&+@]&]&+@+@| | ] @ # @ @ @ & # # # @ & @ @ # @ - ",
"@ $ ' ' ' ' $ $ $ $ $ % % % $ $ $ $ # $ # @ & & @ @ @ @ @ @ $ $ $ N.$ # @ & & & @ # @ # & # @ @ & * ",
"@ $ % ' ' % % ' ' % ' ' % $ % $ $ @ @ @ # # # & & @ @ @ @ $ # # # @ & @ & & @ # @ & @ @ & & @ & & * ",
"* # % $ % % % ' % ' ' % $ % $ $ @ @ # & @ & & @ * * & & & @ # @ @ & * @ @ @ @ @ @ & @ * & @ @ * ^&- ",
") & $ % % ^ ' ^ ^ % ' ' % % $ # # # # @ @ & & & - - * * & @ N.& * & & & @ # # @ # @ @ & & # @ * * /&",
") * # % % ' ^ ^ % ' ' % ' $ # # # # & & & & & & * & * * * * * * & & * @ # # @ @ & @ @ @ @ @ & * * (&",
"_&:&- @ % % % % $ $ % $ $ @ * <&[&* * @ & @ @ & & & * = ) ; = }&}&}&- & * - - & & & @ & & - = = |&  ",
"1&|&2&- W@& # $ $ % @ & * * }&3&(&= * & @ @ & & & * = ; 4&4&4&5&3&1&4&; ; = = = = - - * = = ) = 6&3&"};
