/* XPM */
static char * cima_xpm[] = {
"50 50 514 2",
"  	c #94BC52",
". 	c #97BF55",
"+ 	c #99C157",
"@ 	c #9BC057",
"# 	c #9CC158",
"$ 	c #9DC259",
"% 	c #9EC35A",
"& 	c #9ABF56",
"* 	c #99BE55",
"= 	c #97BC53",
"- 	c #98BD54",
"; 	c #95BA51",
"> 	c #93B84F",
", 	c #9BC158",
"' 	c #9FC45B",
") 	c #96BB52",
"! 	c #9BBF56",
"~ 	c #9CBF57",
"{ 	c #9DC158",
"] 	c #9CC159",
"^ 	c #A0C55C",
"/ 	c #9EC35B",
"( 	c #99BE56",
"_ 	c #9DC25A",
": 	c #9DC159",
"< 	c #9FC45C",
"[ 	c #9FC45D",
"} 	c #9EC35C",
"| 	c #9DC25B",
"1 	c #A1C65D",
"2 	c #A1C65E",
"3 	c #9FC45E",
"4 	c #9FC35E",
"5 	c #9EC35D",
"6 	c #9DC25C",
"7 	c #A0C55D",
"8 	c #A1C65F",
"9 	c #A0C55E",
"0 	c #A0C460",
"a 	c #9FC35F",
"b 	c #A1C561",
"c 	c #A0C560",
"d 	c #A2C760",
"e 	c #A2C661",
"f 	c #A2C662",
"g 	c #A0C55F",
"h 	c #A1C661",
"i 	c #A2C762",
"j 	c #A3C763",
"k 	c #A0C461",
"l 	c #9DC05F",
"m 	c #99BB5C",
"n 	c #97B95B",
"o 	c #99BB5D",
"p 	c #98BA5C",
"q 	c #97BA5B",
"r 	c #97BA59",
"s 	c #97B95A",
"t 	c #99BC5C",
"u 	c #9BBF5C",
"v 	c #A1C560",
"w 	c #9EC25F",
"x 	c #87A651",
"y 	c #6C8540",
"z 	c #667D3C",
"A 	c #677F3D",
"B 	c #667E3C",
"C 	c #667E3B",
"D 	c #647C3B",
"E 	c #6E8741",
"F 	c #8CAB54",
"G 	c #A3C762",
"H 	c #A4C864",
"I 	c #8FAF56",
"J 	c #6B813E",
"K 	c #38371A",
"L 	c #311D0F",
"M 	c #3D2914",
"N 	c #422B15",
"O 	c #452B16",
"P 	c #412A15",
"Q 	c #3B2814",
"R 	c #2E190E",
"S 	c #3E421F",
"T 	c #728A43",
"U 	c #91B356",
"V 	c #9DC15D",
"W 	c #A3C862",
"X 	c #A2C562",
"Y 	c #8CAA54",
"Z 	c #63793A",
"` 	c #4C4D26",
" .	c #492A19",
"..	c #5A321E",
"+.	c #683921",
"@.	c #733F23",
"#.	c #784124",
"$.	c #774124",
"%.	c #713E23",
"&.	c #663821",
"*.	c #57311D",
"=.	c #48301C",
"-.	c #4E5429",
";.	c #69803D",
">.	c #8FAF55",
",.	c #A2C761",
"'.	c #A4C763",
").	c #9EC060",
"!.	c #90AF57",
"~.	c #6C8340",
"{.	c #35381C",
"].	c #3D2416",
"^.	c #54311E",
"/.	c #643923",
"(.	c #724026",
"_.	c #804729",
":.	c #874B2A",
"<.	c #864A2A",
"[.	c #7E4628",
"}.	c #6F3F25",
"|.	c #613822",
"1.	c #512F1D",
"2.	c #382115",
"3.	c #3E4721",
"4.	c #728C44",
"5.	c #8FB056",
"6.	c #9CBF5E",
"7.	c #A3C861",
"8.	c #A4C962",
"9.	c #A4C764",
"0.	c #8FAD56",
"a.	c #607639",
"b.	c #3A4320",
"c.	c #312516",
"d.	c #42271A",
"e.	c #51301E",
"f.	c #57331F",
"g.	c #7A4528",
"h.	c #7A4428",
"i.	c #703F25",
"j.	c #5F3721",
"k.	c #56321F",
"l.	c #4F2F1D",
"m.	c #3E2519",
"n.	c #312A17",
"o.	c #3F4B23",
"p.	c #92B258",
"q.	c #9BC058",
"r.	c #98BF55",
"s.	c #9DC359",
"t.	c #9FC25A",
"u.	c #A2C75F",
"v.	c #A4C963",
"w.	c #A5C965",
"x.	c #87A551",
"y.	c #414F25",
"z.	c #1D120D",
"A.	c #2F1E15",
"B.	c #3D2519",
"C.	c #472A1B",
"D.	c #4D2E1D",
"E.	c #633922",
"F.	c #693C24",
"G.	c #54311F",
"H.	c #4C2D1D",
"I.	c #462A1B",
"J.	c #3B2419",
"K.	c #2D1C14",
"L.	c #1A100C",
"M.	c #4F612E",
"N.	c #8DAC55",
"O.	c #9EC25E",
"P.	c #97C056",
"Q.	c #A0C35B",
"R.	c #89A652",
"S.	c #435226",
"T.	c #1E120D",
"U.	c #2D1D15",
"V.	c #322017",
"W.	c #392318",
"X.	c #50301E",
"Y.	c #55321F",
"Z.	c #4F2F1E",
"`.	c #45291B",
" +	c #372218",
".+	c #311F17",
"++	c #2B1C14",
"@+	c #51642F",
"#+	c #8DAD55",
"$+	c #98C056",
"%+	c #A0C45B",
"&+	c #A5C864",
"*+	c #455427",
"=+	c #1E130D",
"-+	c #2F1E16",
";+	c #311F16",
">+	c #3C2519",
",+	c #43281A",
"'+	c #42281A",
")+	c #3B2418",
"!+	c #301F16",
"~+	c #2B1B14",
"{+	c #1B100C",
"]+	c #8FAF57",
"^+	c #A4C863",
"/+	c #89A753",
"(+	c #445427",
"_+	c #2C1C14",
":+	c #2A1B14",
"<+	c #1A100B",
"[+	c #8FAE56",
"}+	c #A3C662",
"|+	c #A2C561",
"1+	c #88A551",
"2+	c #445327",
"3+	c #18100B",
"4+	c #261912",
"5+	c #2C1D15",
"6+	c #2E1E16",
"7+	c #241811",
"8+	c #150E0A",
"9+	c #52642F",
"0+	c #9CC15A",
"a+	c #140E0A",
"b+	c #201710",
"c+	c #281B13",
"d+	c #2E1D15",
"e+	c #271A13",
"f+	c #1E150F",
"g+	c #110C08",
"h+	c #415025",
"i+	c #1F160F",
"j+	c #231911",
"k+	c #291B13",
"l+	c #261A12",
"m+	c #231811",
"n+	c #1D150F",
"o+	c #51632E",
"p+	c #A5C865",
"q+	c #92B159",
"r+	c #667C3C",
"s+	c #404D24",
"t+	c #262512",
"u+	c #1E140D",
"v+	c #221810",
"w+	c #241911",
"x+	c #2B1C15",
"y+	c #211710",
"z+	c #1E150E",
"A+	c #020506",
"B+	c #526530",
"C+	c #9FC161",
"D+	c #92B158",
"E+	c #6F8742",
"F+	c #303A1C",
"G+	c #19130D",
"H+	c #241912",
"I+	c #221811",
"J+	c #17110C",
"K+	c #0F0B08",
"L+	c #0E0806",
"M+	c #536430",
"N+	c #91AF57",
"O+	c #A6C965",
"P+	c #9ABF57",
"Q+	c #8DAB55",
"R+	c #698749",
"S+	c #2C543C",
"T+	c #16332A",
"U+	c #1F1710",
"V+	c #200F08",
"W+	c #20110B",
"X+	c #21100A",
"Y+	c #1F150F",
"Z+	c #07231D",
"`+	c #353325",
" @	c #6D4425",
".@	c #856933",
"+@	c #889649",
"@@	c #93B359",
"#@	c #A0C260",
"$@	c #A0C45C",
"%@	c #A3C563",
"&@	c #8BA954",
"*@	c #5C743C",
"=@	c #2F6248",
"-@	c #146A57",
";@	c #155245",
">@	c #1E281F",
",@	c #201C15",
"'@	c #1F2018",
")@	c #201F17",
"!@	c #1E251D",
"~@	c #003830",
"{@	c #534F3B",
"]@	c #A6683C",
"^@	c #B46C36",
"/@	c #7C5F2D",
"(@	c #6D8641",
"_@	c #98B95B",
":@	c #9BBD5E",
"<@	c #88A753",
"[@	c #668448",
"}@	c #2C5D46",
"|@	c #006456",
"1@	c #007362",
"2@	c #006858",
"3@	c #145748",
"4@	c #175345",
"5@	c #175446",
"6@	c #155345",
"7@	c #004B40",
"8@	c #544E3B",
"9@	c #A8663C",
"0@	c #B26534",
"a@	c #6E3C1D",
"b@	c #596D33",
"c@	c #94B459",
"d@	c #91B158",
"e@	c #5E7338",
"f@	c #3B573E",
"g@	c #45725A",
"h@	c #4A7C63",
"i@	c #467C64",
"j@	c #317661",
"k@	c #0E705E",
"l@	c #01705F",
"m@	c #05715F",
"n@	c #057260",
"o@	c #046D5C",
"p@	c #005447",
"q@	c #453D2E",
"r@	c #8D4F2F",
"s@	c #98532E",
"t@	c #654421",
"u@	c #647B3A",
"v@	c #96B65A",
"w@	c #8DAC54",
"x@	c #51622F",
"y@	c #715A37",
"z@	c #AC8B57",
"A@	c #BC985F",
"B@	c #B3925C",
"C@	c #837953",
"D@	c #2A5D4C",
"E@	c #006052",
"F@	c #006757",
"G@	c #006354",
"H@	c #00493E",
"I@	c #2F291F",
"J@	c #62331D",
"K@	c #75552B",
"L@	c #7A8441",
"M@	c #88A651",
"N@	c #9DBF5E",
"O@	c #8EAE56",
"P@	c #556530",
"Q@	c #956632",
"R@	c #E09B4F",
"S@	c #F3A856",
"T@	c #E59D50",
"U@	c #A8733B",
"V@	c #393625",
"W@	c #004038",
"X@	c #005145",
"Y@	c #005246",
"Z@	c #005245",
"`@	c #01352C",
" #	c #192113",
".#	c #393C1B",
"+#	c #657639",
"@#	c #90AD56",
"##	c #A1C461",
"$#	c #9FC35D",
"%#	c #8EAD55",
"&#	c #53632E",
"*#	c #9B6932",
"=#	c #E79E4D",
"-#	c #F6A451",
";#	c #E28F47",
">#	c #A4652F",
",#	c #372919",
"'#	c #003A33",
")#	c #004E42",
"!#	c #004F43",
"~#	c #004E43",
"{#	c #00473C",
"]#	c #003B32",
"^#	c #032620",
"/#	c #33411E",
"(#	c #6C833F",
"_#	c #8BA953",
":#	c #9FC05F",
"<#	c #6A803E",
"[#	c #967539",
"}#	c #D09047",
"|#	c #D78C45",
"1#	c #C17339",
"2#	c #8A4E25",
"3#	c #2E2418",
"4#	c #00362F",
"5#	c #01463B",
"6#	c #01473C",
"7#	c #01483D",
"8#	c #004A3F",
"9#	c #003F36",
"0#	c #002F28",
"a#	c #021D18",
"b#	c #425226",
"c#	c #86A350",
"d#	c #A3C562",
"e#	c #A3C761",
"f#	c #9DC15E",
"g#	c #91B157",
"h#	c #8C9649",
"i#	c #8B6D34",
"j#	c #855528",
"k#	c #774520",
"l#	c #542D14",
"m#	c #1A130D",
"n#	c #001F1B",
"o#	c #032922",
"p#	c #032A23",
"q#	c #022F27",
"r#	c #01372E",
"s#	c #003A31",
"t#	c #003930",
"u#	c #00352D",
"v#	c #002C26",
"w#	c #021C18",
"x#	c #435327",
"y#	c #86A450",
"z#	c #69813E",
"A#	c #576C33",
"B#	c #5A6F35",
"C#	c #596E33",
"D#	c #5A6E33",
"E#	c #5A6F34",
"F#	c #4D612F",
"G#	c #273D25",
"H#	c #102A21",
"I#	c #1C2D22",
"J#	c #1F2F23",
"K#	c #1D2C21",
"L#	c #131D16",
"M#	c #435326",
"N#	c #84A24E",
"O#	c #93B458",
"P#	c #92B357",
"Q#	c #91B256",
"R#	c #93B358",
"S#	c #93B357",
"T#	c #7E9A4B",
"U#	c #45572A",
"V#	c #212013",
"W#	c #352D17",
"X#	c #3A3118",
"Y#	c #362E17",
"Z#	c #251F0F",
"`#	c #85A350",
" $	c #8AAB51",
".$	c #4A5B29",
"+$	c #2E220A",
"@$	c #483612",
"#$	c #4E3B15",
"$$	c #493713",
"%$	c #33260C",
"&$	c #404F24",
"*$	c #84A24F",
"=$	c #8BAB51",
"-$	c #53672F",
";$	c #3F3915",
">$	c #594D1E",
",$	c #605320",
"'$	c #5C4F1E",
")$	c #423A16",
"!$	c #4B5C2A",
"~$	c #86A550",
"{$	c #9EC35E",
"]$	c #9DC25D",
"^$	c #94B656",
"/$	c #7C9A48",
"($	c #768D42",
"_$	c #809244",
":$	c #829344",
"<$	c #819344",
"[$	c #788E43",
"}$	c #7B9648",
"|$	c #9EC25D",
"1$	c #9CC05A",
"2$	c #99BD58",
"3$	c #98BC58",
"4$	c #99BC58",
"5$	c #9ABD58",
"6$	c #99BD59",
"7$	c #9CC15B",
"8$	c #9BC059",
"9$	c #9DC258",
"0$	c #9CC157",
"a$	c #9ABE55",
"b$	c #99BD55",
"c$	c #95BC52",
"d$	c #95BB51",
"e$	c #96BC52",
"f$	c #98BE55",
"g$	c #99BF55",
"h$	c #97BD54",
"i$	c #96BD53",
"j$	c #93BA50",
"k$	c #96BC53",
"l$	c #94BB51",
"m$	c #94B950",
"n$	c #93B950",
"o$	c #95BB52",
"  . + @ # $ $ $ # # % $ # % % $ $ @ & * * * * = * & & * * * * & * = = - * & @ @ # # # @ @ & * * ; > ",
"* , , # $ $ % ' % ' ' ' % % $ $ $ # # @ @ @ # @ & & @ @ # @ @ @ & * * * * @ # $ # # @ # @ # & & * ) ",
"! ~ { % % $ % ' ' % ' % % % $ $ % $ % $ $ # # # # # # @ # # ] # @ & & # # @ # $ @ & # $ # # # & & = ",
"@ $ % ' ' ^ ^ ^ ^ ' ' ' % / % % ' ' $ % % $ $ $ # @ # @ @ # $ # # # $ # # $ $ # @ # $ $ $ $ # # & & ",
"# % ' ' ^ ' ' ' ' ' ^ ' ' % % % % % # # % $ % $ # @ # @ @ $ # # # @ # @ @ # $ # $ % # # $ # # # # ( ",
"$ % ' ^ ^ % $ ' ' ^ ' / % % % % % / _ % $ $ ] $ ] # $ $ % # @ # # $ $ # % $ # $ ' % $ # $ : # # # $ ",
"# % ' ^ ' ' ' ' ' ' ^ ' % ' % % % < [ } } } | } } < $ $ $ % % $ $ $ $ $ % $ $ $ $ $ % $ $ $ # $ # $ ",
"@ % ^ ' % ^ ' % % % ' ' ' ' ^ ' ^ } } [ } | } } } _ # $ # $ # % ' % $ # $ $ $ # $ % $ # # $ $ $ # $ ",
"& % ^ ' ' ' ^ % ' ' 1 ^ ^ 1 < ' 2 3 4 3 4 3 3 4 5 6 _ _ ] _ _ $ % % $ $ # $ @ # # $ $ % $ $ $ $ $ $ ",
"# % ' ^ < ' ^ ^ ' ^ ^ 7 [ [ 8 8 9 0 a 0 0 b 0 0 b c [ [ [ } 3 / % % # $ $ % $ # % $ # $ $ $ $ @ $ # ",
"@ $ % ' ' ^ % ' 1 1 1 2 8 8 8 d d e f 0 0 b 0 f b b 9 9 [ [ } ' % % % $ $ % $ $ # # # $ # # $ $ # # ",
"@ $ % ' ' ' ' ' 1 7 2 g h i e e e j k l m n o p p p q r s t u 9 [ < | | ] $ % # $ % % # $ $ $ # @ & ",
"& $ ' ' ' ' ' ' 7 8 8 v f f j f j j w x y z A A B B B C D E F g 9 [ [ } } $ % ' $ $ $ $ _ $ # # @ @ ",
"* @ # % ' % ^ 1 7 8 8 G j H H j j l I J K L M N O O P Q R S T U V [ 9 } } % % % ' ] @ @ # @ @ & & & ",
"* $ ' ' ' ' 1 ^ 7 8 8 W j j j j X Y Z `  ...+.@.#.$.%.&.*.=.-.;.>.v 4 a 4 [ < } % % $ # # @ # @ * & ",
"* $ % ' ' ' 1 ^ 7 d d ,.j j '.).!.~.{.].^./.(._.:.<.[.}.|.1.2.3.4.5.6.0 a [ [ } $ % $ # @ @ @ & # - ",
"* $ ' ^ % ' ^ 1 2 7.8.W j j 9.0.a.b.c.d.e.f.|.(.g.h.i.j.k.l.m.n.o.B p.0 a [ [ } $ $ $ # q.# @ # @ - ",
"r.s.t.' ' ^ ' ^ u.d 8.v.w.H H x.y.z.A.B.C.D.k.E.F.F.|.G.H.I.J.K.L.M.N.b f 0 a O.< } [ % # & @ @ & * ",
"P.s.Q.^ ' ^ ' ^ 2 8 7.W H H H R.S.T.U.V.W.C.X.G.Y.Y.G.Z.`. +.+++L.@+#+f f b b b [ [ < % $ # @ # @ * ",
"$+# %+^ ^ ^ ' ^ 1 d d G H w.&+R.*+=+U.-+;+>+,+,+'+'+,+'+)+!+-+~+{+@+]+f b 0 0 b [ [ } $ $ # @ @ @ * ",
"= @ % % % $ ' 1 7 9 d ^+w.H w./+(+z._+-+-+;+V.V.V.V.V.V.;+-+-+:+<+@+[+}+|+f f 0 [ [ _ # # $ # @ @ @ ",
"* @ $ $ % % < ^ 7 8 7.G H j '.1+2+3+4+5+-+-+6+6+6+6+6+6+-+6+++7+8+9+!.}+}+}+H b [ } 0+# $ # # # & & ",
"& $ ' % % ' ^ 1 2 d 8.^+H j }+1+S.a+b+c+U.6+-+d+d+-+-+-+6+5+e+f+g+@+[+'.'.f b f 8 9 } $ # $ # # # @ ",
"@ ' % % ' ' ' ^ u.d 7.e f H &+x.h+a+i+j+e+5+U.k+c+U.-+-+++l+m+n+g+o+[+&+'.j b b d 8 [ % $ # # # @ * ",
"# $ ' ' ' ' ^ ^ 7 d d v f j p+q+r+s+t+u+v+c+:+w+w+:+5+x+e+y+z+3+A+B+!.'.&+j b f d 8 / $ # $ $ @ # * ",
"% % ' ' ' ^ ^ ^ 2 d 7.^+f j H C+D+E+F+G+b+m+m+y+y+m+H+H+I+i+J+K+L+M+N+O+'.f j f 7.d | _ ] $ $ # @ P+",
"' ' % 1 ^ ^ ^ 1 7 8 7.,.j j '.).Q+R+S+T+U+V+W+W+W+W+W+W+X+Y+Z+`+ @.@+@@@#@f f j 7.9 [ } } | # @ & - ",
"% % ' ^ ' $@7 1 2 d 7.W j j %@&@*@=@-@;@>@,@'@'@'@'@'@'@)@!@~@{@]@^@/@(@_@j f f 8 [ } } } 0+# @ * * ",
"% ' ' ^ ' ' ^ _ 7 8 d G f :@<@[@}@|@1@2@3@4@5@5@5@5@5@5@5@6@7@8@9@0@a@b@c@f f b [ } } / _ ] # # & - ",
"' < ^ ' ' ' ' < 2 9 9 W f d@e@f@g@h@i@j@k@l@m@m@m@m@m@m@n@o@p@q@r@s@t@u@v@H f b 9 [ [ $ $ $ # # & * ",
"$ ' ' ' ' < $@' 7 9 [ i j w@x@y@z@A@B@C@D@E@F@F@F@F@F@F@2@G@H@I@J@K@L@M@N@f f b 9 } } # @ # # @ & & ",
"@ % % $ % % ' ' 7 9 8 W j O@P@Q@R@S@T@U@V@W@X@Y@Z@Z@Z@Z@X@7@`@ #.#+#@###e e g $#} } } $ @ # # @ @ & ",
"@ # % % % % ' ^ 7 9 d e j %#&#*#=#-#;#>#,#'#)#!#!#~#!#)#{#]#^#/#(#_#:#}+h 9 9 [ } | | $ # @ @ @ # @ ",
"& # $ % ' % ' ^ < 8 d G j @@<#[#}#|#1#2#3#4#5#6#7#H@8#H@9#0#a#b#c#X d#|+h 3 [ 9 | 0+0+# @ # @ # & @ ",
"* # % ' % ' ^ 1 2 d d e#7.f#g#h#i#j#k#l#m#n#o#p#q#r#s#t#u#v#w#x#y#f |+b c 9 [ } ] ] ] @ @ @ @ @ # $ ",
"- @ % ' $@' ' ^ 2 d d 8 7.7.e I z#A#B#B#B#C#D#E#F#G#H#I#J#K#L#M#N#0 b 0 0 g } | $ # @ @ # & * # # # ",
"@ $ % ' ' % % ^ 2 9 9 9 9 8 i 6.O#g#P#P#P#Q#R#S#T#U#V#W#X#Y#Z#2+`#b 0 0 0 [ } 0+$ # # & & & * # # & ",
"@ $ % ' ' ^ ^ ^ 1 ^ < ^ 7 ^ 7 9 8 3 8 9 a 0 0 8  $.$+$@$#$$$%$&$*$a g 3 | $ # @ # # @ * & @ * * @ # ",
"@ % ' ' ^ ' ' % ' ^ ' ^ ^ ^ 9 [ 9 9 [ 9 a O.O.[ =$-$;$>$,$'$)$!$~$w 5 } } $ # @ @ & & * & # @ @ @ * ",
"@ $ ' ^ ' ^ ' % ^ ^ ' $ % % / } [ } } } {$]$V [ ^$/$($_$:$<$[$}$P#O.5 } | ] # # @ & @ & & & @ @ # & ",
"$ % % % ^ ' ' % ' ' ' % % ' % % % |$|$6 $ # % } 1$2$3$4$5$4$6$2$7$} _ ] @ @ @ # & * & & @ & @ @ & * ",
"% ^ % ' % % ' ' ' % % % $ $ $ % % / _ ] # # # 0+0+8$0+6 | } } 8$| | ] # # @ @ @ & & & * & @ & & * & ",
"@ $ ' ^ % ' ' ' ' ' % % ' % $ $ % 9$@ 0$@ & & 8$8$8$0+8$8$0+0+| | ] @ # @ @ @ & # # # @ & @ @ # @ - ",
"@ $ ' ' ' ' $ $ $ $ $ % % % $ $ $ $ # $ # @ & & @ @ @ @ @ @ $ $ $ q.$ # @ & & & @ # @ # & # @ @ & * ",
"@ $ % ' ' % % ' ' % ' ' % $ % $ $ @ @ @ # # # & & @ @ @ @ $ # # # @ & @ & & @ # @ & @ @ & & @ & & * ",
"* # % $ % % % ' % ' ' % $ % $ $ @ @ # & @ & & @ * * & & & @ # @ @ & * @ @ @ @ @ @ & @ * & @ @ * a$- ",
") & $ % % ^ ' ^ ^ % ' ' % % $ # # # # @ @ & & & - - * * & @ q.& * & & & @ # # @ # @ @ & & # @ * * b$",
") * # % % ' ^ ^ % ' ' % ' $ # # # # & & & & & & * & * * * * * * & & * @ # # @ @ & @ @ @ @ @ & * * c$",
"d$e$- @ % % % % $ $ % $ $ @ * f$g$* * @ & @ @ & & & * = ) ; = h$h$h$- & * - - & & & @ & & - = = i$  ",
"j$i$k$- P+& # $ $ % @ & * * h$l$c$= * & @ @ & & & * = ; m$m$m$n$l$j$m$; ; = = = = - - * = = ) = o$l$"};
