/* XPM */
static char * direita_xpm[] = {
"50 50 653 2",
"  	c #94BC52",
". 	c #97BF55",
"+ 	c #99C157",
"@ 	c #9BC057",
"# 	c #9CC158",
"$ 	c #9DC259",
"% 	c #9EC35A",
"& 	c #9ABF56",
"* 	c #99BE55",
"= 	c #97BC53",
"- 	c #98BD54",
"; 	c #95BA51",
"> 	c #93B84F",
", 	c #9BC158",
"' 	c #9FC45B",
") 	c #96BB52",
"! 	c #9BBF56",
"~ 	c #9CBF57",
"{ 	c #9DC158",
"] 	c #9CC159",
"^ 	c #A0C55C",
"/ 	c #9EC35B",
"( 	c #99BE56",
"_ 	c #9DC25A",
": 	c #9DC159",
"< 	c #9FC45C",
"[ 	c #9FC45D",
"} 	c #9EC35C",
"| 	c #9DC25B",
"1 	c #A1C65D",
"2 	c #A1C65E",
"3 	c #9FC45E",
"4 	c #9FC35E",
"5 	c #9EC35D",
"6 	c #9DC25C",
"7 	c #A0C55D",
"8 	c #A1C65F",
"9 	c #A0C55E",
"0 	c #A0C460",
"a 	c #9EC25E",
"b 	c #9EC25F",
"c 	c #9FC360",
"d 	c #9EC35F",
"e 	c #9DC15B",
"f 	c #A2C760",
"g 	c #A0C360",
"h 	c #91B157",
"i 	c #819F4D",
"j 	c #7F9C4B",
"k 	c #819E4D",
"l 	c #809D4C",
"m 	c #819E4C",
"n 	c #809E4A",
"o 	c #7F9D4A",
"p 	c #8CAD52",
"q 	c #9BBF5A",
"r 	c #A0C55F",
"s 	c #A1C661",
"t 	c #A2C762",
"u 	c #A2C661",
"v 	c #A1C561",
"w 	c #98BA5C",
"x 	c #738C44",
"y 	c #485728",
"z 	c #404C23",
"A 	c #444F24",
"B 	c #465025",
"C 	c #455025",
"D 	c #3F4B22",
"E 	c #455426",
"F 	c #6F8841",
"G 	c #92B556",
"H 	c #A1C560",
"I 	c #A2C662",
"J 	c #A3C763",
"K 	c #A0C461",
"L 	c #92B358",
"M 	c #7A9448",
"N 	c #576430",
"O 	c #3A2113",
"P 	c #472717",
"Q 	c #522D19",
"R 	c #5B311B",
"S 	c #5F331B",
"T 	c #532D19",
"U 	c #482817",
"V 	c #3B2114",
"W 	c #545E2D",
"X 	c #768F45",
"Y 	c #8EAF54",
"Z 	c #A3C762",
"` 	c #A4C864",
" .	c #99BB5D",
"..	c #769046",
"+.	c #465126",
"@.	c #41321B",
"#.	c #53311E",
"$.	c #633822",
"%.	c #713F25",
"&.	c #7D4527",
"*.	c #844828",
"=.	c #7E4627",
"-.	c #734025",
";.	c #643922",
">.	c #53301E",
",.	c #43311B",
"'.	c #434B23",
").	c #6F8940",
"!.	c #95B757",
"~.	c #9EC25C",
"{.	c #A3C862",
"].	c #A1C462",
"^.	c #91B158",
"/.	c #779247",
"(.	c #536430",
"_.	c #2D2314",
":.	c #422719",
"<.	c #55321F",
"[.	c #603722",
"}.	c #6D3E25",
"|.	c #7B4528",
"1.	c #83492A",
"2.	c #84492A",
"3.	c #7D4628",
"4.	c #6E3E25",
"5.	c #613822",
"6.	c #56321F",
"7.	c #442819",
"8.	c #2B1A11",
"9.	c #4E5D2C",
"0.	c #748E44",
"a.	c #8DAD54",
"b.	c #9CBF5C",
"c.	c #9FC35F",
"d.	c #A2C761",
"e.	c #9FC260",
"f.	c #7D984A",
"g.	c #435226",
"h.	c #262213",
"i.	c #322217",
"j.	c #43281A",
"k.	c #4F2F1D",
"l.	c #52311E",
"m.	c #5B3520",
"n.	c #6C3D24",
"o.	c #744227",
"p.	c #754227",
"q.	c #5D3621",
"r.	c #45291B",
"s.	c #342317",
"t.	c #272213",
"u.	c #3D4A22",
"v.	c #769146",
"w.	c #9BBE5D",
"x.	c #A3C861",
"y.	c #A4C962",
"z.	c #9EC160",
"A.	c #789348",
"B.	c #2D3618",
"C.	c #21150F",
"D.	c #311F16",
"E.	c #3B2419",
"F.	c #4B2D1D",
"G.	c #54321F",
"H.	c #5E3621",
"I.	c #633922",
"J.	c #643923",
"K.	c #5F3721",
"L.	c #492B1C",
"M.	c #3B2219",
"N.	c #301D17",
"O.	c #291B15",
"P.	c #1D140F",
"Q.	c #242B13",
"R.	c #708A42",
"S.	c #9BBE5E",
"T.	c #9BC058",
"U.	c #98BF55",
"V.	c #9DC359",
"W.	c #9FC25A",
"X.	c #A2C75F",
"Y.	c #A4C963",
"Z.	c #A5C965",
"`.	c #9FC261",
" +	c #7A9549",
".+	c #333E1C",
"++	c #2E1D15",
"@+	c #301F16",
"#+	c #372218",
"$+	c #4E2E1D",
"%+	c #502F1E",
"&+	c #4E2F1D",
"*+	c #573720",
"=+	c #634123",
"-+	c #5F3D21",
";+	c #502F1C",
">+	c #391F13",
",+	c #303418",
"'+	c #738D44",
")+	c #97C056",
"!+	c #A0C35B",
"~+	c #2F1E16",
"{+	c #3A2318",
"]+	c #3F2619",
"^+	c #3E2619",
"/+	c #382118",
"(+	c #392218",
"_+	c #7C532B",
":+	c #B2793C",
"<+	c #B3753B",
"[+	c #91542D",
"}+	c #67341E",
"|+	c #3F381A",
"1+	c #98C056",
"2+	c #A0C45B",
"3+	c #A0C362",
"4+	c #2D1D15",
"5+	c #2E1D16",
"6+	c #301E16",
"7+	c #442C1A",
"8+	c #694523",
"9+	c #AA7439",
"0+	c #E0994C",
"a+	c #E0934A",
"b+	c #B96D39",
"c+	c #874626",
"d+	c #4C3D1C",
"e+	c #9DC060",
"f+	c #A4C863",
"g+	c #7A964A",
"h+	c #343E1D",
"i+	c #22150F",
"j+	c #2A1C16",
"k+	c #241915",
"l+	c #211614",
"m+	c #231614",
"n+	c #2A1B15",
"o+	c #261815",
"p+	c #724B24",
"q+	c #B67A38",
"r+	c #DD9647",
"s+	c #F1A551",
"t+	c #EC9B4D",
"u+	c #CF7B3D",
"v+	c #9C562A",
"w+	c #55411E",
"x+	c #9DBF5F",
"y+	c #A3C662",
"z+	c #A2C561",
"A+	c #799448",
"B+	c #323C1B",
"C+	c #1E130F",
"D+	c #3A2317",
"E+	c #5A341E",
"F+	c #6E4223",
"G+	c #784D28",
"H+	c #704B27",
"I+	c #4F341D",
"J+	c #452C19",
"K+	c #6B4725",
"L+	c #A7794F",
"M+	c #DDA574",
"N+	c #EDAE74",
"O+	c #E4A05A",
"P+	c #E19851",
"Q+	c #DB9156",
"R+	c #AE7145",
"S+	c #5D4926",
"T+	c #748D45",
"U+	c #9EC060",
"V+	c #9CC15A",
"W+	c #789247",
"X+	c #303B1B",
"Y+	c #130F0E",
"Z+	c #502F1B",
"`+	c #93552C",
" @	c #BA7139",
".@	c #CB8643",
"+@	c #BE8241",
"@@	c #7F562C",
"#@	c #714A22",
"$@	c #B57B3D",
"%@	c #DBA87E",
"&@	c #E8C9B4",
"*@	c #D6BCAB",
"=@	c #AC8768",
"-@	c #BC8C59",
";@	c #DFAE7A",
">@	c #BD9468",
",@	c #635635",
"'@	c #A4C763",
")@	c #86A351",
"!@	c #5A6E35",
"~@	c #344220",
"{@	c #5B391E",
"]@	c #AC6332",
"^@	c #DA8342",
"/@	c #EA974B",
"(@	c #E0954A",
"_@	c #AF763B",
":@	c #A97235",
"<@	c #DD984A",
"[@	c #F3BE93",
"}@	c #EBDBD1",
"|@	c #C2C3C4",
"1@	c #737270",
"2@	c #9E845D",
"3@	c #E1BD8B",
"4@	c #C4A579",
"5@	c #665C3C",
"6@	c #728C43",
"7@	c #A5C864",
"8@	c #A2C562",
"9@	c #9DBE5F",
"0@	c #8DAA55",
"a@	c #63793B",
"b@	c #5B401F",
"c@	c #AB6331",
"d@	c #D88040",
"e@	c #E28945",
"f@	c #E08E47",
"g@	c #DB9148",
"h@	c #DF9849",
"i@	c #EFA451",
"j@	c #F4BF94",
"k@	c #EBDCD2",
"l@	c #C1C3C5",
"m@	c #707171",
"n@	c #9D835D",
"o@	c #E1BE8B",
"p@	c #C5A679",
"q@	c #665D3D",
"r@	c #9FC161",
"s@	c #758E45",
"t@	c #50401D",
"u@	c #94552A",
"v@	c #BA6D37",
"w@	c #BE6E38",
"x@	c #C87A3D",
"y@	c #E19248",
"z@	c #EF9E4C",
"A@	c #F09F4E",
"B@	c #F0B384",
"C@	c #EDCEB9",
"D@	c #D3BDAF",
"E@	c #A6846A",
"F@	c #B48959",
"G@	c #D7AC7B",
"H@	c #B5926A",
"I@	c #5E5335",
"J@	c #A6C965",
"K@	c #9ABF57",
"L@	c #3B3819",
"M@	c #5B341B",
"N@	c #734323",
"O@	c #744324",
"P@	c #92572D",
"Q@	c #C67A3E",
"R@	c #DF8A45",
"S@	c #E08B46",
"T@	c #E5995F",
"U@	c #EEB07E",
"V@	c #ECB07A",
"W@	c #DF9D5B",
"X@	c #D28F4F",
"Y@	c #C08354",
"Z@	c #946444",
"`@	c #534728",
" #	c #758E46",
".#	c #A0C45C",
"+#	c #9ABB5D",
"@#	c #89A552",
"##	c #707A3C",
"$#	c #4F391D",
"%#	c #381E13",
"&#	c #201B16",
"*#	c #102722",
"=#	c #594733",
"-#	c #9B6C45",
";#	c #B67C4E",
">#	c #B77D4F",
",#	c #C1834C",
"'#	c #D38D47",
")#	c #DC9347",
"!#	c #D99248",
"~#	c #C27D3F",
"{#	c #99592E",
"]#	c #785B2D",
"^#	c #6E7B3C",
"/#	c #86A450",
"(#	c #9FC15F",
"_#	c #83A04F",
":#	c #5B6932",
"<#	c #654B26",
"[#	c #6F3F24",
"}#	c #512A17",
"|#	c #181E19",
"1#	c #003830",
"2#	c #2D5445",
"3#	c #546D57",
"4#	c #647A60",
"5#	c #657A61",
"6#	c #797457",
"7#	c #966A41",
"8#	c #A46534",
"9#	c #A46635",
"0#	c #8F572D",
"a#	c #694321",
"b#	c #727B3B",
"c#	c #91AD56",
"d#	c #9EBF5F",
"e#	c #A3C562",
"f#	c #393619",
"g#	c #65361F",
"h#	c #7B4227",
"i#	c #5B2F19",
"j#	c #18211A",
"k#	c #003E35",
"l#	c #00594B",
"m#	c #006F5E",
"n#	c #007967",
"o#	c #007A67",
"p#	c #2C7260",
"q#	c #5B6450",
"r#	c #886544",
"s#	c #AB713E",
"t#	c #AF7339",
"u#	c #A06F36",
"v#	c #938641",
"w#	c #8BA14F",
"x#	c #97B85B",
"y#	c #A1C361",
"z#	c #9DC05F",
"A#	c #7B964A",
"B#	c #464A23",
"C#	c #63351E",
"D#	c #774025",
"E#	c #582D18",
"F#	c #18201A",
"G#	c #003E34",
"H#	c #00584A",
"I#	c #006D5C",
"J#	c #007865",
"K#	c #007563",
"L#	c #31735F",
"M#	c #918259",
"N#	c #D59752",
"O#	c #EA9F4F",
"P#	c #E29A4C",
"Q#	c #B6823F",
"R#	c #6F6932",
"S#	c #7D994B",
"T#	c #9EC05F",
"U#	c #A0C361",
"V#	c #8CAC55",
"W#	c #728742",
"X#	c #6A6331",
"Y#	c #613C20",
"Z#	c #452110",
"`#	c #121E18",
" $	c #005447",
".$	c #006354",
"+$	c #006A59",
"@$	c #006A5A",
"#$	c #006657",
"$$	c #0E6252",
"%$	c #957E52",
"&$	c #E3A054",
"*$	c #F9A853",
"=$	c #ED9C4E",
"-$	c #BA783B",
";$	c #604721",
">$	c #728C44",
",$	c #9FC35D",
"'$	c #A2C663",
")$	c #95B55A",
"!$	c #3A3419",
"~$	c #1E110A",
"{$	c #06231D",
"]$	c #004036",
"^$	c #005043",
"/$	c #005648",
"($	c #005548",
"_$	c #004B41",
":$	c #153C31",
"<$	c #906838",
"[$	c #DA964B",
"}$	c #EB9B4D",
"|$	c #D88643",
"1$	c #A86331",
"2$	c #5A441F",
"3$	c #9EC15F",
"4$	c #758F45",
"5$	c #29361B",
"6$	c #002722",
"7$	c #003A31",
"8$	c #00483D",
"9$	c #004F43",
"0$	c #00473D",
"a$	c #0C3C32",
"b$	c #6F5532",
"c$	c #A9753B",
"d$	c #B57639",
"e$	c #A56230",
"f$	c #7E4622",
"g$	c #483C1B",
"h$	c #9CBD5E",
"i$	c #A3C761",
"j$	c #A1C461",
"k$	c #97B95C",
"l$	c #6F8740",
"m$	c #2E3A1F",
"n$	c #183A2F",
"o$	c #174A3D",
"p$	c #174E40",
"q$	c #144E41",
"r$	c #094D41",
"s$	c #004C40",
"t$	c #014B40",
"u$	c #0C4A3E",
"v$	c #314435",
"w$	c #4C3B23",
"x$	c #523416",
"y$	c #4C2D13",
"z$	c #39200D",
"A$	c #303417",
"B$	c #9BBD5D",
"C$	c #A0C560",
"D$	c #8FAF55",
"E$	c #5D682F",
"F$	c #47401B",
"G$	c #434328",
"H$	c #434B32",
"I$	c #444C33",
"J$	c #3D4831",
"K$	c #253E2F",
"L$	c #03372E",
"M$	c #00372E",
"N$	c #153B30",
"O$	c #264031",
"P$	c #253829",
"Q$	c #1A2215",
"R$	c #262008",
"S$	c #352B0B",
"T$	c #2C2409",
"U$	c #2C3416",
"V$	c #718B43",
"W$	c #9ABD5D",
"X$	c #9CC05C",
"Y$	c #7B9749",
"Z$	c #445024",
"`$	c #453712",
" %	c #584417",
".%	c #5B471A",
"+%	c #59471C",
"@%	c #57461C",
"#%	c #51451C",
"$%	c #424621",
"%%	c #303F20",
"&%	c #192816",
"*%	c #1F1F12",
"=%	c #352D17",
"-%	c #3E3217",
";%	c #413214",
">%	c #4C3A14",
",%	c #554115",
"'%	c #463510",
")%	c #333817",
"!%	c #99BC5C",
"~%	c #9BBF59",
"{%	c #748F42",
"]%	c #2D3113",
"^%	c #453410",
"/%	c #5B4616",
"(%	c #5F4817",
"_%	c #5A4414",
":%	c #4C390F",
"<%	c #4E4D1F",
"[%	c #6C813C",
"}%	c #6D863E",
"|%	c #405023",
"1%	c #201505",
"2%	c #38290E",
"3%	c #463513",
"4%	c #4F3C15",
"5%	c #584316",
"6%	c #5B4517",
"7%	c #483711",
"8%	c #2E2F12",
"9%	c #6F8941",
"0%	c #99BD5B",
"a%	c #9CC05A",
"b%	c #7C9A48",
"c%	c #4F602A",
"d%	c #565724",
"e%	c #686329",
"f%	c #6A6529",
"g%	c #646228",
"h%	c #505424",
"i%	c #5C7034",
"j%	c #87A64F",
"k%	c #657D39",
"l%	c #455124",
"m%	c #4F5526",
"n%	c #5C5C28",
"o%	c #656229",
"p%	c #69652A",
"q%	c #686429",
"r%	c #585825",
"s%	c #4E5C2A",
"t%	c #779346",
"u%	c #98BC59",
"v%	c #90B252",
"w%	c #82A04B",
"x%	c #849F4A",
"y%	c #89A14A",
"z%	c #8AA24A",
"A%	c #88A14A",
"B%	c #819D4A",
"C%	c #85A44E",
"D%	c #95B858",
"E%	c #99BD59",
"F%	c #89AA50",
"G%	c #809E4B",
"H%	c #829E4B",
"I%	c #86A04C",
"J%	c #88A04C",
"K%	c #8BA24D",
"L%	c #869F4C",
"M%	c #83A04D",
"N%	c #9BC05B",
"O%	c #9DC05C",
"P%	c #9CC05B",
"Q%	c #9BC05A",
"R%	c #9CC15B",
"S%	c #9BC059",
"T%	c #9DC258",
"U%	c #9CC157",
"V%	c #9ABE55",
"W%	c #99BD55",
"X%	c #95BC52",
"Y%	c #95BB51",
"Z%	c #96BC52",
"`%	c #98BE55",
" &	c #99BF55",
".&	c #97BD54",
"+&	c #96BD53",
"@&	c #93BA50",
"#&	c #96BC53",
"$&	c #94BB51",
"%&	c #94B950",
"&&	c #93B950",
"*&	c #95BB52",
"  . + @ # $ $ $ # # % $ # % % $ $ @ & * * * * = * & & * * * * & * = = - * & @ @ # # # @ @ & * * ; > ",
"* , , # $ $ % ' % ' ' ' % % $ $ $ # # @ @ @ # @ & & @ @ # @ @ @ & * * * * @ # $ # # @ # @ # & & * ) ",
"! ~ { % % $ % ' ' % ' % % % $ $ % $ % $ $ # # # # # # @ # # ] # @ & & # # @ # $ @ & # $ # # # & & = ",
"@ $ % ' ' ^ ^ ^ ^ ' ' ' % / % % ' ' $ % % $ $ $ # @ # @ @ # $ # # # $ # # $ $ # @ # $ $ $ $ # # & & ",
"# % ' ' ^ ' ' ' ' ' ^ ' ' % % % % % # # % $ % $ # @ # @ @ $ # # # @ # @ @ # $ # $ % # # $ # # # # ( ",
"$ % ' ^ ^ % $ ' ' ^ ' / % % % % % / _ % $ $ ] $ ] # $ $ % # @ # # $ $ # % $ # $ ' % $ # $ : # # # $ ",
"# % ' ^ ' ' ' ' ' ' ^ ' % ' % % % < [ } } } | } } < $ $ $ % % $ $ $ $ $ % $ $ $ $ $ % $ $ $ # $ # $ ",
"@ % ^ ' % ^ ' % % % ' ' ' ' ^ ' ^ } } [ } | } } } _ # $ # $ # % ' % $ # $ $ $ # $ % $ # # $ $ $ # $ ",
"& % ^ ' ' ' ^ % ' ' 1 ^ ^ 1 < ' 2 3 4 3 4 3 3 4 5 6 _ _ ] _ _ $ % % $ $ # $ @ # # $ $ % $ $ $ $ $ $ ",
"# % ' ^ < ' ^ ^ ' ^ ^ 7 [ [ 8 8 9 0 a b b c b b c d 6 6 6 e 3 / % % # $ $ % $ # % $ # $ $ $ $ @ $ # ",
"@ $ % ' ' ^ % ' 1 1 1 2 8 8 8 f f g h i j k l i m k n o n p q ' % % % $ $ % $ $ # # # $ # # $ $ # # ",
"@ $ % ' ' ' ' ' 1 7 2 r s t u u v w x y z A B B B C A D E F G [ [ < | | ] $ % # $ % % # $ $ $ # @ & ",
"& $ ' ' ' ' ' ' 7 8 8 H I I J K L M N O P Q R S S R T U V W X Y 6 [ [ } } $ % ' $ $ $ $ _ $ # # @ @ ",
"* @ # % ' % ^ 1 7 8 8 Z J ` J  ...+.@.#.$.%.&.*.*.=.-.;.>.,.'.).!.~.9 } } % % % ' ] @ @ # @ @ & & & ",
"* $ ' ' ' ' 1 ^ 7 8 8 {.J ].^./.(._.:.<.[.}.|.1.2.3.4.5.6.7.8.9.0.a.b.c.4 [ < } % % $ # # @ # @ * & ",
"* $ % ' ' ' 1 ^ 7 f f d.J e.f.g.h.i.j.k.l.m.n.o.p.}.q.#.k.r.s.t.u.v.w.0 c.[ [ } $ % $ # @ @ @ & # - ",
"* $ ' ^ % ' ^ 1 2 x.y.{.J z.A.B.C.D.E.j.F.G.H.I.J.K.<.L.M.N.O.P.Q.R.S.0 c.[ [ } $ $ $ # T.# @ # @ - ",
"U.V.W.' ' ^ ' ^ X.f y.Y.Z.`. +.+C.++@+#+r.$+%+%+%+k.&+*+=+-+;+>+,+'+S.v I 0 c.a < } [ % # & @ @ & * ",
")+V.!+^ ' ^ ' ^ 2 8 x.{.` `. +.+C.++~+D.{+]+]+]+^+/+(+_+:+<+[+}+|+x S.I I v v v [ [ < % $ # @ # @ * ",
"1+# 2+^ ^ ^ ' ^ 1 f f Z ` 3+ +.+C.4+~+5+5+~+6+~+~+7+8+9+0+a+b+c+d+x e+I v 0 0 v [ [ } $ $ # @ @ @ * ",
"= @ % % % $ ' 1 7 9 f f+Z.`.g+h+i+4+j+k+l+m+n+o+m+p+q+r+s+t+u+v+w+x x+y+z+I I 0 [ [ _ # # $ # @ @ @ ",
"* @ $ $ % % < ^ 7 8 x.Z ` z.A+B+C+D+E+F+G+H+I+J+K+L+M+N+O+P+Q+R+S+T+U+y+y+y+` v [ } V+# $ # # # & & ",
"& $ ' % % ' ^ 1 2 f y.f+` z.W+X+Y+Z+`+ @.@+@@@#@$@%@&@*@=@-@;@>@,@x x+'@'@I v I 8 9 } $ # $ # # # @ ",
"@ ' % % ' ' ' ^ X.f x.u I 3+)@!@~@{@]@^@/@(@_@:@<@[@}@|@1@2@3@4@5@6@x+7@'@J v v f 8 [ % $ # # # @ * ",
"# $ ' ' ' ' ^ ^ 7 f f H I 8@9@0@a@b@c@d@e@f@g@h@i@j@k@l@m@n@o@p@q@T+U+'@7@J v I f 8 / $ # $ $ @ # * ",
"% % ' ' ' ^ ^ ^ 2 f x.f+I J ` r@s@t@u@v@w@x@y@z@A@B@C@D@E@F@G@H@I@x r@J@'@I J I x.f | _ ] $ $ # @ K@",
"' ' % 1 ^ ^ ^ 1 7 8 x.d.J J '@U+T+L@M@N@O@P@Q@R@S@T@U@V@W@X@Y@Z@`@ #x+7@'@I I J x.9 [ } } | # @ & - ",
"% % ' ^ ' .#7 1 2 f x.{.J 8@+#@###$#%#&#*#=#-#;#>#,#'#)#!#~#{#]#^#/#(#'@'@J I I 8 [ } } } V+# @ * * ",
"% ' ' ^ ' ' ^ _ 7 8 f Z I e._#:#<#[#}#|#1#2#3#4#5#6#7#8#9#0#a#b#c#d#e#z+y+I I v [ } } / _ ] # # & - ",
"' < ^ ' ' ' ' < 2 9 9 {.I `.W+f#g#h#i#j#k#l#m#n#o#p#q#r#s#t#u#v#w#x#y#z+y+` I v 9 [ [ $ $ $ # # & * ",
"$ ' ' ' ' < .#' 7 9 [ t J z#A#B#C#D#E#F#G#H#I#J#J#K#L#M#N#O#P#Q#R#S#T#y+y+I I v 9 } } # @ # # @ & & ",
"@ % % $ % % ' ' 7 9 8 {.J U#V#W#X#Y#Z#`#G# $.$+$@$#$$$%$&$*$=$-$;$>$9@y+u u r ,$} } } $ @ # # @ @ & ",
"@ # % % % % ' ^ 7 9 f u J '$U#)$W#!$~${$]$^$ $/$($_$:$<$[$}$|$1$2$6@d#y+s 9 9 [ } | | $ # @ @ @ # @ ",
"& # $ % ' % ' ^ < 8 f Z J J J 3$4$5$6$7$8$9$9$9$9$0$a$b$c$d$e$f$g$x h$z+s 3 [ 9 | V+V+# @ # @ # & @ ",
"* # % ' % ' ^ 1 2 f f i$x.d.j$k$l$m$n$o$p$q$r$s$s$t$u$v$w$x$y$z$A$>$B$v C$9 [ } ] ] ] @ @ @ @ @ # $ ",
"- @ % ' .#' ' ^ 2 f f 8 x.r D$..E$F$G$H$I$J$K$L$M$N$O$P$Q$R$S$T$U$V$W$0 0 r } | $ # @ @ # & * # # # ",
"@ $ % ' ' % % ^ 2 9 9 9 9 X$Y$Z$`$ %.%+%@%#%$%%%&%*%=%-%;%>%,%'%)%>$!%0 0 [ } V+$ # # & & & * # # & ",
"@ $ % ' ' ^ ^ ^ 1 ^ < ^ 7 ~%{%]%^%/%(%_%:%<%[%}%|%1%2%3%4%5%6%7%8%9%0%3 | $ # @ # # @ * & @ * * @ # ",
"@ % ' ' ^ ' ' % ' ^ ' ^ ^ a%b%c%d%e%f%g%h%i%j%p k%l%m%n%o%p%q%r%s%t%u%} } $ # @ @ & & * & # @ @ @ * ",
"@ $ ' ^ ' ^ ' % ^ ^ ' $ % ] v%w%x%y%z%A%B%C%D%E%F%G%H%I%J%K%K%L%M%Y N%} | ] # # @ & @ & & & @ @ # & ",
"$ % % % ^ ' ' % ' ' ' % % ' $ ] ] O%O%P%T.K@_ 6 a%Q%Q%Q%a%a%e Q%R%| _ ] @ @ @ # & * & & @ & @ @ & * ",
"% ^ % ' % % ' ' ' % % % $ $ $ % % / _ ] # # # V+V+S%V+6 | } } S%| | ] # # @ @ @ & & & * & @ & & * & ",
"@ $ ' ^ % ' ' ' ' ' % % ' % $ $ % T%@ U%@ & & S%S%S%V+S%S%V+V+| | ] @ # @ @ @ & # # # @ & @ @ # @ - ",
"@ $ ' ' ' ' $ $ $ $ $ % % % $ $ $ $ # $ # @ & & @ @ @ @ @ @ $ $ $ T.$ # @ & & & @ # @ # & # @ @ & * ",
"@ $ % ' ' % % ' ' % ' ' % $ % $ $ @ @ @ # # # & & @ @ @ @ $ # # # @ & @ & & @ # @ & @ @ & & @ & & * ",
"* # % $ % % % ' % ' ' % $ % $ $ @ @ # & @ & & @ * * & & & @ # @ @ & * @ @ @ @ @ @ & @ * & @ @ * V%- ",
") & $ % % ^ ' ^ ^ % ' ' % % $ # # # # @ @ & & & - - * * & @ T.& * & & & @ # # @ # @ @ & & # @ * * W%",
") * # % % ' ^ ^ % ' ' % ' $ # # # # & & & & & & * & * * * * * * & & * @ # # @ @ & @ @ @ @ @ & * * X%",
"Y%Z%- @ % % % % $ $ % $ $ @ * `% &* * @ & @ @ & & & * = ) ; = .&.&.&- & * - - & & & @ & & - = = +&  ",
"@&+&#&- K@& # $ $ % @ & * * .&$&X%= * & @ @ & & & * = ; %&%&%&&&$&@&%&; ; = = = = - - * = = ) = *&$&"};
