/* XPM */
static char * esquerda_xpm[] = {
"50 50 768 2",
"  	c #94BC52",
". 	c #97BF55",
"+ 	c #99C157",
"@ 	c #9BC057",
"# 	c #9CC158",
"$ 	c #9DC259",
"% 	c #9EC35A",
"& 	c #9ABF56",
"* 	c #99BE55",
"= 	c #97BC53",
"- 	c #98BD54",
"; 	c #95BA51",
"> 	c #93B84F",
", 	c #9BC158",
"' 	c #9FC45B",
") 	c #96BB52",
"! 	c #9BBF56",
"~ 	c #9CBF57",
"{ 	c #9DC158",
"] 	c #9CC159",
"^ 	c #A0C55C",
"/ 	c #9EC35B",
"( 	c #99BE56",
"_ 	c #9DC25A",
": 	c #9DC159",
"< 	c #9FC45C",
"[ 	c #9FC45D",
"} 	c #9EC35C",
"| 	c #9DC25B",
"1 	c #9DC25C",
"2 	c #99BD59",
"3 	c #95B757",
"4 	c #92B454",
"5 	c #91B354",
"6 	c #92B455",
"7 	c #91B353",
"8 	c #90B251",
"9 	c #91B352",
"0 	c #92B552",
"a 	c #9ABE57",
"b 	c #A1C65D",
"c 	c #A1C65E",
"d 	c #9DC25D",
"e 	c #8BAB52",
"f 	c #728D42",
"g 	c #677F3B",
"h 	c #68813C",
"i 	c #67813B",
"j 	c #67803B",
"k 	c #678039",
"l 	c #667F38",
"m 	c #667F39",
"n 	c #728E40",
"o 	c #8CAD4F",
"p 	c #A0C55D",
"q 	c #A1C65F",
"r 	c #A0C55E",
"s 	c #9DC15C",
"t 	c #93B558",
"u 	c #769045",
"v 	c #495527",
"w 	c #2F2D14",
"x 	c #363217",
"y 	c #3C3518",
"z 	c #3F3519",
"A 	c #403619",
"B 	c #3F3518",
"C 	c #3B3418",
"D 	c #363216",
"E 	c #302E14",
"F 	c #4E5C2A",
"G 	c #799544",
"H 	c #93B553",
"I 	c #9BC058",
"J 	c #A0C45F",
"K 	c #8EAF54",
"L 	c #748E44",
"M 	c #5A6732",
"N 	c #44361C",
"O 	c #492918",
"P 	c #552F1B",
"Q 	c #60341D",
"R 	c #67381F",
"S 	c #6B3A1F",
"T 	c #6B391F",
"U 	c #5F341D",
"V 	c #542F1B",
"W 	c #472818",
"X 	c #453B1D",
"Y 	c #5B6B30",
"Z 	c #738F40",
"` 	c #8DAE50",
" .	c #A0C55F",
"..	c #A1C661",
"+.	c #9FC25F",
"@.	c #95B659",
"#.	c #759045",
"$.	c #475428",
"%.	c #3A2B17",
"&.	c #4C301C",
"*.	c #5C3520",
"=.	c #6A3C24",
"-.	c #774226",
";.	c #814728",
">.	c #864A29",
",.	c #864929",
"'.	c #804728",
").	c #764226",
"!.	c #693C23",
"~.	c #5B3420",
"{.	c #4A2F1C",
"].	c #392E18",
"^.	c #4A5928",
"/.	c #779444",
"(.	c #92B554",
"_.	c #9BBF5A",
":.	c #9BC059",
"<.	c #A1C560",
"[.	c #A2C662",
"}.	c #9EC15F",
"|.	c #8EAE56",
"1.	c #748F45",
"2.	c #546631",
"3.	c #302D18",
"4.	c #3B2317",
"5.	c #4F2E1D",
"6.	c #5A3520",
"7.	c #643923",
"8.	c #714026",
"9.	c #7E4628",
"0.	c #83492A",
"a.	c #7D4628",
"b.	c #703F25",
"c.	c #633922",
"d.	c #593420",
"e.	c #4D2E1C",
"f.	c #392216",
"g.	c #333419",
"h.	c #566A31",
"i.	c #759143",
"j.	c #8BAD51",
"k.	c #A3C762",
"l.	c #A3C763",
"m.	c #9CBE5F",
"n.	c #799449",
"o.	c #455427",
"p.	c #292815",
"q.	c #302316",
"r.	c #3F2619",
"s.	c #4C2D1D",
"t.	c #51301E",
"u.	c #55321F",
"v.	c #613822",
"w.	c #6F3F25",
"x.	c #764227",
"y.	c #754227",
"z.	c #6E3E25",
"A.	c #603721",
"B.	c #54321F",
"C.	c #4B2C1C",
"D.	c #3D2519",
"E.	c #302516",
"F.	c #292A15",
"G.	c #485928",
"H.	c #799645",
"I.	c #98BC58",
"J.	c #A3C862",
"K.	c #9ABC5D",
"L.	c #718B43",
"M.	c #2B3518",
"N.	c #1A120E",
"O.	c #271A14",
"P.	c #2F1D17",
"Q.	c #372018",
"R.	c #42261A",
"S.	c #4E2E1D",
"T.	c #623822",
"U.	c #663B23",
"V.	c #663A23",
"W.	c #583320",
"X.	c #4F2F1D",
"Y.	c #482B1C",
"Z.	c #41271A",
"`.	c #382318",
" +	c #2D1D15",
".+	c #1D120D",
"++	c #333F1C",
"@+	c #748F44",
"#+	c #98BB5A",
"$+	c #A2C760",
"%+	c #A2C761",
"&+	c #738D44",
"*+	c #353E1D",
"=+	c #2B1810",
"-+	c #3D2418",
";+	c #492E1B",
">+	c #50341E",
",+	c #52341E",
"'+	c #50311E",
")+	c #54311F",
"!+	c #4B2D1C",
"~+	c #342117",
"{+	c #311F16",
"]+	c #2C1C14",
"^+	c #1E120D",
"/+	c #38451F",
"(+	c #769146",
"_+	c #98BB5B",
":+	c #A3C861",
"<+	c #A4C962",
"[+	c #748D45",
"}+	c #3D3F1D",
"|+	c #512818",
"1+	c #744024",
"2+	c #925C30",
"3+	c #A16C36",
"4+	c #8D5F30",
"5+	c #5B3A21",
"6+	c #3A2118",
"7+	c #41261A",
"8+	c #44291B",
"9+	c #45291B",
"0+	c #372218",
"a+	c #2F1E16",
"b+	c #384520",
"c+	c #98BF55",
"d+	c #9DC359",
"e+	c #9FC25A",
"f+	c #A2C75F",
"g+	c #A4C963",
"h+	c #A5C965",
"i+	c #9BBD5E",
"j+	c #748E45",
"k+	c #47421F",
"l+	c #713920",
"m+	c #A05931",
"n+	c #C77E41",
"o+	c #DA944A",
"p+	c #BF8341",
"q+	c #7A522A",
"r+	c #3F2819",
"s+	c #372318",
"t+	c #352117",
"u+	c #779246",
"v+	c #9BBE5E",
"w+	c #A0C460",
"x+	c #9FC35F",
"y+	c #9EC25E",
"z+	c #97C056",
"A+	c #A0C35B",
"B+	c #A4C864",
"C+	c #4E4520",
"D+	c #864623",
"E+	c #BA6935",
"F+	c #DE8D46",
"G+	c #F0A250",
"H+	c #DF9849",
"I+	c #B47936",
"J+	c #865825",
"K+	c #51341A",
"L+	c #201414",
"M+	c #271915",
"N+	c #2A1B15",
"O+	c #231614",
"P+	c #1E1413",
"Q+	c #201614",
"R+	c #251915",
"S+	c #2B1C16",
"T+	c #2B1B14",
"U+	c #1E130D",
"V+	c #779347",
"W+	c #A1C561",
"X+	c #98C056",
"Y+	c #A0C45B",
"Z+	c #758E45",
"`+	c #544822",
" @	c #96562D",
".@	c #CB7A40",
"+@	c #E4924B",
"@@	c #EFA251",
"#@	c #EFA555",
"$@	c #E39D54",
"%@	c #BE8448",
"&@	c #7B542E",
"*@	c #382418",
"=@	c #2E1D15",
"-@	c #3B2618",
";@	c #3D2619",
">@	c #3A2418",
",@	c #394620",
"'@	c #9ABD5D",
")@	c #A4C863",
"!@	c #758F46",
"~@	c #594F2B",
"{@	c #A5734A",
"]@	c #D89761",
"^@	c #DC985A",
"/@	c #D39351",
"(@	c #DEA572",
"_@	c #EBB88F",
":@	c #DBAB84",
"<@	c #B18258",
"[@	c #83582B",
"}@	c #54361B",
"|@	c #573A20",
"1@	c #855A2D",
"2@	c #976432",
"3@	c #915B2E",
"4@	c #804B27",
"5@	c #5F371F",
"6@	c #352016",
"7@	c #17100D",
"8@	c #36411E",
"9@	c #779247",
"0@	c #9BBD5D",
"a@	c #5D5734",
"b@	c #B08E65",
"c@	c #E0B481",
"d@	c #C99E6B",
"e@	c #997551",
"f@	c #B09C8F",
"g@	c #DDCCC1",
"h@	c #EACBB6",
"i@	c #E0AA7A",
"j@	c #BF823E",
"k@	c #7F5426",
"l@	c #80562C",
"m@	c #BF8241",
"n@	c #D89048",
"o@	c #D08341",
"p@	c #B66B36",
"q@	c #844C28",
"r@	c #3E2517",
"s@	c #080A0B",
"t@	c #3C4A22",
"u@	c #799347",
"v@	c #9CBE5E",
"w@	c #A3C662",
"x@	c #9CC15A",
"y@	c #738C44",
"z@	c #5F5A39",
"A@	c #B69970",
"B@	c #E4C18E",
"C@	c #BFA073",
"D@	c #6C6150",
"E@	c #91979B",
"F@	c #D5D4D4",
"G@	c #F0D8C9",
"H@	c #F3BA88",
"I@	c #B37938",
"J@	c #B1773B",
"K@	c #D99048",
"L@	c #EB994C",
"M@	c #E48D47",
"N@	c #CB773C",
"O@	c #91532A",
"P@	c #47381D",
"Q@	c #435328",
"R@	c #657B3B",
"S@	c #88A551",
"T@	c #9FC160",
"U@	c #A2C661",
"V@	c #5F5A38",
"W@	c #B5986F",
"X@	c #E4C08D",
"Y@	c #6F6250",
"Z@	c #93979A",
"`@	c #D5D4D3",
" #	c #EFD7C8",
".#	c #F4BA88",
"+#	c #EFA34F",
"@#	c #E19A49",
"##	c #DC9349",
"$#	c #DF8E47",
"%#	c #E18A45",
"&#	c #DE8443",
"*#	c #C9753B",
"=#	c #8E5228",
"-#	c #4E4B24",
";#	c #6D8540",
">#	c #8EAC55",
",#	c #9DBE5F",
"'#	c #A2C562",
")#	c #595433",
"!#	c #A88862",
"~#	c #D7AE7E",
"{#	c #C59A69",
"]#	c #9F7751",
"^#	c #B69D8D",
"/#	c #DFCBBD",
"(#	c #EFCBB3",
"_#	c #F0AF7B",
":#	c #F0A04E",
"<#	c #F09F4C",
"[#	c #E5964A",
"}#	c #D08040",
"|#	c #C17139",
"1#	c #C07039",
"2#	c #B06733",
"3#	c #7C4722",
"4#	c #4D5327",
"5#	c #7F9B4C",
"6#	c #A1C361",
"7#	c #A4C763",
"8#	c #A5C864",
"9#	c #4F4827",
"0#	c #8C6244",
"a#	c #BD8459",
"b#	c #CD8E55",
"c#	c #D49351",
"d#	c #E1A66F",
"e#	c #EDB789",
"f#	c #EEB081",
"g#	c #E6995E",
"h#	c #E48D46",
"i#	c #E38D45",
"j#	c #D18140",
"k#	c #A66432",
"l#	c #844C27",
"m#	c #804A27",
"n#	c #774524",
"o#	c #522E17",
"p#	c #465126",
"q#	c #809C4C",
"r#	c #A2C463",
"s#	c #A6C965",
"t#	c #9ABF57",
"u#	c #646F36",
"v#	c #77562D",
"w#	c #995B32",
"x#	c #BA773E",
"y#	c #D49049",
"z#	c #DD9A4F",
"A#	c #DC9950",
"B#	c #D5914F",
"C#	c #C9854C",
"D#	c #C47F4B",
"E#	c #C37E4A",
"F#	c #AD7143",
"G#	c #775133",
"H#	c #372F23",
"I#	c #29221A",
"J#	c #341F14",
"K#	c #3A1F12",
"L#	c #524D25",
"M#	c #798C45",
"N#	c #91B057",
"O#	c #9EC060",
"P#	c #A3C562",
"Q#	c #A0C45C",
"R#	c #A0C361",
"S#	c #99B95C",
"T#	c #8AA551",
"U#	c #777E3E",
"V#	c #6A4B24",
"W#	c #7C4F2A",
"X#	c #916637",
"Y#	c #986C37",
"Z#	c #966B35",
"`#	c #906F43",
" $	c #887754",
".$	c #847B5C",
"+$	c #837A5B",
"@$	c #736F54",
"#$	c #495745",
"$$	c #053B33",
"%$	c #002320",
"&$	c #2E1B12",
"*$	c #582E1A",
"=$	c #6A4625",
"-$	c #676130",
";$	c #6C813E",
">$	c #8AA852",
",$	c #A0C260",
"'$	c #A1C562",
")$	c #9DC060",
"!$	c #93AF57",
"~$	c #868E45",
"{$	c #785F2E",
"]$	c #77532B",
"^$	c #755832",
"/$	c #625335",
"($	c #3F4E3B",
"_$	c #255D4C",
":$	c #24715E",
"<$	c #247A66",
"[$	c #237A66",
"}$	c #1E715E",
"|$	c #115E4F",
"1$	c #00473C",
"2$	c #002B25",
"3$	c #392013",
"4$	c #6A381F",
"5$	c #774125",
"6$	c #5A301B",
"7$	c #464D24",
"8$	c #789347",
"9$	c #9FC261",
"0$	c #8BA853",
"a$	c #7D8A44",
"b$	c #A08440",
"c$	c #C08843",
"d$	c #C98A44",
"e$	c #C18847",
"f$	c #9D7C4C",
"g$	c #506C54",
"h$	c #006B5C",
"i$	c #007564",
"j$	c #007A67",
"k$	c #007160",
"l$	c #005E50",
"m$	c #00483D",
"n$	c #002C25",
"o$	c #3A2013",
"p$	c #6C3920",
"q$	c #7A4226",
"r$	c #5B311B",
"s$	c #3B3E1C",
"t$	c #758F45",
"u$	c #9CBD5E",
"v$	c #A2C762",
"w$	c #99BC5D",
"x$	c #769046",
"y$	c #615729",
"z$	c #AD7438",
"A$	c #E39A4C",
"B$	c #F4A552",
"C$	c #EDA453",
"D$	c #C39457",
"E$	c #6C7A5B",
"F$	c #006F5F",
"G$	c #007261",
"H$	c #007462",
"I$	c #006D5C",
"J$	c #005C4E",
"K$	c #351E12",
"L$	c #63341C",
"M$	c #724325",
"N$	c #5F4624",
"O$	c #586630",
"P$	c #9DBF5E",
"Q$	c #584721",
"R$	c #A76933",
"S$	c #E09047",
"T$	c #F5A251",
"U$	c #F3A653",
"V$	c #CA914F",
"W$	c #706948",
"X$	c #00564A",
"Y$	c #005F51",
"Z$	c #006454",
"`$	c #006354",
" %	c #005F50",
".%	c #005649",
"+%	c #24140B",
"@%	c #462211",
"#%	c #5D4A25",
"$%	c #717B3C",
"%%	c #829C4D",
"&%	c #94B458",
"*%	c #9FC35D",
"=%	c #728C44",
"-%	c #524721",
";%	c #94562A",
">%	c #C8783C",
",%	c #DF8F47",
"'%	c #E1984C",
")%	c #BC8241",
"!%	c #68502E",
"~%	c #003730",
"{%	c #004A40",
"]%	c #005246",
"^%	c #005245",
"/%	c #005044",
"(%	c #02332B",
"_%	c #0B1B16",
":%	c #18110C",
"<%	c #444E24",
"[%	c #7C9548",
"}%	c #44421E",
"|%	c #6C3B1C",
"1%	c #935529",
"2%	c #A66832",
"3%	c #A97137",
"4%	c #8C6536",
"5%	c #4C4832",
"6%	c #004037",
"7%	c #004A3F",
"8%	c #004F43",
"9%	c #004C40",
"0%	c #004339",
"a%	c #00352E",
"b%	c #00201D",
"c%	c #415126",
"d%	c #A1C261",
"e%	c #A2C561",
"f%	c #9FC45E",
"g%	c #A3C761",
"h%	c #99BC5B",
"i%	c #353E1B",
"j%	c #311C0B",
"k%	c #452811",
"l%	c #4C2E12",
"m%	c #4C3419",
"n%	c #3F3E2A",
"o%	c #234739",
"p%	c #074B3F",
"q%	c #024B40",
"r%	c #004B40",
"s%	c #084C40",
"t%	c #144E40",
"u%	c #194E40",
"v%	c #194D3F",
"w%	c #1A4538",
"x%	c #1A3126",
"y%	c #414F25",
"z%	c #97B85A",
"A%	c #9FC360",
"B%	c #9FC460",
"C%	c #9ABD5B",
"D%	c #728C43",
"E%	c #333E1B",
"F%	c #271F08",
"G%	c #332A0B",
"H%	c #2C2408",
"I%	c #1A1B0C",
"J%	c #1D2C1F",
"K%	c #273D2E",
"L%	c #234032",
"M%	c #113B31",
"N%	c #003830",
"O%	c #02382F",
"P%	c #203E30",
"Q%	c #384732",
"R%	c #424C33",
"S%	c #424D34",
"T%	c #424830",
"U%	c #423E22",
"V%	c #4B481F",
"W%	c #627235",
"X%	c #799448",
"Y%	c #8EAF55",
"Z%	c #9DC05E",
"`%	c #373F1B",
" &	c #3E2F0E",
".&	c #523F14",
"+&	c #4F3C14",
"@&	c #423313",
"#&	c #3D3116",
"$&	c #3B331A",
"%&	c #302D19",
"&&	c #1A2016",
"*&	c #142618",
"=&	c #26361E",
"-&	c #393F20",
";&	c #4C431F",
">&	c #55461E",
",&	c #58481F",
"'&	c #58471D",
")&	c #59461A",
"!&	c #544317",
"~&	c #443D17",
"{&	c #4D5D2A",
"]&	c #7B9849",
"^&	c #9ABD5C",
"/&	c #97BA56",
"(&	c #6F893F",
"_&	c #323817",
":&	c #42320F",
"<&	c #584316",
"[&	c #594417",
"}&	c #513D15",
"|&	c #4A3814",
"1&	c #423111",
"2&	c #33250C",
"3&	c #1C1104",
"4&	c #3A4A1F",
"5&	c #5F7636",
"6&	c #657737",
"7&	c #545624",
"8&	c #4C390F",
"9&	c #574113",
"0&	c #5D4715",
"a&	c #5F4817",
"b&	c #574315",
"c&	c #333C19",
"d&	c #738F43",
"e&	c #96BA57",
"f&	c #97BB57",
"g&	c #414D21",
"h&	c #463C15",
"i&	c #5D501E",
"j&	c #61531E",
"k&	c #5E511E",
"l&	c #574C1D",
"m&	c #4B431C",
"n&	c #3A3716",
"o&	c #313817",
"p&	c #5C7234",
"q&	c #85A44E",
"r&	c #85A34F",
"s&	c #607336",
"t&	c #42411A",
"u&	c #53461A",
"v&	c #61521F",
"w&	c #63541F",
"x&	c #5C4F1E",
"y&	c #433915",
"z&	c #445224",
"A&	c #769344",
"B&	c #98BB58",
"C&	c #99BD57",
"D&	c #84A44B",
"E&	c #6F883E",
"F&	c #71843C",
"G&	c #7A893E",
"H&	c #7D8B3E",
"I&	c #7C8A3E",
"J&	c #79893F",
"K&	c #73853E",
"L&	c #6C813C",
"M&	c #6B843D",
"N&	c #7D9A48",
"O&	c #95B758",
"P&	c #94B758",
"Q&	c #7D9A4A",
"R&	c #6D833D",
"S&	c #75863E",
"T&	c #7D8B40",
"U&	c #7E8B40",
"V&	c #7B8940",
"W&	c #70833D",
"X&	c #708A40",
"Y&	c #87A74E",
"Z&	c #9EC25A",
"`&	c #98BB56",
" *	c #93B653",
".*	c #94B553",
"+*	c #95B556",
"@*	c #96B556",
"#*	c #95B555",
"$*	c #94B552",
"%*	c #92B351",
"&*	c #93B555",
"**	c #95B856",
"=*	c #9ABF59",
"-*	c #94B554",
";*	c #96B655",
">*	c #95B554",
",*	c #95B655",
"'*	c #96BA56",
")*	c #9DC258",
"!*	c #9CC157",
"~*	c #9ABE55",
"{*	c #99BD55",
"]*	c #95BC52",
"^*	c #95BB51",
"/*	c #96BC52",
"(*	c #98BE55",
"_*	c #99BF55",
":*	c #97BD54",
"<*	c #96BD53",
"[*	c #93BA50",
"}*	c #96BC53",
"|*	c #94BB51",
"1*	c #94B950",
"2*	c #93B950",
"3*	c #95BB52",
"  . + @ # $ $ $ # # % $ # % % $ $ @ & * * * * = * & & * * * * & * = = - * & @ @ # # # @ @ & * * ; > ",
"* , , # $ $ % ' % ' ' ' % % $ $ $ # # @ @ @ # @ & & @ @ # @ @ @ & * * * * @ # $ # # @ # @ # & & * ) ",
"! ~ { % % $ % ' ' % ' % % % $ $ % $ % $ $ # # # # # # @ # # ] # @ & & # # @ # $ @ & # $ # # # & & = ",
"@ $ % ' ' ^ ^ ^ ^ ' ' ' % / % % ' ' $ % % $ $ $ # @ # @ @ # $ # # # $ # # $ $ # @ # $ $ $ $ # # & & ",
"# % ' ' ^ ' ' ' ' ' ^ ' ' % % % % % # # % $ % $ # @ # @ @ $ # # # @ # @ @ # $ # $ % # # $ # # # # ( ",
"$ % ' ^ ^ % $ ' ' ^ ' / % % % % % / _ % $ $ ] $ ] # $ $ % # @ # # $ $ # % $ # $ ' % $ # $ : # # # $ ",
"# % ' ^ ' ' ' ' ' ' ^ ' % ' % % % < [ } } } | } } < $ $ $ % % $ $ $ $ $ % $ $ $ $ $ % $ $ $ # $ # $ ",
"@ % ^ ' % ^ ' % % % ' ' ' ' ^ ' ^ 1 2 3 4 5 6 6 6 7 8 9 8 9 0 a ' % $ # $ $ $ # $ % $ # # $ $ $ # $ ",
"& % ^ ' ' ' ^ % ' ' b ^ ^ b < ' c d e f g h h h i j k k l m n o $ % $ $ # $ @ # # $ $ % $ $ $ $ $ $ ",
"# % ' ^ < ' ^ ^ ' ^ ^ p [ [ q r s t u v w x y z A A B C D E F G H I I $ $ % $ # % $ # $ $ $ $ @ $ # ",
"@ $ % ' ' ^ % ' b b b c q q q J K L M N O P Q R S T R U V W X Y Z ` : $ $ % $ $ # # # $ # # $ $ # # ",
"@ $ % ' ' ' ' ' b p c  .....+.@.#.$.%.&.*.=.-.;.>.,.'.).!.~.{.].^./.(._.:.$ % # $ % % # $ $ $ # @ & ",
"& $ ' ' ' ' ' ' p q q <.[.}.|.1.2.3.4.5.6.7.8.9.0.0.a.b.c.d.e.f.g.h.i.j._.$ % ' $ $ $ $ _ $ # # @ @ ",
"* @ # % ' % ^ b p q q k.l.m.n.o.p.q.r.s.t.u.v.w.x.y.z.A.B.t.C.D.E.F.G.H.I.% % % ' ] @ @ # @ @ & & & ",
"* $ ' ' ' ' b ^ p q q J.l.K.L.M.N.O.P.Q.R.S.d.T.U.V.v.W.X.Y.Z.`. +.+++@+#+[ < } % % $ # # @ # @ * & ",
"* $ % ' ' ' b ^ p $+$+%+l.K.&+*+=+-+;+>+,+'+t.)+u.u.)+t.!+r.~+{+]+^+/+(+_+[ [ } $ % $ # @ @ @ & # - ",
"* $ ' ^ % ' ^ b c :+<+J.l.K.[+}+|+1+2+3+4+5+6+7+8+8+8+9+Z.0+a+a+]+^+b+(+_+[ [ } $ $ $ # I # @ # @ - ",
"c+d+e+' ' ^ ' ^ f+$+<+g+h+i+j+k+l+m+n+o+p+q+r+s+t+t+t+t+~+{+a+a+]+^+b+u+v+w+x+y+< } [ % # & @ @ & * ",
"z+d+A+^ ' ^ ' ^ c q :+J.B+i+j+C+D+E+F+G+H+I+J+K+L+M+N+O+P+Q+R+S+T+U+b+V+v+W+W+W+[ [ < % $ # @ # @ * ",
"X+# Y+^ ^ ^ ' ^ b $+$+k.B+m.Z+`+ @.@+@@@#@$@%@&@*@=@~+-@r+;@>@t+]+.+,@V+'@w+w+W+[ [ } $ $ # @ @ @ * ",
"= @ % % % $ ' b p r $+)@h+i+!@~@{@]@^@/@(@_@:@<@[@}@|@1@2@3@4@5@6@7@8@9@0@[.[.w+[ [ _ # # $ # @ @ @ ",
"* @ $ $ % % < ^ p q :+k.B+K.[+a@b@c@d@e@f@g@h@i@j@k@l@m@n@o@p@q@r@s@t@u@v@w@B+W+[ } x@# $ # # # & & ",
"& $ ' % % ' ^ b c $+<+)@B+K.y@z@A@B@C@D@E@F@G@H@H+I@J@K@L@M@N@O@P@Q@R@S@T@[.W+[.q r } $ # $ # # # @ ",
"@ ' % % ' ' ' ^ f+$+:+U@[.i+Z+V@W@X@C@Y@Z@`@ #.#+#@###$#%#&#*#=#-#;#>#,#'#l.W+W+$+q [ % $ # # # @ * ",
"# $ ' ' ' ' ^ ^ p $+$+<.[.K.[+)#!#~#{#]#^#/#(#_#:#<#[#}#|#1#2#3#4#5#6#7#8#l.W+[.$+q / $ # $ $ @ # * ",
"% % ' ' ' ^ ^ ^ c $+:+)@[.K.&+9#0#a#b#c#d#e#f#g#h#i#j#k#l#m#n#o#p#q#r#s#7#[.l.[.:+$+| _ ] $ $ # @ t#",
"' ' % b ^ ^ ^ b p q :+%+l.v@q#u#v#w#x#y#z#A#B#C#D#E#F#G#H#I#J#K#L#M#N#O#P#[.[.l.:+r [ } } | # @ & - ",
"% % ' ^ ' Q#p b c $+:+J.l.R#S#T#U#V#W#X#Y#Z#`# $.$+$@$#$$$%$&$*$=$-$;$>$,$l.[.[.q [ } } } x@# @ * * ",
"% ' ' ^ ' ' ^ _ p q $+k.[.'$)$!$~${$]$^$/$($_$:$<$[$}$|$1$2$3$4$5$6$7$8$v@[.[.W+[ } } / _ ] # # & - ",
"' < ^ ' ' ' ' < c r r J.[.9$0$a$b$c$d$e$f$g$h$i$j$j$k$l$m$n$o$p$q$r$s$t$u$B+[.W+r [ [ $ $ $ # # & * ",
"$ ' ' ' ' < Q#' p r [ v$l.w$x$y$z$A$B$C$D$E$F$G$H$H$I$J$1$n$K$L$M$N$O$5#P$[.[.W+r } } # @ # # @ & & ",
"@ % % $ % % ' ' p r q J.l.K.L.Q$R$S$T$U$V$W$X$Y$Z$`$ %.%1$n$+%@%#%$%%%&%x+U@ .*%} } } $ @ # # @ @ & ",
"@ # % % % % ' ^ p r $+U@l.K.=%-%;%>%,%'%)%!%~%{%]%]%^%/%m$(%_%:%<%[%u$'#..r r [ } | | $ # @ @ @ # @ ",
"& # $ % ' % ' ^ < q $+k.l.K.=%}%|%1%2%3%4%5%6%7%8%8%8%8%9%0%a%b%c%q#d%e%..f%[ r | x@x@# @ # @ # & @ ",
"* # % ' % ' ^ b c $+$+g%:+h%=%i%j%k%l%m%n%o%p%q%r%9%s%t%u%v%w%x%y%8$z%A%B%r [ } ] ] ] @ @ @ @ @ # $ ",
"- @ % ' Q#' ' ^ c $+$+q :+C%D%E%F%G%H%I%J%K%L%M%N%O%P%Q%R%S%T%U%V%W%X%Y%Z% .} | $ # @ @ # & * # # # ",
"@ $ % ' ' % % ^ c r r r r #+=%`% &.&+&@&#&$&%&&&*&=&-&;&>&,&'&)&!&~&{&]&^&[ } x@$ # # & & & * # # & ",
"@ $ % ' ' ^ ^ ^ b ^ < ^ p /&(&_&:&<&[&}&|&1&2&3&4&5&6&7&8&9&0&a&b& &c&d&e&$ # @ # # @ * & @ * * @ # ",
"@ % ' ' ^ ' ' % ' ^ ' ^ ^ f&d&g&h&i&j&k&l&m&n&o&p&q&r&s&t&u&v&w&x&y&z&A&B&$ # @ @ & & * & # @ @ @ * ",
"@ $ ' ^ ' ^ ' % ^ ^ ' $ % C&D&E&F&G&H&I&J&K&L&M&N&O&P&Q&R&S&T&U&V&W&X&Y&2 ] # # @ & @ & & & @ @ # & ",
"$ % % % ^ ' ' % ' ' ' % % Z&`& *.*+*@*#*$*%*H &***=*=***4 -*;*>*,*&*(.'*& @ @ # & * & & @ & @ @ & * ",
"% ^ % ' % % ' ' ' % % % $ $ $ % % / _ ] # # # x@x@:.x@1 | } } :.| | ] # # @ @ @ & & & * & @ & & * & ",
"@ $ ' ^ % ' ' ' ' ' % % ' % $ $ % )*@ !*@ & & :.:.:.x@:.:.x@x@| | ] @ # @ @ @ & # # # @ & @ @ # @ - ",
"@ $ ' ' ' ' $ $ $ $ $ % % % $ $ $ $ # $ # @ & & @ @ @ @ @ @ $ $ $ I $ # @ & & & @ # @ # & # @ @ & * ",
"@ $ % ' ' % % ' ' % ' ' % $ % $ $ @ @ @ # # # & & @ @ @ @ $ # # # @ & @ & & @ # @ & @ @ & & @ & & * ",
"* # % $ % % % ' % ' ' % $ % $ $ @ @ # & @ & & @ * * & & & @ # @ @ & * @ @ @ @ @ @ & @ * & @ @ * ~*- ",
") & $ % % ^ ' ^ ^ % ' ' % % $ # # # # @ @ & & & - - * * & @ I & * & & & @ # # @ # @ @ & & # @ * * {*",
") * # % % ' ^ ^ % ' ' % ' $ # # # # & & & & & & * & * * * * * * & & * @ # # @ @ & @ @ @ @ @ & * * ]*",
"^*/*- @ % % % % $ $ % $ $ @ * (*_** * @ & @ @ & & & * = ) ; = :*:*:*- & * - - & & & @ & & - = = <*  ",
"[*<*}*- t#& # $ $ % @ & * * :*|*]*= * & @ @ & & & * = ; 1*1*1*2*|*[*1*; ; = = = = - - * = = ) = 3*|*"};
