/* XPM */
static char * fundo_xpm[] = {
"50 50 111 2",
"  	c #94BC52",
". 	c #97BF55",
"+ 	c #99C157",
"@ 	c #9BC057",
"# 	c #9CC158",
"$ 	c #9DC259",
"% 	c #9EC35A",
"& 	c #9ABF56",
"* 	c #99BE55",
"= 	c #97BC53",
"- 	c #98BD54",
"; 	c #95BA51",
"> 	c #93B84F",
", 	c #9BC158",
"' 	c #9FC45B",
") 	c #96BB52",
"! 	c #9BBF56",
"~ 	c #9CBF57",
"{ 	c #9DC158",
"] 	c #9CC159",
"^ 	c #A0C55C",
"/ 	c #9EC35B",
"( 	c #99BE56",
"_ 	c #9DC25A",
": 	c #9DC159",
"< 	c #9FC45C",
"[ 	c #9FC45D",
"} 	c #9EC35C",
"| 	c #9DC25B",
"1 	c #A1C65D",
"2 	c #A1C65E",
"3 	c #9FC45E",
"4 	c #9FC35E",
"5 	c #9EC35D",
"6 	c #9DC25C",
"7 	c #A0C55D",
"8 	c #A1C65F",
"9 	c #A0C55E",
"0 	c #A0C460",
"a 	c #9FC35F",
"b 	c #A1C561",
"c 	c #A0C560",
"d 	c #A2C760",
"e 	c #A2C661",
"f 	c #A2C662",
"g 	c #A0C55F",
"h 	c #A1C661",
"i 	c #A2C762",
"j 	c #A3C763",
"k 	c #A1C560",
"l 	c #A1C660",
"m 	c #A3C762",
"n 	c #A4C864",
"o 	c #A3C862",
"p 	c #A4C763",
"q 	c #A5C864",
"r 	c #A2C561",
"s 	c #A3C662",
"t 	c #A2C761",
"u 	c #A6C965",
"v 	c #A3C861",
"w 	c #A4C962",
"x 	c #9BC058",
"y 	c #98BF55",
"z 	c #9DC359",
"A 	c #9FC25A",
"B 	c #A2C75F",
"C 	c #A4C963",
"D 	c #A5C965",
"E 	c #9EC25E",
"F 	c #97C056",
"G 	c #A0C35B",
"H 	c #98C056",
"I 	c #A0C45B",
"J 	c #A4C863",
"K 	c #A6CA66",
"L 	c #A7CA66",
"M 	c #9CC15A",
"N 	c #A5C865",
"O 	c #9ABF57",
"P 	c #A0C45C",
"Q 	c #A4C663",
"R 	c #9FC35D",
"S 	c #A5C763",
"T 	c #A3C562",
"U 	c #A3C761",
"V 	c #A1C460",
"W 	c #A0C461",
"X 	c #A0C45E",
"Y 	c #9EC35E",
"Z 	c #9DC25D",
"` 	c #9DC15D",
" .	c #9EC25D",
"..	c #9BC059",
"+.	c #9DC258",
"@.	c #9CC157",
"#.	c #9ABE55",
"$.	c #99BD55",
"%.	c #95BC52",
"&.	c #95BB51",
"*.	c #96BC52",
"=.	c #98BE55",
"-.	c #99BF55",
";.	c #97BD54",
">.	c #96BD53",
",.	c #93BA50",
"'.	c #96BC53",
").	c #94BB51",
"!.	c #94B950",
"~.	c #93B950",
"{.	c #95BB52",
"  . + @ # $ $ $ # # % $ # % % $ $ @ & * * * * = * & & * * * * & * = = - * & @ @ # # # @ @ & * * ; > ",
"* , , # $ $ % ' % ' ' ' % % $ $ $ # # @ @ @ # @ & & @ @ # @ @ @ & * * * * @ # $ # # @ # @ # & & * ) ",
"! ~ { % % $ % ' ' % ' % % % $ $ % $ % $ $ # # # # # # @ # # ] # @ & & # # @ # $ @ & # $ # # # & & = ",
"@ $ % ' ' ^ ^ ^ ^ ' ' ' % / % % ' ' $ % % $ $ $ # @ # @ @ # $ # # # $ # # $ $ # @ # $ $ $ $ # # & & ",
"# % ' ' ^ ' ' ' ' ' ^ ' ' % % % % % # # % $ % $ # @ # @ @ $ # # # @ # @ @ # $ # $ % # # $ # # # # ( ",
"$ % ' ^ ^ % $ ' ' ^ ' / % % % % % / _ % $ $ ] $ ] # $ $ % # @ # # $ $ # % $ # $ ' % $ # $ : # # # $ ",
"# % ' ^ ' ' ' ' ' ' ^ ' % ' % % % < [ } } } | } } < $ $ $ % % $ $ $ $ $ % $ $ $ $ $ % $ $ $ # $ # $ ",
"@ % ^ ' % ^ ' % % % ' ' ' ' ^ ' ^ } } [ } | } } } _ # $ # $ # % ' % $ # $ $ $ # $ % $ # # $ $ $ # $ ",
"& % ^ ' ' ' ^ % ' ' 1 ^ ^ 1 < ' 2 3 4 3 4 3 3 4 5 6 _ _ ] _ _ $ % % $ $ # $ @ # # $ $ % $ $ $ $ $ $ ",
"# % ' ^ < ' ^ ^ ' ^ ^ 7 [ [ 8 8 9 0 a 0 0 b 0 0 b c [ [ [ } 3 / % % # $ $ % $ # % $ # $ $ $ $ @ $ # ",
"@ $ % ' ' ^ % ' 1 1 1 2 8 8 8 d d e f 0 0 b 0 f b b 9 9 [ [ } ' % % % $ $ % $ $ # # # $ # # $ $ # # ",
"@ $ % ' ' ' ' ' 1 7 2 g h i e e e j b f f b j f f f h g k e 3 9 [ < | | ] $ % # $ % % # $ $ $ # @ & ",
"& $ ' ' ' ' ' ' 7 8 8 k f f j f j j b f j f f f b b b 0 0 b b l 9 [ [ } } $ % ' $ $ $ $ _ $ # # @ @ ",
"* @ # % ' % ^ 1 7 8 8 m j n n j j f f j f j j f b b f f f b b g 8 [ 9 } } % % % ' ] @ @ # @ @ & & & ",
"* $ ' ' ' ' 1 ^ 7 8 8 o j j j j p q n p r s j j s s f s s p n s e k 4 a 4 [ < } % % $ # # @ # @ * & ",
"* $ % ' ' ' 1 ^ 7 d d t j j p q u q q p p s p s s s s s s q s s f b b 0 a [ [ } $ % $ # @ @ @ & # - ",
"* $ ' ^ % ' ^ 1 2 v w o j j q q q p q q q s p q s p p s s s s s b b f 0 a [ [ } $ $ $ # x # @ # @ - ",
"y z A ' ' ^ ' ^ B d w C D n D q q u u q p p q s p q p s s s s s s p f b f 0 a E < } [ % # & @ @ & * ",
"F z G ^ ' ^ ' ^ 2 8 v o n n D u q p q p q p p s s p s q p q q q p p f f f b b b [ [ < % $ # @ # @ * ",
"H # I ^ ^ ^ ' ^ 1 d d m n D u u u q p p q u p s s s p p s q q q q p n f b 0 0 b [ [ } $ $ # @ @ @ * ",
"= @ % % % $ ' 1 7 9 d J D n K L q p q p p p s s p p q r p p q q q p p s r f f 0 [ [ _ # # $ # @ @ @ ",
"* @ $ $ % % < ^ 7 8 v m n j q q q q q p p p p p p p p p u q p s p q q s s s n b [ } M # $ # # # & & ",
"& $ ' % % ' ^ 1 2 d w J n j p q q p p q q q q p p s r q u q q r p p p p p f b f 8 9 } $ # $ # # # @ ",
"@ ' % % ' ' ' ^ B d v e f n u q q q p p p p q q p p p q q q q p p s p q p j b b d 8 [ % $ # # # @ * ",
"# $ ' ' ' ' ^ ^ 7 d d k f j u L q p q p p p q q q p p p s q u q q q q p q j b f d 8 / $ # $ $ @ # * ",
"% % ' ' ' ^ ^ ^ 2 d v J f j n N q p q q s p p p q s p p s q u u q q u u p f j f v d | _ ] $ $ # @ O ",
"' ' % 1 ^ ^ ^ 1 7 8 v t j j p q q p q p q p p p p p p s s p u L u u p q p f f j v 9 [ } } | # @ & - ",
"% % ' ^ ' P 7 1 2 d v o j j q q L u q q s p p p p p s s s s q q u p s p p j f f 8 [ } } } M # @ * * ",
"% ' ' ^ ' ' ^ _ 7 8 d m f j n p q q q u q p q p q q p p s s p p u q p r s f f b [ } } / _ ] # # & - ",
"' < ^ ' ' ' ' < 2 9 9 o f n q q q p q q p p p q q p p s r q u u p q s r s n f b 9 [ [ $ $ $ # # & * ",
"$ ' ' ' ' < P ' 7 9 [ i j f n q p p q q p r s q q q s s p q p p p q p s s f f b 9 } } # @ # # @ & & ",
"@ % % $ % % ' ' 7 9 8 o j j j p n q q q p p p p q p s s p u u q q q Q s e e g R } } } $ @ # # @ @ & ",
"@ # % % % % ' ^ 7 9 d e j j j j D q q p p s p p q s s p q q p s p s S s h 9 9 [ } | | $ # @ @ @ # @ ",
"& # $ % ' % ' ^ < 8 d m j j j f j p p q p p p s s p s p p u p s p p T r h 3 [ 9 | M M # @ # @ # & @ ",
"* # % ' % ' ^ 1 2 d d U v t f j f f j j j s f r r r b j j j n j f f r b c 9 [ } ] ] ] @ @ @ @ @ # $ ",
"- @ % ' P ' ' ^ 2 d d 8 v v e j f f f f f 0 V r r b b 0 f j j f 0 b b 0 0 g } | $ # @ @ # & * # # # ",
"@ $ % ' ' % % ^ 2 9 9 9 9 8 i b 0 W b b b 0 r r r r 0 0 b b f j f f 0 0 0 [ } M $ # # & & & * # # & ",
"@ $ % ' ' ^ ^ ^ 1 ^ < ^ 7 ^ 7 9 8 3 8 9 a 0 0 8 g X a b a a 0 f b 0 g 3 | $ # @ # # @ * & @ * * @ # ",
"@ % ' ' ^ ' ' % ' ^ ' ^ ^ ^ 9 [ 9 9 [ 9 a E E [ 9 g 0 0 0 b 0 0 b a 5 } } $ # @ @ & & * & # @ @ @ * ",
"@ $ ' ^ ' ^ ' % ^ ^ ' $ % % / } [ } } } Y Z ` [ [ 3 Y a E a 0 0 0 E 5 } | ] # # @ & @ & & & @ @ # & ",
"$ % % % ^ ' ' % ' ' ' % % ' % % %  . .6 $ # % } | | | | | | } | } } _ ] @ @ @ # & * & & @ & @ @ & * ",
"% ^ % ' % % ' ' ' % % % $ $ $ % % / _ ] # # # M M ..M 6 | } } ..| | ] # # @ @ @ & & & * & @ & & * & ",
"@ $ ' ^ % ' ' ' ' ' % % ' % $ $ % +.@ @.@ & & ......M ....M M | | ] @ # @ @ @ & # # # @ & @ @ # @ - ",
"@ $ ' ' ' ' $ $ $ $ $ % % % $ $ $ $ # $ # @ & & @ @ @ @ @ @ $ $ $ x $ # @ & & & @ # @ # & # @ @ & * ",
"@ $ % ' ' % % ' ' % ' ' % $ % $ $ @ @ @ # # # & & @ @ @ @ $ # # # @ & @ & & @ # @ & @ @ & & @ & & * ",
"* # % $ % % % ' % ' ' % $ % $ $ @ @ # & @ & & @ * * & & & @ # @ @ & * @ @ @ @ @ @ & @ * & @ @ * #.- ",
") & $ % % ^ ' ^ ^ % ' ' % % $ # # # # @ @ & & & - - * * & @ x & * & & & @ # # @ # @ @ & & # @ * * $.",
") * # % % ' ^ ^ % ' ' % ' $ # # # # & & & & & & * & * * * * * * & & * @ # # @ @ & @ @ @ @ @ & * * %.",
"&.*.- @ % % % % $ $ % $ $ @ * =.-.* * @ & @ @ & & & * = ) ; = ;.;.;.- & * - - & & & @ & & - = = >.  ",
",.>.'.- O & # $ $ % @ & * * ;.).%.= * & @ @ & & & * = ; !.!.!.~.).,.!.; ; = = = = - - * = = ) = {.)."};
