/* XPM */
static char * Sem título_xpm[] = {
"50 50 702 2",
"  	c #94BC52",
". 	c #97BF55",
"+ 	c #99C157",
"@ 	c #9BC057",
"# 	c #9CC158",
"$ 	c #9DC259",
"% 	c #9EC35A",
"& 	c #9ABF56",
"* 	c #99BE55",
"= 	c #97BC53",
"- 	c #98BD54",
"; 	c #95BA51",
"> 	c #93B84F",
", 	c #9BC158",
"' 	c #9FC45B",
") 	c #96BB52",
"! 	c #9BBF56",
"~ 	c #9CBF57",
"{ 	c #9DC158",
"] 	c #9CC159",
"^ 	c #A0C55C",
"/ 	c #9EC35B",
"( 	c #99BE56",
"_ 	c #9DC15A",
": 	c #9ABF58",
"< 	c #9BC058",
"[ 	c #9ABF57",
"} 	c #99BE57",
"| 	c #98BD55",
"1 	c #9BBF57",
"2 	c #9DC159",
"3 	c #9CC059",
"4 	c #94B755",
"5 	c #8BAB51",
"6 	c #85A54D",
"7 	c #86A64D",
"8 	c #85A54C",
"9 	c #87A64D",
"0 	c #85A54B",
"a 	c #89AA4D",
"b 	c #92B553",
"c 	c #9BBF58",
"d 	c #99BC58",
"e 	c #83A24B",
"f 	c #68813B",
"g 	c #5A7133",
"h 	c #597032",
"i 	c #5B7233",
"j 	c #5A7132",
"k 	c #5A7031",
"l 	c #5A7131",
"m 	c #596F30",
"n 	c #68813A",
"o 	c #83A34A",
"p 	c #97BB56",
"q 	c #A1C65D",
"r 	c #9DC15B",
"s 	c #98BC57",
"t 	c #8DAE52",
"u 	c #708940",
"v 	c #495527",
"w 	c #302D14",
"x 	c #332C14",
"y 	c #393116",
"z 	c #3D3217",
"A 	c #3F3317",
"B 	c #413318",
"C 	c #413317",
"D 	c #3F3216",
"E 	c #3D3216",
"F 	c #2F2C14",
"G 	c #485425",
"H 	c #6F883D",
"I 	c #8BAB4E",
"J 	c #96BA55",
"K 	c #9FC45C",
"L 	c #A0C55D",
"M 	c #9FC45D",
"N 	c #97BA59",
"O 	c #85A54E",
"P 	c #596631",
"Q 	c #42391D",
"R 	c #432516",
"S 	c #4D2B19",
"T 	c #562F1B",
"U 	c #5E331C",
"V 	c #63351D",
"W 	c #66371D",
"X 	c #42391C",
"Y 	c #58662E",
"Z 	c #81A048",
"` 	c #93B653",
" .	c #A1C65E",
"..	c #A1C65F",
"+.	c #9CC05C",
"@.	c #8AAA51",
"#.	c #69823D",
"$.	c #4A5728",
"%.	c #423B1E",
"&.	c #4B321D",
"*.	c #56321E",
"=.	c #633821",
"-.	c #6E3D24",
";.	c #784226",
">.	c #7F4627",
",.	c #824728",
"'.	c #4A321C",
").	c #413A1C",
"!.	c #485525",
"~.	c #678039",
"{.	c #86A64B",
"].	c #98BC56",
"^.	c #9DC15D",
"/.	c #97B95A",
"(.	c #8BAB53",
"_.	c #748E44",
":.	c #50612E",
"<.	c #2E2614",
"[.	c #3C2316",
"}.	c #4E2E1C",
"|.	c #5A3520",
"1.	c #653A23",
"2.	c #6F3F25",
"3.	c #7B4428",
"4.	c #834929",
"5.	c #874B2A",
"6.	c #2D2614",
"7.	c #4D5F2B",
"8.	c #708B40",
"9.	c #86A64C",
"0.	c #9ABC5B",
"a.	c #86A450",
"b.	c #6A823E",
"c.	c #393E1F",
"d.	c #2F1D14",
"e.	c #402619",
"f.	c #4E2E1D",
"g.	c #56321F",
"h.	c #5B3520",
"i.	c #633922",
"j.	c #703F25",
"k.	c #7A4428",
"l.	c #7E4729",
"m.	c #383E1D",
"n.	c #4E5F2B",
"o.	c #67803A",
"p.	c #82A149",
"q.	c #97BA56",
"r.	c #9DC25A",
"s.	c #98BA5B",
"t.	c #799448",
"u.	c #495B2B",
"v.	c #222211",
"w.	c #261811",
"x.	c #332016",
"y.	c #40271A",
"z.	c #4A2C1C",
"A.	c #512F1D",
"B.	c #57321F",
"C.	c #633822",
"D.	c #6D3D24",
"E.	c #724025",
"F.	c #212110",
"G.	c #475827",
"H.	c #759142",
"I.	c #94B754",
"J.	c #769046",
"K.	c #3E4D23",
"L.	c #180F0B",
"M.	c #271812",
"N.	c #321F16",
"O.	c #3A2419",
"P.	c #402719",
"Q.	c #442618",
"R.	c #452415",
"S.	c #4A2514",
"T.	c #532A16",
"U.	c #5B2E19",
"V.	c #5E301A",
"W.	c #3C4B21",
"X.	c #738E42",
"Y.	c #9EC35C",
"Z.	c #A2C760",
"`.	c #97BA5A",
" +	c #769147",
".+	c #425125",
"++	c #261812",
"@+	c #2F1E16",
"#+	c #311F16",
"$+	c #372318",
"%+	c #462E1F",
"&+	c #553A27",
"*+	c #5F412C",
"=+	c #63432D",
"-+	c #64442D",
";+	c #65442D",
">+	c #404F24",
",+	c #738F42",
"'+	c #94B757",
")+	c #A3C861",
"!+	c #A4C962",
"~+	c #98BB5B",
"{+	c #779247",
"]+	c #190F0B",
"^+	c #2C1C15",
"/+	c #221211",
"(+	c #31231B",
"_+	c #5F4C37",
":+	c #876D4F",
"<+	c #9B7E5B",
"[+	c #9F815E",
"}+	c #9E805D",
"|+	c #749043",
"1+	c #98BF55",
"2+	c #9DC359",
"3+	c #9FC25A",
"4+	c #A2C75F",
"5+	c #99BC5C",
"6+	c #789349",
"7+	c #425126",
"8+	c #2C1B14",
"9+	c #1C080B",
"0+	c #3E2F22",
"a+	c #816A4D",
"b+	c #B7986F",
"c+	c #D2AF81",
"d+	c #D8B484",
"e+	c #D6B383",
"f+	c #415125",
"g+	c #759045",
"h+	c #94B658",
"i+	c #9EC25E",
"j+	c #97C056",
"k+	c #A0C35B",
"l+	c #789348",
"m+	c #150D0A",
"n+	c #251711",
"o+	c #3B2517",
"p+	c #4E3016",
"q+	c #72502E",
"r+	c #A68257",
"s+	c #D6AD7A",
"t+	c #EFC48C",
"u+	c #F5C990",
"v+	c #F3C78F",
"w+	c #759046",
"x+	c #96B85A",
"y+	c #A1C561",
"z+	c #98C056",
"A+	c #A0C45B",
"B+	c #425226",
"C+	c #030609",
"D+	c #1B1310",
"E+	c #52361A",
"F+	c #865823",
"G+	c #B07736",
"H+	c #D09554",
"I+	c #EAB06F",
"J+	c #F8BF7D",
"K+	c #FBC17F",
"L+	c #F9BF7D",
"M+	c #415025",
"N+	c #95B759",
"O+	c #A0C55E",
"P+	c #99BB5C",
"Q+	c #0D0408",
"R+	c #2B1811",
"S+	c #6B4829",
"T+	c #AD7844",
"U+	c #D89856",
"V+	c #EAA55D",
"W+	c #EFAA60",
"X+	c #F2AD61",
"Y+	c #F4AF63",
"Z+	c #F6B165",
"`+	c #F6B166",
" @	c #425025",
".@	c #769146",
"+@	c #97B95B",
"@@	c #A0C460",
"#@	c #434F25",
"$@	c #351406",
"%@	c #572C18",
"&@	c #895D44",
"*@	c #C09272",
"=@	c #E4B28B",
"-@	c #E9B385",
";@	c #DDA168",
">@	c #D99752",
",@	c #E4A35A",
"'@	c #F1B169",
")@	c #F7B66F",
"!@	c #434F24",
"~@	c #99BA5D",
"{@	c #9CC15A",
"]@	c #99BA5C",
"^@	c #475126",
"/@	c #502104",
"(@	c #7A3D1F",
"_@	c #A2705C",
":@	c #CAA999",
"<@	c #E1C8B9",
"[@	c #D6BEAD",
"}@	c #B4947C",
"|@	c #A97D4F",
"1@	c #CA9B62",
"2@	c #EBBA7F",
"3@	c #F8C689",
"4@	c #A2C662",
"5@	c #99BB5B",
"6@	c #7E9B4B",
"7@	c #5E6E35",
"8@	c #654C1D",
"9@	c #864B24",
"0@	c #A87767",
"a@	c #CAB4AD",
"b@	c #DCD4D1",
"c@	c #C6C4C3",
"d@	c #8F8B89",
"e@	c #7A6650",
"f@	c #B69669",
"g@	c #E7C18D",
"h@	c #F9D199",
"i@	c #864B23",
"j@	c #654B1D",
"k@	c #5E6D34",
"l@	c #7F9B4C",
"m@	c #9CBF5D",
"n@	c #90B057",
"o@	c #809B4C",
"p@	c #797F3D",
"q@	c #7B612B",
"r@	c #947467",
"s@	c #C0B4B1",
"t@	c #D9D8D8",
"u@	c #C3C7C9",
"v@	c #82888C",
"w@	c #675E4F",
"x@	c #AF946A",
"y@	c #E6C390",
"z@	c #F9D39D",
"A@	c #7B602A",
"B@	c #787E3C",
"C@	c #829C4D",
"D@	c #91B157",
"E@	c #9CBF5E",
"F@	c #95B55A",
"G@	c #819B4C",
"H@	c #646D34",
"I@	c #746C63",
"J@	c #B0ACAA",
"K@	c #D3D1D1",
"L@	c #C4C3C3",
"M@	c #8E8A89",
"N@	c #656E34",
"O@	c #829B4D",
"P@	c #96B55A",
"Q@	c #A1C562",
"R@	c #9DC25B",
"S@	c #99BB5D",
"T@	c #8CAC55",
"U@	c #769248",
"V@	c #506F40",
"W@	c #5C6B61",
"X@	c #9F9C98",
"Y@	c #C7BBB7",
"Z@	c #C6B2AB",
"`@	c #AD8E7B",
" #	c #AA7E51",
".#	c #CC9D64",
"+#	c #EDBC80",
"@#	c #F9C78A",
"##	c #4F6E40",
"$#	c #779349",
"%#	c #8DAC55",
"&#	c #98BA5C",
"*#	c #A0C361",
"=#	c #A3C763",
"-#	c #A0C45C",
";#	c #9CC05E",
">#	c #88A652",
",#	c #6B8542",
"'#	c #507041",
")#	c #32684D",
"!#	c #4E705F",
"~#	c #8B8377",
"{#	c #B49285",
"]#	c #C6967D",
"^#	c #CE9364",
"/#	c #D79752",
"(#	c #E6A55C",
"_#	c #F2B26A",
":#	c #F8B770",
"<#	c #32684C",
"[#	c #6C8542",
"}#	c #9BBE5E",
"|#	c #9FC35E",
"1#	c #9BBF5C",
"2#	c #8FAF56",
"3#	c #708C47",
"4#	c #446139",
"5#	c #155443",
"6#	c #006857",
"7#	c #407360",
"8#	c #73705B",
"9#	c #9B6F53",
"0#	c #BA7C4F",
"a#	c #D48F4E",
"b#	c #E49B4F",
"c#	c #E9A051",
"d#	c #EAA153",
"e#	c #EAA254",
"f#	c #145443",
"g#	c #8EAE56",
"h#	c #9ABD5D",
"i#	c #9DC15C",
"j#	c #96B958",
"k#	c #85A44D",
"l#	c #718D47",
"m#	c #517245",
"n#	c #275F4A",
"o#	c #006354",
"p#	c #007160",
"q#	c #2D7763",
"r#	c #54725B",
"s#	c #766B4F",
"t#	c #997148",
"u#	c #B87D44",
"v#	c #C98442",
"w#	c #CB8440",
"x#	c #C9833F",
"y#	c #C8823E",
"z#	c #275E4A",
"A#	c #527346",
"B#	c #708B47",
"C#	c #85A450",
"D#	c #9BBF5A",
"E#	c #8CAA50",
"F#	c #70833C",
"G#	c #566437",
"H#	c #456348",
"I#	c #3A6F59",
"J#	c #2C7560",
"K#	c #1B7663",
"L#	c #187663",
"M#	c #297662",
"N#	c #45735E",
"O#	c #686E55",
"P#	c #876745",
"Q#	c #976138",
"R#	c #9B6035",
"S#	c #996036",
"T#	c #71843F",
"U#	c #99BD59",
"V#	c #95B755",
"W#	c #8CAA4F",
"X#	c #8A9646",
"Y#	c #8E7B3A",
"Z#	c #906B3A",
"`#	c #93794D",
" $	c #8E855C",
".$	c #7B815E",
"+$	c #53735A",
"@$	c #1B6957",
"#$	c #006A5A",
"$$	c #0A6D5B",
"%$	c #3C6957",
"&$	c #5C614D",
"*$	c #6B5B45",
"=$	c #6F5943",
"-$	c #6E5A44",
";$	c #8D7A39",
">$	c #899445",
",$	c #8AA84F",
"'$	c #94B756",
")$	c #9ABE57",
"!$	c #98BB57",
"~$	c #84A34B",
"{$	c #71843D",
"]$	c #8D7B3A",
"^$	c #B68540",
"/$	c #CE8F49",
"($	c #D49852",
"_$	c #CE9957",
":$	c #B28A52",
"<$	c #7B6A46",
"[$	c #2D4F3F",
"}$	c #005045",
"|$	c #005C4E",
"1$	c #216353",
"2$	c #396856",
"3$	c #446B58",
"4$	c #476C59",
"5$	c #466C59",
"6$	c #6F823B",
"7$	c #82A14A",
"8$	c #96B955",
"9$	c #779343",
"0$	c #585E2A",
"a$	c #906430",
"b$	c #CE8D45",
"c$	c #EDA351",
"d$	c #F4A754",
"e$	c #EAA051",
"f$	c #CA8A46",
"g$	c #8C6031",
"h$	c #353323",
"i$	c #003630",
"j$	c #004D42",
"k$	c #095D4F",
"l$	c #136A59",
"m$	c #18715F",
"n$	c #197361",
"o$	c #187360",
"p$	c #90642F",
"q$	c #575D29",
"r$	c #749041",
"s$	c #92B552",
"t$	c #738E41",
"u$	c #505023",
"v$	c #91632F",
"w$	c #D39047",
"x$	c #F4A653",
"y$	c #F8A552",
"z$	c #EA984B",
"A$	c #C9803D",
"B$	c #8B5526",
"C$	c #352818",
"D$	c #00302B",
"E$	c #00493E",
"F$	c #00574A",
"G$	c #006152",
"H$	c #006757",
"I$	c #006858",
"J$	c #4E4E21",
"K$	c #6F8A3E",
"L$	c #90B350",
"M$	c #595F2A",
"N$	c #906530",
"O$	c #EA9F4F",
"P$	c #EA994C",
"Q$	c #DA8743",
"R$	c #B96F36",
"S$	c #7F4A23",
"T$	c #30281B",
"U$	c #00332D",
"V$	c #00483D",
"W$	c #005145",
"X$	c #005548",
"Y$	c #005649",
"Z$	c #005749",
"`$	c #90652F",
" %	c #575D28",
".%	c #738F3F",
"+%	c #91B451",
"@%	c #71853D",
"#%	c #8E7C3A",
"$%	c #B78540",
"%%	c #CA8843",
"&%	c #C7803F",
"*%	c #B86E37",
"=%	c #9B592B",
"-%	c #6A3B1B",
";%	c #272218",
">%	c #002F29",
",%	c #004238",
"'%	c #004A3F",
")%	c #004D41",
"!%	c #004F43",
"~%	c #8D7B39",
"{%	c #6E8139",
"]%	c #93B652",
"^%	c #96B856",
"/%	c #8DAB4F",
"(%	c #8A9645",
"_%	c #8D612E",
":%	c #895729",
"<%	c #7E4A23",
"[%	c #6A3A1B",
"}%	c #472610",
"|%	c #181912",
"1%	c #002721",
"2%	c #00372F",
"3%	c #004138",
"4%	c #004E42",
"5%	c #8D612D",
"6%	c #8C7937",
"7%	c #889343",
"8%	c #88A64B",
"9%	c #96BA53",
"0%	c #9ABE58",
"a%	c #70833B",
"b%	c #585F2A",
"c%	c #505324",
"d%	c #4E5224",
"e%	c #42461E",
"f%	c #2B2E13",
"g%	c #0F160E",
"h%	c #0C2019",
"i%	c #122E25",
"j%	c #153A2F",
"k%	c #154539",
"l%	c #124A3E",
"m%	c #0C4B3F",
"n%	c #044A3E",
"o%	c #0F150E",
"p%	c #41451E",
"q%	c #505223",
"r%	c #88A64A",
"s%	c #96B953",
"t%	c #83A24A",
"u%	c #749141",
"v%	c #738F40",
"w%	c #718C3E",
"x%	c #607835",
"y%	c #3D4D21",
"z%	c #0D0F09",
"A%	c #1F1F13",
"B%	c #292C1C",
"C%	c #2D3525",
"D%	c #2D3D2C",
"E%	c #293F30",
"F%	c #1E3D30",
"G%	c #0D392F",
"H%	c #607836",
"I%	c #708B3F",
"J%	c #728D3F",
"K%	c #749040",
"L%	c #92B453",
"M%	c #7E9C47",
"N%	c #596F31",
"O%	c #323C19",
"P%	c #2F2E14",
"Q%	c #3E3C1C",
"R%	c #424020",
"S%	c #424322",
"T%	c #3E4122",
"U%	c #343C21",
"V%	c #273620",
"W%	c #1E331E",
"X%	c #27361F",
"Y%	c #333C21",
"Z%	c #3E4123",
"`%	c #434020",
" &	c #586E31",
".&	c #7C9A46",
"+&	c #8EB04F",
"@&	c #92B451",
"#&	c #95B854",
"$&	c #97BB54",
"%&	c #9CC058",
"&&	c #8DAF50",
"*&	c #617735",
"=&	c #607233",
"-&	c #667634",
";&	c #687735",
">&	c #687734",
",&	c #667633",
"'&	c #617432",
")&	c #5C7132",
"!&	c #5A7032",
"~&	c #597031",
"{&	c #627435",
"]&	c #667635",
"^&	c #697836",
"/&	c #657534",
"(&	c #607736",
"_&	c #8CAE4F",
":&	c #97BB55",
"<&	c #87A74C",
"[&	c #86A54A",
"}&	c #87A44A",
"|&	c #87A54A",
"1&	c #86A349",
"2&	c #84A348",
"3&	c #84A34A",
"4&	c #85A44B",
"5&	c #87A44B",
"6&	c #88A64C",
"7&	c #88A64D",
"8&	c #86A54C",
"9&	c #86A54B",
"0&	c #8BAD4E",
"a&	c #96BA54",
"b&	c #9ABE56",
"c&	c #99BD55",
"d&	c #97BC54",
"e&	c #98BD56",
"f&	c #9ABE55",
"g&	c #95BC52",
"h&	c #95BB51",
"i&	c #96BC52",
"j&	c #98BE55",
"k&	c #99BF55",
"l&	c #97BD54",
"m&	c #96BD53",
"n&	c #93BA50",
"o&	c #96BC53",
"p&	c #94BB51",
"q&	c #94B950",
"r&	c #93B950",
"s&	c #95BB52",
"  . + @ # $ $ $ # # % $ # % % $ $ @ & * * * * = * & & * * * * & * = = - * & @ @ # # # @ @ & * * ; > ",
"* , , # $ $ % ' % ' ' ' % % $ $ $ # # @ @ @ # @ & & @ @ # @ @ @ & * * * * @ # $ # # @ # @ # & & * ) ",
"! ~ { % % $ % ' ' % ' % % % $ $ % $ % $ $ # # # # # # @ # # ] # @ & & # # @ # $ @ & # $ # # # & & = ",
"@ $ % ' ' ^ ^ ^ ^ ' ' ' % / % % ' ' $ % % $ $ $ # @ # @ @ # $ # # # $ # # $ $ # @ # $ $ $ $ # # & & ",
"# % ' ' ^ ' ' ' ' ' ^ ' ' % % % % % # # % $ % $ # @ # @ @ $ # # # @ # @ @ # $ # $ % # # $ # # # # ( ",
"$ % ' ^ ^ % $ ' ' ^ ' / % % % % % _ : < [ [ } [ } ( [ [ < ( | } 1 $ $ # % $ # $ ' % $ # $ 2 # # # $ ",
"# % ' ^ ' ' ' ' ' ' ^ ' % ' % % 3 4 5 6 6 7 8 7 7 9 0 0 0 0 0 a b c $ $ % $ $ $ $ $ % $ $ $ # $ # $ ",
"@ % ^ ' % ^ ' % % % ' ' ' ' ^ ' d e f g h g i i i j k l k m m n o p $ # $ $ $ # $ % $ # # $ $ $ # $ ",
"& % ^ ' ' ' ^ % ' ' q ^ ^ q r s t u v w x y z A B C D E y x F G H I J c # $ @ # # $ $ % $ $ $ $ $ $ ",
"# % ' ^ K ' ^ ^ ' ^ ^ L M M N O u P Q R S T U V W W V U T S R X Y H Z ` $ % $ # % $ # $ $ $ $ @ $ # ",
"@ $ % ' ' ^ % ' q q q  ...+.@.#.$.%.&.*.=.-.;.>.,.,.>.;.-.=.*.'.).!.~.{.].% $ $ # # # $ # # $ $ # # ",
"@ $ % ' ' ' ' ' q L  .^./.(._.:.<.[.}.|.1.2.3.4.5.5.4.3.2.1.|.}.[.6.7.8.9.` c # $ % % # $ $ $ # @ & ",
"& $ ' ' ' ' ' ' L ....0.a.b.:.c.d.e.f.g.h.i.j.k.l.l.k.j.i.h.g.f.e.d.m.n.o.p.q.' $ $ $ $ r.$ # # @ @ ",
"* @ # % ' % ^ q L ....s.t.u.v.w.x.y.z.f.A.B.C.D.E.E.D.C.B.A.f.z.y.x.w.F.G.H.I.% ' ] @ @ # @ @ & & & ",
"* $ ' ' ' ' q ^ L ....s.J.K.L.M.N.O.P.Q.R.S.T.U.V.V.U.T.S.R.Q.P.O.N.M.L.W.X.4 Y.% % $ # # @ # @ * & ",
"* $ % ' ' ' q ^ L Z.Z.`. +.+L.++@+#+$+%+&+*+=+-+;+;+-+=+*+&+%+$+#+@+++L.>+,+'+Y.$ % $ # @ @ @ & # - ",
"* $ ' ^ % ' ^ q  .)+!+~+{+.+]+M.^+/+(+_+:+<+[+}+}+}+}+[+<+:+_+(+/+^+M.]+>+|+'+Y.$ $ $ # < # @ # @ - ",
"1+2+3+' ' ^ ' ^ 4+Z.!+5+6+7+]+M.8+9+0+a+b+c+d+e+e+e+e+d+c+b+a+0+9+8+M.]+f+g+h+i+K Y.M % # & @ @ & * ",
"j+2+k+^ ' ^ ' ^  ...)+~+l+7+m+n+o+p+q+r+s+t+u+v+v+v+v+u+t+s+r+q+p+o+n+m+f+w+x+y+M M K % $ # @ # @ * ",
"z+# A+^ ^ ^ ' ^ q Z.Z.s.l+B+C+D+E+F+G+H+I+J+K+L+J+J+L+K+J+I+H+G+F+E+D+C+M+g+N+y+M M Y.$ $ # @ @ @ * ",
"= @ % % % $ ' q L O+Z.P+6+7+Q+R+S+T+U+V+W+X+Y+Z+`+`+Z+Y+X+W+V+U+T+S+R+Q+ @.@+@@@M M r.# # $ # @ @ @ ",
"* @ $ $ % % K ^ L ..)+s.{+#@$@%@&@*@=@-@;@>@,@'@)@)@'@,@>@;@-@=@*@&@%@$@!@J.~@y+M Y.{@# $ # # # & & ",
"& $ ' % % ' ^ q  .Z.!+]@{+^@/@(@_@:@<@[@}@|@1@2@3@3@2@1@|@}@[@<@:@_@(@/@^@w+x+4@..O+Y.$ # $ # # # @ ",
"@ ' % % ' ' ' ^ 4+Z.)+5@6@7@8@9@0@a@b@c@d@e@f@g@h@h@g@f@e@d@c@b@a@0@i@j@k@l@s.y+Z...M % $ # # # @ * ",
"# $ ' ' ' ' ^ ^ L Z.Z.m@n@o@p@q@r@s@t@u@v@w@x@y@z@z@y@x@w@v@u@t@s@r@A@B@C@D@E@4@Z.../ $ # $ $ @ # * ",
"% % ' ' ' ^ ^ ^  .Z.)+4@E@F@G@H@I@J@K@L@M@e@f@g@h@h@g@f@e@M@L@K@J@I@N@O@P@E@Q@4@)+Z.R@r.] $ $ # @ [ ",
"' ' % q ^ ^ ^ q L ..)+@@S@T@U@V@W@X@Y@Z@`@ #.#+#@#@#+#.# #`@Z@Y@X@W@##$#%#&#*#=#)+O+M Y.Y.R@# @ & - ",
"% % ' ^ ' -#L q  .Z.)+;#>#,#'#)#!#~#{#]#^#/#(#_#:#:#_#(#/#^#]#{#~#!#<#'#[#>#}#4@..M Y.Y.Y.{@# @ * * ",
"% ' ' ^ ' ' ^ r.L |#1#2#3#4#5#6#7#8#9#0#a#b#c#d#e#e#d#c#b#a#0#9#8#7#6#f#4#3#g#h#i#Y.Y./ r.] # # & - ",
"' K ^ ' ' ' ' K  .j#k#l#m#n#o#p#q#r#s#t#u#v#w#x#y#y#x#w#v#u#t#s#r#q#p#o#z#A#B#C#j#M M $ $ $ # # & * ",
"$ ' ' ' ' K -#' D#E#F#G#H#I#J#K#L#M#N#O#P#Q#R#S#S#S#S#R#Q#P#O#N#M#L#K#J#I#H#G#T#E#U#Y.# @ # # @ & & ",
"@ % % $ % % 3 V#W#X#Y#Z#`# $.$+$@$#$$$%$&$*$=$-$-$-$-$=$*$&$%$$$#$@$+$.$ $`#Z#;$>$,$'$)$@ # # @ @ & ",
"@ # % % % % !$~${$]$^$/$($_$:$<$[$}$|$1$2$3$4$5$5$5$5$4$3$2$1$|$}$[$<$:$_$($/$^$;$6$7$8$# @ @ @ # @ ",
"& # $ % ' % V#9$0$a$b$c$d$e$f$g$h$i$j$k$l$m$n$o$o$o$o$n$m$l$k$j$i$h$g$f$e$d$c$b$p$q$r$s$@ # @ # & @ ",
"* # % ' % ' V#t$u$v$w$x$y$z$A$B$C$D$E$F$G$H$I$I$I$I$I$I$H$G$F$E$D$C$B$A$z$y$x$w$v$J$K$L$@ @ @ @ # $ ",
"- @ % ' -#' V#9$M$N$b$O$P$Q$R$S$T$U$V$W$X$Y$F$Z$Z$Z$Z$F$Y$X$W$V$U$T$S$R$Q$P$O$b$`$ %.%+%# & * # # # ",
"@ $ % ' ' % q.~$@%#%$%%%&%*%=%-%;%>%,%'%)%!%!%!%!%!%!%!%!%)%'%,%>%;%-%=%*%&%%%$%~%{%Z ]%& & * # # & ",
"@ $ % ' ' ^ _ ^%/%(%~%_%:%<%[%}%|%1%2%3%E$4%!%!%!%!%!%!%4%E$3%2%1%|%}%[%<%:%5%6%7%8%+%9%& @ * * @ # ",
"@ % ' ' ^ ' ' % 0%W#a%b%c%d%e%f%g%h%i%j%k%l%m%n%E$E$n%m%l%k%j%i%h%o%f%p%d%q% %{%r%s%& * & # @ @ @ * ",
"@ $ ' ^ ' ^ ' % ^ ^%t%u%v%w%x%y%z%A%B%C%D%E%F%G%2%2%G%F%E%D%C%B%A%z%y%H%I%J%K%Z +%& @ & & & @ @ # & ",
"$ % % % ^ ' ' % ' 3 !$I.I.L%M%N%O%P%Q%R%S%T%U%V%W%W%X%Y%Z%S%`%Q%P%O% &.&+&@&+%#&$&* & & @ & @ @ & * ",
"% ^ % ' % % ' ' ' % % % $ %&&&H.*&=&-&;&>&,&'&)&!&~&)&{&]&^&^&/&=&(&r$_&1 @ @ @ & & & * & @ & & * & ",
"@ $ ' ^ % ' ' ' ' ' % % ' % :&&&<&[&}&r%|&1&2&3&o o 4&4&5&6&6&7&8&9&0&a&@ @ @ & # # # @ & @ @ # @ - ",
"@ $ ' ' ' ' $ $ $ $ $ % % % # < [ )$b&1 b&c&d&d&| | | | c&c&1 1 )$e&< < @ & & & @ # @ # & # @ @ & * ",
"@ $ % ' ' % % ' ' % ' ' % $ % $ $ @ @ @ # # # & & @ @ @ @ $ # # # @ & @ & & @ # @ & @ @ & & @ & & * ",
"* # % $ % % % ' % ' ' % $ % $ $ @ @ # & @ & & @ * * & & & @ # @ @ & * @ @ @ @ @ @ & @ * & @ @ * f&- ",
") & $ % % ^ ' ^ ^ % ' ' % % $ # # # # @ @ & & & - - * * & @ < & * & & & @ # # @ # @ @ & & # @ * * c&",
") * # % % ' ^ ^ % ' ' % ' $ # # # # & & & & & & * & * * * * * * & & * @ # # @ @ & @ @ @ @ @ & * * g&",
"h&i&- @ % % % % $ $ % $ $ @ * j&k&* * @ & @ @ & & & * = ) ; = l&l&l&- & * - - & & & @ & & - = = m&  ",
"n&m&o&- [ & # $ $ % @ & * * l&p&g&= * & @ @ & & & * = ; q&q&q&r&p&n&q&; ; = = = = - - * = = ) = s&p&"};
