/* XPM */
static char * parede_xpm[] = {
"50 50 740 2",
"  	c #94BC52",
". 	c #97BF55",
"+ 	c #99C157",
"@ 	c #9BC057",
"# 	c #9CC158",
"$ 	c #9DC259",
"% 	c #9EC35A",
"& 	c #9ABF56",
"* 	c #99BE55",
"= 	c #97BC53",
"- 	c #98BD54",
"; 	c #95BA51",
"> 	c #93B84F",
", 	c #9BC158",
"' 	c #9FC45B",
") 	c #96B954",
"! 	c #82A149",
"~ 	c #607737",
"{ 	c #333E21",
"] 	c #100716",
"^ 	c #5F7637",
"/ 	c #82A14A",
"( 	c #96BB52",
"_ 	c #9BBF56",
": 	c #9CBF57",
"< 	c #9DC158",
"[ 	c #9CC159",
"} 	c #9ABE57",
"| 	c #92B553",
"1 	c #7F9E48",
"2 	c #627B37",
"3 	c #425326",
"4 	c #32411E",
"5 	c #627A37",
"6 	c #91B452",
"7 	c #99BD57",
"8 	c #9ABF57",
"9 	c #A0C55C",
"0 	c #9EC35B",
"a 	c #96BA55",
"b 	c #8EB051",
"c 	c #83A24A",
"d 	c #769442",
"e 	c #6A8639",
"f 	c #5E7B31",
"g 	c #5B782E",
"h 	c #698638",
"i 	c #759340",
"j 	c #8DAF50",
"k 	c #95B954",
"l 	c #9BBF58",
"m 	c #8CAE4F",
"n 	c #799644",
"o 	c #6A843C",
"p 	c #72943A",
"q 	c #789E3B",
"r 	c #7CA23C",
"s 	c #71933A",
"t 	c #698537",
"u 	c #6A833B",
"v 	c #99BD56",
"w 	c #99BE56",
"x 	c #9DC25A",
"y 	c #94B655",
"z 	c #809F4A",
"A 	c #667F3C",
"B 	c #526A30",
"C 	c #5F7E33",
"D 	c #799F3C",
"E 	c #89B442",
"F 	c #8FBC45",
"G 	c #516930",
"H 	c #647D3A",
"I 	c #7F9E49",
"J 	c #92B452",
"K 	c #9BC058",
"L 	c #9DC159",
"M 	c #97BA56",
"N 	c #8EAF51",
"O 	c #83A24C",
"P 	c #708C44",
"Q 	c #577339",
"R 	c #4C6A32",
"S 	c #638737",
"T 	c #7EA740",
"U 	c #8FBC46",
"V 	c #96C448",
"W 	c #577338",
"X 	c #6E8B41",
"Y 	c #81A04A",
"Z 	c #8DAE50",
"` 	c #96B955",
" .	c #9CC05A",
"..	c #7C9947",
"+.	c #66803D",
"@.	c #4F7139",
"#.	c #547C3B",
"$.	c #6A943F",
"%.	c #81AD44",
"&.	c #90BD46",
"*.	c #4E7039",
"=.	c #67813D",
"-.	c #7A9746",
";.	c #8CAE50",
">.	c #98BC56",
",.	c #A1C65D",
"'.	c #9ABD59",
").	c #87A64D",
"!.	c #6A823E",
"~.	c #4A5E2F",
"{.	c #405D2F",
"].	c #4B743A",
"^.	c #5D8C42",
"/.	c #709F45",
"(.	c #82B046",
"_.	c #8DBB47",
":.	c #92C047",
"<.	c #495E2D",
"[.	c #68803C",
"}.	c #85A54B",
"|.	c #9FC45C",
"1.	c #A0C55D",
"2.	c #9FC45D",
"3.	c #9CC05C",
"4.	c #86A54F",
"5.	c #62783A",
"6.	c #3B4C27",
"7.	c #3D5B2D",
"8.	c #537D3B",
"9.	c #659544",
"0.	c #74A547",
"a.	c #80B047",
"b.	c #88B747",
"c.	c #8BBA47",
"d.	c #3B4C26",
"e.	c #607637",
"f.	c #A1C65E",
"g.	c #A1C65F",
"h.	c #9CBF5C",
"i.	c #87A650",
"j.	c #62783B",
"k.	c #3D4E27",
"l.	c #43612D",
"m.	c #5B853B",
"n.	c #6C9C44",
"o.	c #76A847",
"p.	c #7CAD48",
"q.	c #82B247",
"r.	c #3C4D26",
"s.	c #83A34B",
"t.	c #98BB56",
"u.	c #9FC45F",
"v.	c #A0C560",
"w.	c #9FC360",
"x.	c #97B85A",
"y.	c #819F4E",
"z.	c #60763B",
"A.	c #40552B",
"B.	c #47682F",
"C.	c #5F893C",
"D.	c #6F9F44",
"E.	c #78AA47",
"F.	c #79AB47",
"G.	c #7AAB47",
"H.	c #3F542A",
"I.	c #5E7539",
"J.	c #7D9B49",
"K.	c #92B555",
"L.	c #A0C45F",
"M.	c #9BBD5E",
"N.	c #92B358",
"O.	c #86A452",
"P.	c #708C46",
"Q.	c #556E3A",
"R.	c #3D5B30",
"S.	c #476D35",
"T.	c #5D893E",
"U.	c #6B9C45",
"V.	c #72A447",
"W.	c #75A747",
"X.	c #77A947",
"Y.	c #3D5B2F",
"Z.	c #536D37",
"`.	c #6E8A43",
" +	c #82A14C",
".+	c #8EB053",
"++	c #A0C360",
"@+	c #93B359",
"#+	c #809C4E",
"$+	c #698242",
"%+	c #546E39",
"&+	c #426236",
"*+	c #3A6336",
"=+	c #45723B",
"-+	c #568641",
";+	c #639545",
">+	c #6C9E47",
",+	c #75A847",
"'+	c #416234",
")+	c #657F3D",
"!+	c #7B9848",
"~+	c #A0C55E",
"{+	c #9EC25D",
"]+	c #98BB5C",
"^+	c #85A351",
"/+	c #688040",
"(+	c #475B30",
"_+	c #33502D",
":+	c #335C34",
"<+	c #3B6C3B",
"[+	c #457840",
"}+	c #518443",
"|+	c #5C8E45",
"1+	c #669846",
"2+	c #6EA047",
"3+	c #73A547",
"4+	c #325C34",
"5+	c #334F2D",
"6+	c #45592F",
"7+	c #667D3D",
"8+	c #82A04C",
"9+	c #94B756",
"0+	c #9BBF5A",
"a+	c #9EC35C",
"b+	c #9ABE5B",
"c+	c #91B356",
"d+	c #85A350",
"e+	c #708A46",
"f+	c #526536",
"g+	c #304529",
"h+	c #2C4E2E",
"i+	c #396538",
"j+	c #44763F",
"k+	c #4B7F43",
"l+	c #528645",
"m+	c #598C46",
"n+	c #619346",
"o+	c #689A47",
"p+	c #6FA147",
"q+	c #2F4429",
"r+	c #506334",
"s+	c #6E8842",
"t+	c #82A14D",
"u+	c #8EAF53",
"v+	c #9DC15C",
"w+	c #92B357",
"x+	c #7F9C4C",
"y+	c #3B4E2E",
"z+	c #2A442C",
"A+	c #345833",
"B+	c #43703C",
"C+	c #4D7F42",
"D+	c #538645",
"E+	c #568946",
"F+	c #5D8F46",
"G+	c #639646",
"H+	c #659746",
"I+	c #2A442B",
"J+	c #3A4D2D",
"K+	c #506433",
"L+	c #657E3D",
"M+	c #7B9748",
"N+	c #98BF55",
"O+	c #9DC359",
"P+	c #9FC25A",
"Q+	c #9DC05C",
"R+	c #8AA952",
"S+	c #6C8541",
"T+	c #48592E",
"U+	c #2D3C27",
"V+	c #253C2A",
"W+	c #2C4B31",
"X+	c #396037",
"Y+	c #48763E",
"Z+	c #528443",
"`+	c #568945",
" @	c #588B46",
".@	c #5A8D46",
"+@	c #5B8E46",
"@@	c #5C8E46",
"#@	c #5C8F46",
"$@	c #2C3B26",
"%@	c #46572D",
"&@	c #68803E",
"*@	c #87A74E",
"=@	c #99BC59",
"-@	c #97C056",
";@	c #A0C35B",
">@	c #9BBE5A",
",@	c #647A3C",
"'@	c #364426",
")@	c #1D3123",
"!@	c #23422C",
"~@	c #2C5434",
"{@	c #39653A",
"]@	c #45753F",
"^@	c #4E8042",
"/@	c #538644",
"(@	c #578A45",
"_@	c #354326",
":@	c #62783C",
"<@	c #84A34D",
"[@	c #98C056",
"}@	c #A0C45B",
"|@	c #9BBE59",
"1@	c #87A550",
"2@	c #62793B",
"3@	c #354426",
"4@	c #203A26",
"5@	c #284E30",
"6@	c #2F5E38",
"7@	c #36683C",
"8@	c #3D713E",
"9@	c #447840",
"0@	c #4C8042",
"a@	c #344326",
"b@	c #62773B",
"c@	c #9ABE5A",
"d@	c #85A44E",
"e@	c #647B3C",
"f@	c #394928",
"g@	c #234027",
"h@	c #2B5632",
"i@	c #32653A",
"j@	c #346A3D",
"k@	c #366D3D",
"l@	c #3B703E",
"m@	c #4E8143",
"n@	c #558845",
"o@	c #384827",
"p@	c #63793C",
"q@	c #99BD5A",
"r@	c #657B3C",
"s@	c #384928",
"t@	c #244328",
"u@	c #2D5934",
"v@	c #33683B",
"w@	c #346C3D",
"x@	c #346B3D",
"y@	c #3E733F",
"z@	c #477B41",
"A@	c #4D8043",
"B@	c #4F8243",
"C@	c #394929",
"D@	c #98BC59",
"E@	c #9CC15A",
"F@	c #657C3D",
"G@	c #356C3D",
"H@	c #396F3E",
"I@	c #427640",
"J@	c #437840",
"K@	c #437740",
"L@	c #384828",
"M@	c #647A3D",
"N@	c #9CC05B",
"O@	c #31643A",
"P@	c #336A3D",
"Q@	c #376D3E",
"R@	c #386E3E",
"S@	c #9BBF5B",
"T@	c #374727",
"U@	c #213B26",
"V@	c #284F30",
"W@	c #2E5D37",
"X@	c #31643B",
"Y@	c #33683C",
"Z@	c #384627",
"`@	c #1E3223",
" #	c #23432C",
".#	c #285133",
"+#	c #2D5B38",
"@#	c #33693C",
"##	c #336B3D",
"$#	c #88A751",
"%#	c #9DC25B",
"&#	c #374526",
"*#	c #1B2B21",
"=#	c #1F3829",
"-#	c #244630",
";#	c #295335",
">#	c #2E5E39",
",#	c #32663B",
"'#	c #374426",
")#	c #657B3D",
"!#	c #A0C45C",
"~#	c #354225",
"{#	c #1A2821",
"]#	c #1E3428",
"^#	c #21402E",
"/#	c #264C33",
"(#	c #2B5636",
"_#	c #2E5D38",
":#	c #2F5F39",
"<#	c #354125",
"[#	c #647A3B",
"}#	c #364326",
"|#	c #213E2E",
"1#	c #244631",
"2#	c #285034",
"3#	c #295134",
"4#	c #285134",
"5#	c #87A64F",
"6#	c #677F3D",
"7#	c #42512B",
"8#	c #233223",
"9#	c #1F3527",
"0#	c #223C2C",
"a#	c #21402F",
"b#	c #224230",
"c#	c #234330",
"d#	c #234430",
"e#	c #243223",
"f#	c #41512B",
"g#	c #677F3F",
"h#	c #8CAC52",
"i#	c #728D43",
"j#	c #586D37",
"k#	c #41532E",
"l#	c #30422A",
"m#	c #223729",
"n#	c #1F392B",
"o#	c #203C2D",
"p#	c #213E2F",
"q#	c #213F2F",
"r#	c #203F2F",
"s#	c #203E2F",
"t#	c #1F3E2F",
"u#	c #41522E",
"v#	c #586C37",
"w#	c #748E46",
"x#	c #9ABE59",
"y#	c #9DC15B",
"z#	c #92B356",
"A#	c #819F4C",
"B#	c #6F8843",
"C#	c #596E39",
"D#	c #41522D",
"E#	c #273826",
"F#	c #1D3126",
"G#	c #1F382B",
"H#	c #203D2E",
"I#	c #273825",
"J#	c #40512D",
"K#	c #596E38",
"L#	c #6D8641",
"M#	c #809D4B",
"N#	c #90B154",
"O#	c #94B657",
"P#	c #7B974A",
"Q#	c #6A8141",
"R#	c #526534",
"S#	c #394728",
"T#	c #223829",
"U#	c #213D2E",
"V#	c #223D2E",
"W#	c #233D2D",
"X#	c #243E2D",
"Y#	c #263E2D",
"Z#	c #273E2D",
"`#	c #283826",
" $	c #516433",
".$	c #7A9648",
"+$	c #87A74F",
"@$	c #92B455",
"#$	c #98BC58",
"$$	c #9CC059",
"%$	c #9ABD58",
"&$	c #91B255",
"*$	c #8AAA52",
"=$	c #829E4E",
"-$	c #758F47",
";$	c #536635",
">$	c #42542E",
",$	c #34462B",
"'$	c #253A2A",
")$	c #203629",
"!$	c #263828",
"~$	c #2B3928",
"{$	c #303B28",
"]$	c #343C28",
"^$	c #353C28",
"/$	c #43542E",
"($	c #536534",
"_$	c #637A3C",
":$	c #728C43",
"<$	c #7E9C4A",
"[$	c #88A850",
"}$	c #8DAE52",
"|$	c #92B454",
"1$	c #96B956",
"2$	c #8DAE53",
"3$	c #829F4E",
"4$	c #7C984A",
"5$	c #748F46",
"6$	c #6A8241",
"7$	c #5A7039",
"8$	c #293825",
"9$	c #202B21",
"0$	c #252D21",
"a$	c #2B2F20",
"b$	c #343320",
"c$	c #3C361F",
"d$	c #41391F",
"e$	c #443A1F",
"f$	c #5A6E38",
"g$	c #698140",
"h$	c #738D45",
"i$	c #7F9D4B",
"j$	c #83A14C",
"k$	c #85A44C",
"l$	c #89AA4E",
"m$	c #8FB152",
"n$	c #9DC15A",
"o$	c #8DAE51",
"p$	c #86A54E",
"q$	c #83A14E",
"r$	c #82A04D",
"s$	c #809E4C",
"t$	c #819F4D",
"u$	c #789348",
"v$	c #4D5F31",
"w$	c #2F3821",
"x$	c #232119",
"y$	c #2A2519",
"z$	c #332A18",
"A$	c #3D3017",
"B$	c #463517",
"C$	c #4C3917",
"D$	c #4F3B17",
"E$	c #2F3820",
"F$	c #4D5E30",
"G$	c #677E3F",
"H$	c #779247",
"I$	c #7D994B",
"J$	c #7F9C4B",
"K$	c #7E9C49",
"L$	c #7F9D48",
"M$	c #89AA4D",
"N$	c #92B552",
"O$	c #94B754",
"P$	c #8BAB50",
"Q$	c #83A14D",
"R$	c #7D9A4C",
"S$	c #6C8441",
"T$	c #516130",
"U$	c #32351E",
"V$	c #2B2115",
"W$	c #342614",
"X$	c #3D2C14",
"Y$	c #473314",
"Z$	c #4F3A14",
"`$	c #553E14",
" %	c #574014",
".%	c #516231",
"+%	c #6B8340",
"@%	c #7C974A",
"#%	c #819E4D",
"$%	c #809E4B",
"%%	c #7C9948",
"&%	c #7C9A47",
"*%	c #88A84D",
"=%	c #90B351",
"-%	c #98BC55",
";%	c #7F9C49",
">%	c #809D4A",
",%	c #819F4B",
"'%	c #819F4A",
")%	c #7C9848",
"!%	c #6C843F",
"~%	c #53622F",
"{%	c #37371D",
"]%	c #3D2C13",
"^%	c #473213",
"/%	c #574116",
"(%	c #5C4617",
"_%	c #5E4817",
":%	c #526130",
"<%	c #6C8440",
"[%	c #7B9749",
"}%	c #7F9D4A",
"|%	c #7E9C48",
"1%	c #7C9A46",
"2%	c #7B9845",
"3%	c #7C9946",
"4%	c #87A74C",
"5%	c #8FB250",
"6%	c #95B855",
"7%	c #8AAA4F",
"8%	c #82A04B",
"9%	c #7F9D49",
"0%	c #809E4A",
"a%	c #7B9849",
"b%	c #6D863F",
"c%	c #596A32",
"d%	c #444923",
"e%	c #3E3619",
"f%	c #433315",
"g%	c #4C3815",
"h%	c #553F16",
"i%	c #5D4819",
"j%	c #634E1C",
"k%	c #65501D",
"l%	c #444924",
"m%	c #586933",
"n%	c #6D853F",
"o%	c #7A9647",
"p%	c #7B9945",
"q%	c #7E9C47",
"r%	c #86A74B",
"s%	c #90B250",
"t%	c #9EC25B",
"u%	c #83A14B",
"v%	c #7D9B47",
"w%	c #7B9847",
"x%	c #728C42",
"y%	c #657A3A",
"z%	c #57662F",
"A%	c #4D5326",
"B%	c #49421D",
"C%	c #4A3817",
"D%	c #564119",
"E%	c #624D1E",
"F%	c #6B5522",
"G%	c #6E5823",
"H%	c #4E5428",
"I%	c #586631",
"J%	c #64793B",
"K%	c #7D9B48",
"L%	c #7E9C46",
"M%	c #91B351",
"N%	c #82A04A",
"O%	c #7D9A47",
"P%	c #789445",
"Q%	c #728C41",
"R%	c #6A803D",
"S%	c #5D6D33",
"T%	c #473C1B",
"U%	c #54421D",
"V%	c #665123",
"W%	c #715B28",
"X%	c #765F29",
"Y%	c #5D6D32",
"Z%	c #6A803C",
"`%	c #7B9846",
" &	c #7A9845",
".&	c #7D9B46",
"+&	c #8BAB4F",
"@&	c #7E9B48",
"#&	c #779244",
"$&	c #687F3B",
"%&	c #55642E",
"&&	c #4B4C23",
"*&	c #564D24",
"=&	c #695B2A",
"-&	c #76652F",
";&	c #7A6A30",
">&	c #4B4D24",
",&	c #56652F",
"'&	c #677E3A",
")&	c #769144",
"!&	c #8AAB4F",
"~&	c #708A3E",
"{&	c #637836",
"]&	c #5B6930",
"^&	c #62682F",
"/&	c #6E7033",
"(&	c #797737",
"_&	c #7C7A38",
":&	c #797838",
"<&	c #6F7134",
"[&	c #626930",
"}&	c #5B6A31",
"|&	c #637838",
"1&	c #718B41",
"2&	c #7A9844",
"3&	c #93B653",
"4&	c #89A94D",
"5&	c #809E49",
"6&	c #779343",
"7&	c #718B40",
"8&	c #6D843C",
"9&	c #70843C",
"0&	c #75863D",
"a&	c #7A893E",
"b&	c #7C8B3F",
"c&	c #7A8A3F",
"d&	c #75873D",
"e&	c #6C843C",
"f&	c #779444",
"g&	c #8DAD51",
"h&	c #85A34C",
"i&	c #7A9745",
"j&	c #799544",
"k&	c #7A9544",
"l&	c #7B9644",
"m&	c #7A9543",
"n&	c #7B9543",
"o&	c #7C9644",
"p&	c #7B9544",
"q&	c #799443",
"r&	c #799645",
"s&	c #809F48",
"t&	c #82A14B",
"u&	c #83A34A",
"v&	c #87A84C",
"w&	c #8FB150",
"x&	c #93B752",
"y&	c #98BD55",
"z&	c #9ABE55",
"A&	c #95B856",
"B&	c #799744",
"C&	c #8BAC4F",
"D&	c #97BC55",
"E&	c #99BD55",
"F&	c #93B654",
"G&	c #7E9D47",
"H&	c #86A64B",
"I&	c #97BB55",
"J&	c #95BC52",
"K&	c #95BB51",
"L&	c #96BC52",
"M&	c #809F49",
"N&	c #799844",
"O&	c #789643",
"P&	c #789542",
"Q&	c #779441",
"R&	c #789743",
"S&	c #799743",
"T&	c #799643",
"U&	c #7C9B45",
"V&	c #87A74B",
"W&	c #91B451",
"X&	c #96BD53",
"Y&	c #93BA50",
"Z&	c #96BC53",
"`&	c #97BD54",
" *	c #94BB51",
".*	c #94B950",
"+*	c #93B950",
"@*	c #95BB52",
"  . + @ # $ $ $ # # % $ # % % $ $ @ & * * * * = * & & * * * * & * = = - * & @ @ # # # @ @ & * * ; > ",
"* , , # $ $ % ' % ' ' ' % % $ $ $ # # @ ) ! ~ { ] ] { ^ / ) @ @ & * * * * @ # $ # # @ # @ # & & * ( ",
"_ : < % % $ % ' ' % ' % % % $ $ % [ $ } | 1 2 3 4 4 3 5 1 6 7 @ 8 & & # # @ # $ @ & # $ # # # & & = ",
"@ $ % ' ' 9 9 9 9 ' ' ' % 0 % % ' % a b c d e f g g f h i ! j k @ # $ # # $ $ # @ # $ $ $ $ # # & & ",
"# % ' ' 9 ' ' ' ' ' 9 ' ' % % % % l m n o h p q r r q s t u n m v @ # @ @ # $ # $ % # # $ # # # # w ",
"$ % ' 9 9 % $ ' ' 9 ' 0 % % x $ l y z A B C D E F F E D C G H I J } # K % $ # $ ' % $ # $ L # # # $ ",
"# % ' 9 ' ' ' ' ' ' 9 ' % ' [ M N O P Q R S T U V V U T S R W X Y Z ` K % $ $ $ $ $ % $ $ $ # $ # $ ",
"@ % 9 ' % 9 ' % % % ' ' ' '  .N ..+.Q @.#.$.%.&.V V &.%.$.#.*.W =.-.;.>.$ $ $ # $ % $ # # $ $ $ # $ ",
"& % 9 ' ' ' 9 % ' ' ,.9 9 ,.'.).!.~.{.].^./.(._.:.:._.(./.^.].{.<.[.}.>.# $ @ # # $ $ % $ $ $ $ $ $ ",
"# % ' 9 |.' 9 9 ' 9 9 1.2.2.3.4.5.6.7.8.9.0.a.b.c.c.b.a.0.9.8.7.d.e.! >.$ % $ # % $ # $ $ $ $ @ $ # ",
"@ $ % ' ' 9 % ' ,.,.,.f.g.g.h.i.j.k.l.m.n.o.p.a.q.q.a.p.o.n.m.l.r.e.s.t.$ % $ $ # # # $ # # $ $ # # ",
"@ $ % ' ' ' ' ' ,.1.f.u.v.w.x.y.z.A.B.C.D.o.E.F.G.G.F.E.o.D.C.B.H.I.J.K.7 # x # $ % % # $ $ $ # @ & ",
"& $ ' ' ' ' ' ' 1.g.g.L.M.N.O.P.Q.R.S.T.U.V.W.o.X.X.o.W.V.U.T.S.Y.Z.`. +.+a $ ' $ $ $ $ x $ # # @ @ ",
"* @ # % ' % 9 ,.1.g.g.++@+#+$+%+&+*+=+-+;+>+V.,+X.X.,+V.>+;+-+=+*+'+Z.)+!+b l % ' [ @ @ # @ @ & & & ",
"* $ ' ' ' ' ,.9 2.~+{+]+^+/+(+_+:+<+[+}+|+1+2+3+W.W.3+2+1+|+}+[+<+4+5+6+7+8+9+0+$ x $ # # @ # @ * & ",
"* $ % ' ' ' ,.9 a+b+c+d+e+f+g+h+i+j+k+l+m+n+o+>+p+p+>+o+n+m+l+k+j+i+h+q+r+s+t+u+` [ $ # @ @ @ & # - ",
"* $ ' 9 % ' 9 ,.v+w+x+/+f+y+z+A+B+C+D+E+m+F+n+G+H+H+G+n+F+m+E+D+C+B+A+I+J+K+L+M+Z 7 $ # K # @ # @ - ",
"N+O+P+' ' 9 ' 9 Q+R+S+T+U+V+W+X+Y+Z+`+ @m+.@+@@@#@#@@@+@.@m+ @`+Z+Y+X+W+V+$@%@&@*@=@2.% # & @ @ & * ",
"-@O+;@9 ' 9 ' 9 >@4.,@'@)@!@~@{@]@^@/@(@m+m+m+m+m+m+m+m+m+m+(@/@^@]@{@~@!@)@_@:@<@=@|.% $ # @ # @ * ",
"[@# }@9 9 9 ' 9 |@1@2@3@4@5@6@7@8@9@0@/@ @m+m+m+m+m+m+m+m+ @/@0@9@8@7@6@5@4@a@b@<@=@a+$ $ # @ @ @ * ",
"= @ % % % $ ' ,.c@d@e@f@g@h@i@j@k@l@9@m@n@(@(@(@(@(@(@(@(@n@m@9@l@k@j@i@h@g@o@p@<@q@x # # $ # @ @ @ ",
"* @ $ $ % % |.9 c@4.r@s@t@u@v@w@x@k@y@z@A@B@B@B@B@B@B@B@B@A@z@y@k@x@w@v@u@t@C@p@<@D@E@# $ # # # & & ",
"& $ ' % % ' 9 ,.0+i.F@f@t@u@v@w@x@G@H@y@I@J@J@K@K@K@K@J@J@I@y@H@G@x@w@v@u@t@L@M@4.c@a+$ # $ # # # @ ",
"@ ' % % ' ' ' 9 N@i.r@o@g@h@O@P@x@x@G@Q@R@R@R@R@R@R@R@R@R@R@Q@G@x@x@P@O@h@g@o@p@i.S@2.% $ # # # @ * ",
"# $ ' ' ' ' 9 9 c@i.e@T@U@V@W@X@Y@j@x@x@x@x@x@x@x@x@x@x@x@x@x@x@j@Y@X@W@V@U@T@M@i.S@0 $ # $ $ @ # * ",
"% % ' ' ' 9 9 9 0+i.r@Z@`@ #.#+#X@@#x@x@####################x@x@@#X@+#.# #`@Z@M@$#3.%#x [ $ $ # @ 8 ",
"' ' % ,.9 9 9 ,.c@4.r@&#*#=#-#;#>#,#@#@#Y@Y@Y@Y@Y@Y@Y@Y@Y@Y@@#@#,#>#;#-#=#*#'#)#$#c@2.a+a+%## @ & - ",
"% % ' 9 ' !#1.,.0+1@,@~#{#]#^#/#(#_#:#:#:#:#:#:#:#:#:#:#:#:#:#:#_#(#/#^#]#{#<#p@4.q@a+a+a+E@# @ * * ",
"% ' ' 9 ' ' 9 x c@4.[#}#{#]#|#1#/#2#3#3#4#4#4#4#4#4#4#4#4#4#3#3#2#/#1#|#]#{#}#p@<@D@a+0 x [ # # & - ",
"' |.9 ' ' ' ' |.S@5#6#7#8#9#0#a#b#c#d#d#d#d#d#d#d#d#d#d#d#d#d#d#c#b#a#0#9#e#f#g#5#q@2.$ $ $ # # & * ",
"$ ' ' ' ' |.!#' 0+h#i#j#k#l#m#n#o#p#q#q#r#s#s#t#t#t#t#s#s#r#q#q#p#o#n#m#l#u#v#w#h#x#a+# @ # # @ & & ",
"@ % % $ % % ' ' y#z#A#B#C#D#E#F#G#H#q#q#s#s#s#s#s#s#s#s#s#s#q#q#H#G#F#I#J#K#L#M#N#0+a+$ @ # # @ @ & ",
"@ # % % % % ' ' 0+O#R+P#Q#R#S#E#T#0#U#V#W#X#Y#Z#Z#Z#Z#Y#X#W#V#U#0#T#`#S# $&@.$+$@$#$E@$ # @ @ @ # @ ",
"& # $ % ' x $$%$9+&$*$=$-$)#;$>$,$'$)$m#!$~${$]$^$^$]${$~$!$m#)$'$,$/$($_$:$<$[$}$|$1$v 8 # @ # & @ ",
"* # % ' % x %$y 2$R+4.3$4$5$6$7$>$8$9$0$a$b$c$d$e$e$d$c$b$a$0$9$8$>$f$g$h$.$i$j$k$l$m$k w @ @ @ # $ ",
"- @ % ' !#n$1$o$p$q$r$s$t$x+u$/+v$w$x$y$z$A$B$C$D$D$C$B$A$z$y$x$E$F$G$H$I$J$<$K$L$/ M$N$} & * # # # ",
"@ $ % ' ' $$O$P$Q$J$J$M#A#t$R$S$T$U$V$W$X$Y$Z$`$ % %`$Z$Y$X$W$V$U$.%+%@%#%$%<$%%&%L$*%=%-%& * # # & ",
"@ $ % ' ' %#1$P$j$;%K$>%,%'%)%!%~%{%W$]%^%Z$/%(%_%_%(%/%Z$^%]%W${%:%<%[%}%|%1%2%3%L$4%5%-%@ * * @ # ",
"@ % ' ' 9 n$6%7%8%9%|%>%0%0%a%b%c%d%e%f%g%h%i%j%k%k%j%i%h%g%f%e%l%m%n%o%}%|%1%2%p%q%r%s%-%# @ @ @ * ",
"@ $ ' 9 ' t%6%7%u%9%|%v%L$|%w%x%y%z%A%B%C%D%E%F%G%G%F%E%D%C%B%H%I%J%:$!+J.K%1%3%p%L%4%M%-%& @ @ # & ",
"$ % % % 9 E@6%7%N%K$|%|%|%9%O%P%Q%R%S%A%T%U%V%W%X%X%W%V%U%T%A%Y%Z%x%P%`%1%1%3%3% &.&r%M%v & @ @ & * ",
"% 9 % ' % $$6%+&8%@&K%|%v%v%O%K%..#&$&%&&&*&=&-&;&;&-&=&*&>&,&'&)&w%..1%1%3%3%2% &q%r%s%-%@ & & * & ",
"@ $ ' 9 % E@6%!&Y |%K%|%;%|%v%|%9%2%~&{&]&^&/&(&_&_&:&<&[&}&|&1&w%K%1%1%3%3%3%2&3%L$*%6 -%@ @ # @ - ",
"@ $ ' ' ' E@3&4&5&&%&%|%|%|%v%|%|%O%6&7&8&9&0&a&b&b&c&d&9&e&7&f&O%&%|%1%3%2%2%2&2%L$4%N$-%# @ @ & * ",
"@ $ % ' ' $$6%g&h&9%9%9%|%v%|%v%v%p%i&n j&k&l&m&n&o&p&k&q&r&i&`%1%3%2%3%2%2%1%O%.&s&M$N$-%& @ & & * ",
"* # % $ % [ t.|$+&).t&9%v%@&v%v%3%3%O%p%1%p%p%1%2&2&p%p%p%1%O%1%3%2%2&3%p%3%.&1 u&v&w&x&y&@ @ * z&- ",
"( & $ % % |.[ %$A&Z ).'%@&@&v%1%1%1%O%1%1%p%p%p%B&B&2&2&p%1%&%p%2&2%2%2%p%1%L$u&C&M%k D&w # @ * * E&",
"( * # % % ' 9 ' } F&7%'%K$O%1%1%1%1%2%2%2%2%2%2%2&2%2&2&2&2&2&2&2%2%2&3%1%1%G&H&w&I&& @ @ @ & * * J&",
"K&L&- @ % % % % K O$7%M&O%2%2&N&2&2&2&3%2%3%3%2%2%2%2&O&P&Q&O&R&R&R&S&2%B&T&U&V&W&y&@ & & - = = X&  ",
"Y&X&Z&- 8 & # $ $ % @ & * * `& *J&= * & @ @ & & & * = ; .*.*.*+* *Y&.*; ; = = = = - - * = = ( = @* *"};
