/* XPM */
static char * porta_xpm[] = {
"50 50 481 2",
"  	c #94BC52",
". 	c #97BF55",
"+ 	c #99C157",
"@ 	c #9BC057",
"# 	c #9CC158",
"$ 	c #9DC259",
"% 	c #9EC35A",
"& 	c #97BC54",
"* 	c #8EB04E",
"= 	c #8EB14F",
"- 	c #738F3F",
"; 	c #090909",
"> 	c #070707",
", 	c #121212",
"' 	c #080808",
") 	c #6D883C",
"! 	c #8DB04E",
"~ 	c #96BB54",
"{ 	c #99BE55",
"] 	c #97BC53",
"^ 	c #98BD54",
"/ 	c #9ABF56",
"( 	c #95BA51",
"_ 	c #93B84F",
": 	c #9BC158",
"< 	c #9FC45B",
"[ 	c #9BBF58",
"} 	c #91B452",
"| 	c #7E9C46",
"1 	c #39481E",
"2 	c #394722",
"3 	c #404835",
"4 	c #3E3E3E",
"5 	c #292929",
"6 	c #555555",
"7 	c #575757",
"8 	c #2D2D2D",
"9 	c #3A3A3A",
"0 	c #43493A",
"a 	c #3A4722",
"b 	c #37451D",
"c 	c #789642",
"d 	c #8FB250",
"e 	c #96BA53",
"f 	c #96BB52",
"g 	c #9BBF56",
"h 	c #9CBF57",
"i 	c #9DC158",
"j 	c #9CC058",
"k 	c #82A149",
"l 	c #3C4A24",
"m 	c #2C361D",
"n 	c #252525",
"o 	c #515151",
"p 	c #656565",
"q 	c #686868",
"r 	c #444444",
"s 	c #383838",
"t 	c #3B3B3B",
"u 	c #404040",
"v 	c #666666",
"w 	c #545454",
"x 	c #282828",
"y 	c #2A341C",
"z 	c #384422",
"A 	c #7A9844",
"B 	c #98BC55",
"C 	c #A0C55C",
"D 	c #9EC35B",
"E 	c #9CC159",
"F 	c #81A049",
"G 	c #404B31",
"H 	c #5F5F5F",
"I 	c #636363",
"J 	c #4C4C4C",
"K 	c #323232",
"L 	c #525252",
"M 	c #515252",
"N 	c #4F5051",
"O 	c #292A2B",
"P 	c #252526",
"Q 	c #4E4F4F",
"R 	c #515253",
"S 	c #525353",
"T 	c #353535",
"U 	c #484848",
"V 	c #606060",
"W 	c #3F4734",
"X 	c #7C9A46",
"Y 	c #9ABE57",
"Z 	c #819F48",
"` 	c #354122",
" .	c #616161",
"..	c #6A6A6A",
"+.	c #6C6C6C",
"@.	c #616162",
"#.	c #303132",
"$.	c #13100C",
"%.	c #2A1D11",
"&.	c #27160A",
"*.	c #241307",
"=.	c #27190D",
"-.	c #2A1C10",
";.	c #130C07",
">.	c #2B2C2D",
",.	c #6B6B6B",
"'.	c #373F2C",
").	c #98BD55",
"!.	c #99BE56",
"~.	c #9BC058",
"{.	c #819F49",
"].	c #374326",
"^.	c #262626",
"/.	c #4C4D4E",
"(.	c #403B37",
"_.	c #261408",
":.	c #51351B",
"<.	c #935C2E",
"[.	c #854212",
"}.	c #854111",
"|.	c #915829",
"1.	c #864211",
"2.	c #4F270A",
"3.	c #2A1B0F",
"4.	c #413D38",
"5.	c #4B4C4E",
"6.	c #4B4C4C",
"7.	c #303030",
"8.	c #4F4F4F",
"9.	c #3E4534",
"0.	c #9DC159",
"a.	c #94B754",
"b.	c #3B4924",
"c.	c #585857",
"d.	c #303131",
"e.	c #413E3B",
"f.	c #312214",
"g.	c #49250C",
"h.	c #925625",
"i.	c #9A6130",
"j.	c #8B4513",
"k.	c #8B4412",
"l.	c #975C2B",
"m.	c #985D2B",
"n.	c #8B4512",
"o.	c #894412",
"p.	c #955D2E",
"q.	c #583A1F",
"r.	c #2A1607",
"s.	c #110B06",
"t.	c #484849",
"u.	c #626262",
"v.	c #343F23",
"w.	c #8FB150",
"x.	c #9CC059",
"y.	c #7F9D48",
"z.	c #3C4332",
"A.	c #646464",
"B.	c #3F3A37",
"C.	c #4E321A",
"D.	c #966132",
"E.	c #8A4514",
"F.	c #945726",
"G.	c #996130",
"H.	c #99602F",
"I.	c #935726",
"J.	c #874211",
"K.	c #4C260B",
"L.	c #3E3834",
"M.	c #606161",
"N.	c #272E1D",
"O.	c #789543",
"P.	c #99BD56",
"Q.	c #A1C65D",
"R.	c #94B755",
"S.	c #3D4C25",
"T.	c #25150A",
"U.	c #8B4E1F",
"V.	c #9C6534",
"W.	c #8C4614",
"X.	c #945725",
"Y.	c #955726",
"Z.	c #884312",
"`.	c #2B1708",
" +	c #494A4B",
".+	c #4D4D4D",
"++	c #303D1A",
"@+	c #8BAD4D",
"#+	c #9FC45C",
"$+	c #95B856",
"%+	c #3A4821",
"&+	c #3F3A36",
"*+	c #4B260C",
"=+	c #8E5020",
"-+	c #9C6434",
";+	c #8A4513",
">+	c #573519",
",+	c #3E3935",
"'+	c #323333",
")+	c #535353",
"!+	c #333E21",
"~+	c #8EB050",
"{+	c #749043",
"]+	c #3B442F",
"^+	c #2D2E2F",
"/+	c #201208",
"(+	c #844111",
"_+	c #925221",
":+	c #9B6434",
"<+	c #986233",
"[+	c #302417",
"}+	c #4D4E4F",
"|+	c #41463A",
"1+	c #6E893E",
"2+	c #A0C55D",
"3+	c #A1C65E",
"4+	c #101010",
"5+	c #575758",
"6+	c #130D09",
"7+	c #4C250A",
"8+	c #874312",
"9+	c #996333",
"0+	c #5B381B",
"a+	c #3B332E",
"b+	c #5E5F5F",
"c+	c #161616",
"d+	c #A1C65F",
"e+	c #555657",
"f+	c #24160C",
"g+	c #834111",
"h+	c #8B4614",
"i+	c #9B6433",
"j+	c #271508",
"k+	c #9DC25A",
"l+	c #111111",
"m+	c #565758",
"n+	c #23160C",
"o+	c #824011",
"p+	c #8D5020",
"q+	c #281509",
"r+	c #505152",
"s+	c #171717",
"t+	c #242526",
"u+	c #1F1107",
"v+	c #824112",
"w+	c #251306",
"x+	c #212223",
"y+	c #2B2B2B",
"z+	c #0A0A0A",
"A+	c #9EC35C",
"B+	c #A2C760",
"C+	c #363636",
"D+	c #824012",
"E+	c #261307",
"F+	c #2C2E2E",
"G+	c #393939",
"H+	c #0D0D0D",
"I+	c #A3C861",
"J+	c #A4C962",
"K+	c #575858",
"L+	c #9C6433",
"M+	c #281609",
"N+	c #98BF55",
"O+	c #9DC359",
"P+	c #9FC25A",
"Q+	c #A2C75F",
"R+	c #565657",
"S+	c #23150C",
"T+	c #894513",
"U+	c #996332",
"V+	c #8B4F20",
"W+	c #271509",
"X+	c #9EC25E",
"Y+	c #9FC45D",
"Z+	c #97C056",
"`+	c #A0C35B",
" @	c #5C5C5C",
".@	c #535455",
"+@	c #23150B",
"@@	c #4D260A",
"#@	c #2D1809",
"$@	c #322112",
"%@	c #2F1C0D",
"&@	c #110B07",
"*@	c #A1C561",
"=@	c #98C056",
"-@	c #A0C45B",
";@	c #050505",
">@	c #1E1E1E",
",@	c #1A1B1B",
"'@	c #1E1006",
")@	c #311807",
"!@	c #4D4F51",
"~@	c #515354",
"{@	c #232323",
"]@	c #181818",
"^@	c #1F1F1F",
"/@	c #A0C55E",
"(@	c #0C0C0C",
"_@	c #454545",
":@	c #3E3F3F",
"<@	c #211309",
"[@	c #361A07",
"}@	c #252321",
"|@	c #181614",
"1@	c #282523",
"2@	c #121211",
"3@	c #A0C460",
"4@	c #763A0F",
"5@	c #69340D",
"6@	c #774C27",
"7@	c #6B3C17",
"8@	c #9CC15A",
"9@	c #565757",
"0@	c #8C4512",
"a@	c #8D4714",
"b@	c #9E6534",
"c@	c #8F5121",
"d@	c #505151",
"e@	c #A2C662",
"f@	c #0F0F0F",
"g@	c #4D4E4E",
"h@	c #22150B",
"i@	c #474849",
"j@	c #595959",
"k@	c #141414",
"l@	c #040404",
"m@	c #191919",
"n@	c #151617",
"o@	c #1D1006",
"p@	c #935321",
"q@	c #9D6534",
"r@	c #241205",
"s@	c #131415",
"t@	c #1A1A1A",
"u@	c #060606",
"v@	c #0E0E0E",
"w@	c #22140A",
"x@	c #874212",
"y@	c #7F471C",
"z@	c #87572D",
"A@	c #793D11",
"B@	c #7E3E10",
"C@	c #444545",
"D@	c #131313",
"E@	c #9DC25B",
"F@	c #9ABF57",
"G@	c #834112",
"H@	c #733910",
"I@	c #241306",
"J@	c #100A05",
"K@	c #140A03",
"L@	c #482309",
"M@	c #945625",
"N@	c #A3C763",
"O@	c #A0C45C",
"P@	c #824111",
"Q@	c #532B0D",
"R@	c #1B1109",
"S@	c #2F1707",
"T@	c #70370F",
"U@	c #4A4A4A",
"V@	c #434444",
"W@	c #844112",
"X@	c #6A340E",
"Y@	c #352313",
"Z@	c #905D30",
"`@	c #5B2E0D",
" #	c #371B07",
".#	c #935625",
"+#	c #271408",
"@#	c #3E3F40",
"##	c #4E4E4E",
"$#	c #1B1B1B",
"%#	c #171819",
"&#	c #3C2512",
"*#	c #764C27",
"=#	c #51290C",
"-#	c #442108",
";#	c #1C1C1C",
">#	c #5A5A5A",
",#	c #6F3A13",
"'#	c #301F10",
")#	c #46230A",
"!#	c #4B4C4D",
"~#	c #5E5E5E",
"{#	c #151515",
"]#	c #905120",
"^#	c #884414",
"/#	c #9FC35D",
"(#	c #0B0B0B",
"_#	c #3D3D3D",
":#	c #363738",
"<#	c #201309",
"[#	c #261407",
"}#	c #323334",
"|#	c #3F3F3F",
"1#	c #242424",
"2#	c #1F2021",
"3#	c #1E1107",
"4#	c #1D1E1F",
"5#	c #2E2E2E",
"6#	c #28292A",
"7#	c #1F1108",
"8#	c #261306",
"9#	c #252627",
"0#	c #2C2D2D",
"a#	c #1F1208",
"b#	c #5A2C0C",
"c#	c #3E1F08",
"d#	c #472E17",
"e#	c #40240E",
"f#	c #120A04",
"g#	c #2A2A2A",
"h#	c #343434",
"i#	c #404344",
"j#	c #222324",
"k#	c #444546",
"l#	c #212121",
"m#	c #321907",
"n#	c #2F3031",
"o#	c #1B1B1A",
"p#	c #333333",
"q#	c #505050",
"r#	c #555556",
"s#	c #562A0A",
"t#	c #623F20",
"u#	c #583112",
"v#	c #1A0E06",
"w#	c #4F5050",
"x#	c #1D1E1E",
"y#	c #8E4714",
"z#	c #9E6634",
"A#	c #905221",
"B#	c #1A1B1C",
"C#	c #222222",
"D#	c #3A3B3B",
"E#	c #353637",
"F#	c #434343",
"G#	c #9ABE55",
"H#	c #8C4513",
"I#	c #955826",
"J#	c #99BD55",
"K#	c #585858",
"L#	c #21140B",
"M#	c #793C10",
"N#	c #814011",
"O#	c #874C1E",
"P#	c #814113",
"Q#	c #813F11",
"R#	c #895023",
"S#	c #8E5A2D",
"T#	c #8C5528",
"U#	c #8C5628",
"V#	c #8E592C",
"W#	c #8A5123",
"X#	c #814112",
"Y#	c #834A1E",
"Z#	c #251408",
"`#	c #5B5B5B",
" $	c #95BC52",
".$	c #95BB51",
"+$	c #96BC52",
"@$	c #080503",
"#$	c #1C0E04",
"$$	c #1E0F04",
"%$	c #201207",
"&$	c #22160B",
"*$	c #201308",
"=$	c #21150A",
"-$	c #211409",
";$	c #090502",
">$	c #111112",
",$	c #96BD53",
"'$	c #93BA50",
")$	c #96BC53",
"!$	c #97BD54",
"~$	c #94BB51",
"{$	c #94B950",
"]$	c #93B950",
"^$	c #95BB52",
"  . + @ # $ $ $ # # % $ # % % $ $ @ & * = - ; > , , ' ' ) = ! ~ { ] ] ^ { / @ @ # # # @ @ / { { ( _ ",
"{ : : # $ $ % < % < < < % % $ $ [ } | 1 2 3 4 5 6 7 8 9 0 a b c d e { { { @ # $ # # @ # @ # / / { f ",
"g h i % % $ % < < % < % % % $ j k l m n o p q r s t u q v w x y z A B # # @ # $ @ / # $ # # # / / ] ",
"@ $ % < < C C C C < < < % D E F G H I J K L M N O P Q R S T U I V W X Y # $ $ # @ # $ $ $ $ # # / / ",
"# % < < C < < < < < C < < E Z `  ...+.@.#.$.%.&.*.=.-.&.;.>.H +.,.L '.A ).# $ # $ % # # $ # # # # !.",
"$ % < C C % $ < < C < D ~.{.].^.o  ./.(._.:.<.[.}.|.|.1.2.3.4.5.6.7.8.9.X Y # $ < % $ # $ 0.# # # $ ",
"# % < C < < < < < < C < a.b.H c.d.e.f.g.}.h.i.j.k.l.m.n.o.p.q.r.s.t.,.u.v.w.$ $ $ $ % $ $ $ # $ # $ ",
"@ % C < % C < % % % < x.y.z.A.u.B.C.D.E.k.F.G.j.k.l.l.k.j.H.I.J.K.L.M.v N.O.P.# $ % $ # # $ $ $ # $ ",
"/ % C < < < C % < < Q.R.S.V ,.R T.U.V.W.k.X.G.j.k.l.l.k.j.H.Y.k.Z.`. +.+5 ++@+# # $ $ % $ $ $ $ $ $ ",
"# % < C #+< C C < C C $+%+u V &+*+=+-+W.k.X.G.j.k.l.l.k.j.H.Y.k.;+>+,+'+)+!+~+# % $ # $ $ $ $ @ $ # ",
"@ $ % < < C % < Q.Q.Q.{+]+7.^+/+(+_+:+W.k.X.G.j.k.l.l.k.j.H.Y.k.W.<+[+}+q |+1+$ # # # $ # # $ $ # # ",
"@ $ % < < < < < Q.2+3+4+H 5+6+7+8+_+:+W.k.X.G.j.k.l.l.k.j.H.Y.k.W.9+0+a+b+u.c+# $ % % # $ $ $ # @ / ",
"/ $ < < < < < < 2+d+d+4+H e+f+g+n._+:+W.k.X.G.j.k.l.l.k.j.H.Y.k.h+i+=+j+N I c+< $ $ $ $ k+$ # # @ @ ",
"{ @ # % < % C Q.2+d+d+l+H m+n+o+n._+:+W.k.X.G.j.k.l.l.k.j.H.Y.k.h+i+p+q+r+A.s+% < E @ @ # @ @ / / / ",
"{ $ < < < < Q.C 2+d+d+> 5 t+u+v+n._+:+W.k.X.G.j.k.l.l.k.j.H.Y.k.h+i+p+w+x+y+z+A+% % $ # # @ # @ { / ",
"{ $ % < < < Q.C 2+B+B+; C+#./+D+n._+:+W.k.X.G.j.k.l.l.k.j.H.Y.k.h+i+p+E+F+G+H+A+$ % $ # @ @ @ / # ^ ",
"{ $ < C % < C Q.3+I+J+l+V K+n+o+n._+:+W.k.X.G.j.k.l.l.k.j.H.Y.k.W.L+p+M+M A.s+A+$ $ $ # ~.# @ # @ ^ ",
"N+O+P+< < C < C Q+B+J+4+H R+S+o+n._+:+W.k.X.G.j.k.l.l.k.j.H.Y.o.T+U+V+W+N I c+X+#+A+Y+% # / @ @ / { ",
"Z+O+`+C < C < C 3+d+I+4+ @.@+@o+n._+:+W.k.X.G.j.k.l.l.k.j.H.F.@@#@$@%@&@Q V c+*@Y+Y+#+% $ # @ # @ { ",
"=@# -@C C C < C Q.B+B+;@>@,@'@v+n._+:+W.k.X.G.j.k.l.l.k.j.H.F.)@!@O ~@{@]@^@> *@Y+Y+A+$ $ # @ @ @ { ",
"] @ % % % $ < Q.2+/@B+(@_@:@<@o+n._+:+W.k.X.G.j.k.l.l.k.j.H.F.[@}@|@1@2@9 U 4+3@Y+Y+k+# # $ # @ @ @ ",
"{ @ $ $ % % #+C 2+d+I+l+V K+n+o+n._+:+W.k.X.G.j.k.l.l.k.j.H.F.4@5@6@7@u+M A.s+*@Y+A+8@# $ # # # / / ",
"/ $ < % % < C Q.3+B+J+l+H 9@S+o+n._+:+W.k.X.G.j.k.l.l.k.j.H.Y.0@a@b@c@M+d@I s+e@d+/@A+$ # $ # # # @ ",
"@ < % % < < < C Q+B+I+f@6 g@h@o+n._+:+W.k.X.G.j.k.l.l.k.j.H.Y.k.h+i+p+j+i@j@k@*@B+d+Y+% $ # # # @ { ",
"# $ < < < < C C 2+B+B+l@m@n@o@v+n.p@q@a@n.X.G.j.k.l.l.k.j.H.Y.k.h+i+p+r@s@t@u@e@B+d+D $ # $ $ @ # { ",
"% % < < < C C C 3+B+I+v@o  +w@o+x@y@z@A@B@X.i.j.k.l.l.k.j.H.Y.k.h+i+p+j+C@6 D@e@I+B+E@k+E $ $ # @ F@",
"< < % Q.C C C Q.2+d+I+l+H m+S+G@H@I@J@K@L@M@i.j.k.l.l.k.j.H.Y.k.h+i+p+q+r+I s+N@I+/@Y+A+A+E@# @ / ^ ",
"% % < C < O@2+Q.3+B+I+l+V 5+n+P@G@Q@R@S@T@X.i.j.k.l.l.k.j.H.Y.k.h+i+p+q+r+A.s+e@d+Y+A+A+A+8@# @ { { ",
"% < < C < < C k+2+d+B+H+U@V@w@W@X@Y@Z@`@ #.#i.j.k.l.l.k.j.H.Y.k.h+i+p++#@###, *@Y+A+A+D k+E # # / ^ ",
"< #+C < < < < #+3+/@/@;@$#%#'@W@T@&#*#=#-#.#i.j.k.l.l.k.j.H.Y.k.h+i+p+r@n@;#u@*@/@Y+Y+$ $ $ # # / { ",
"$ < < < < #+O@< 2+/@Y+4+>#R +@o+j.,#'#)#}.X.G.j.k.l.l.k.j.H.Y.k.h+i+p+j+!#~#{#*@/@A+A+# @ # # @ / / ",
"@ % % $ % % < < 2+/@d+l+H 9@S+o+n.]#D.^#k.X.G.j.k.l.l.k.j.H.Y.k.h+i+p+q+N I c+/#A+A+A+$ @ # # @ @ / ",
"@ # % % % % < C 2+/@B+l+V K+n+o+n._+V.W.k.X.G.j.k.l.l.k.j.H.Y.k.h+i+p+M+M A.s+Y+A+E@E@$ # @ @ @ # @ ",
"/ # $ % < % < C #+d+B+(#_#:#<#D+n._+:+W.k.X.G.j.k.l.l.k.j.H.Y.k.h+i+p+[#}#|#v@/@E@8@8@# @ # @ # / @ ",
"{ # % < % < C Q.3+B+B+u@1#2#3#v+n._+:+W.k.X.G.j.k.l.l.k.j.H.Y.k.h+i+p+w+4#n ; A+E E E @ @ @ @ @ # $ ",
"^ @ % < O@< < C 3+B+B+4+~#e+S+o+n._+:+W.k.X.G.j.k.l.l.k.j.H.Y.k.h+i+p+q+N I c+E@$ # @ @ # / { # # # ",
"@ $ % < < % % C 3+/@/@4+H R+S+o+n._+:+W.k.X.G.j.k.l.l.k.j.H.Y.k.h+i+p+q+N I c+8@$ # # / / / { # # / ",
"@ $ % < < C C C Q.C #+l+V K+n+o+n._+:+W.k.X.G.j.k.l.l.k.j.H.Y.k.h+i+p+q+r+A.s+@ # # @ { / @ { { @ # ",
"@ % < < C < < % < C < ' 5#6#7#v+n._+:+W.k.X.G.j.k.l.l.k.j.H.Y.0@a@q@c@8#9#7.(#@ @ / / { / # @ @ @ { ",
"@ $ < C < C < % C C < ; K 0#a#D+n._+:+W.k.X.G.j.k.l.l.k.j.H.F.b#c#d#e#f#g#h#(@# @ / @ / / / @ @ # / ",
"$ % % % C < < % < < < l+V K+n+o+n._+:+W.k.X.G.j.k.l.l.k.j.H.F.)@i#j#k#l#o A.s+# / { / / @ / @ @ / { ",
"% C % < % % < < < % % 4+H R+S+o+n._+:+W.k.X.G.j.k.l.l.k.j.H.F.m#n#o#p#m@q#I c+@ / / / { / @ / / { / ",
"@ $ < C % < < < < < % 4+~#r#+@o+n._+:+W.k.X.G.j.k.l.l.k.j.H.F.X@s#t#u#v#w#u.c+/ # # # @ / @ @ # @ ^ ",
"@ $ < < < < $ $ $ $ $ u@l#x#'@v+n._+:+W.k.X.G.j.k.l.l.k.j.H.Y.0@y#z#A#w+B#C#' / @ # @ # / # @ @ / { ",
"@ $ % < < % % < < % < (#u D#<@o+n._+:+W.k.X.G.j.k.l.l.k.j.H.Y.k.h+i+p+[#E#F#f@# @ / @ @ / / @ / / { ",
"{ # % $ % % % < % < < l+V K+n+o+n._+:+W.k.X.G.j.k.l.l.k.j.H.Y.k.h+i+p+M+r+A.s+@ @ / @ { / @ @ { G#^ ",
"f / $ % % C < C C % < l+H 9@n+P@0@_+V.W.k.Y.i.H#n.l.m.n.j.i.I#k.W.L+=+M+N I c+@ # @ @ / / # @ { { J#",
"f { # % % < C C % < < f@K#N L#M#N#O#Z@P#Q#R#S#N#Q#T#U#Q#N#V#W#Q#X#Z@Y#Z# +`#{#@ / @ @ @ @ @ / { {  $",
".$+$^ @ % % % % $ $ % l@{#D@@$#$$$%$&$$$$$*$=$$$$$-$-$$$$$=$*$$$$$&$u+;$>${#;@/ / / @ / / ^ ] ] ,$  ",
"'$,$)$^ F@/ # $ $ % @ / { { !$~$ $] { / @ @ / / / { ] ( {${${$]$~$'${$( ( ] ] ] ] ^ ^ { ] ] f ] ^$~$"};
